<svg id="visual" viewBox="0 0 900 600" width="900" height="600" xmlns="http://www.w3.org/2000/svg" xmlns:xlink="http://www.w3.org/1999/xlink" version="1.1"><rect x="0" y="0" width="900" height="600" fill="#FFF"></rect><path d="M0 127L21.5 122.5C43 118 86 109 128.8 108C171.7 107 214.3 114 257.2 112.7C300 111.3 343 101.7 385.8 102.7C428.7 103.7 471.3 115.3 514.2 120C557 124.7 600 122.3 642.8 118C685.7 113.7 728.3 107.3 771.2 107C814 106.7 857 112.3 878.5 115.2L900 118L900 0L878.5 0C857 0 814 0 771.2 0C728.3 0 685.7 0 642.8 0C600 0 557 0 514.2 0C471.3 0 428.7 0 385.8 0C343 0 300 0 257.2 0C214.3 0 171.7 0 128.8 0C86 0 43 0 21.5 0L0 0Z" fill="#b9dabd"></path><path d="M0 59L21.5 63.8C43 68.7 86 78.3 128.8 78.7C171.7 79 214.3 70 257.2 69.7C300 69.3 343 77.7 385.8 78C428.7 78.3 471.3 70.7 514.2 73.2C557 75.7 600 88.3 642.8 94C685.7 99.7 728.3 98.3 771.2 95.3C814 92.3 857 87.7 878.5 85.3L900 83L900 0L878.5 0C857 0 814 0 771.2 0C728.3 0 685.7 0 642.8 0C600 0 557 0 514.2 0C471.3 0 428.7 0 385.8 0C343 0 300 0 257.2 0C214.3 0 171.7 0 128.8 0C86 0 43 0 21.5 0L0 0Z" fill="#8eae92"></path><path d="M0 27L21.5 30.7C43 34.3 86 41.7 128.8 46.7C171.7 51.7 214.3 54.3 257.2 52.5C300 50.7 343 44.3 385.8 41.7C428.7 39 471.3 40 514.2 38.3C557 36.7 600 32.3 642.8 30.7C685.7 29 728.3 30 771.2 32.8C814 35.7 857 40.3 878.5 42.7L900 45L900 0L878.5 0C857 0 814 0 771.2 0C728.3 0 685.7 0 642.8 0C600 0 557 0 514.2 0C471.3 0 428.7 0 385.8 0C343 0 300 0 257.2 0C214.3 0 171.7 0 128.8 0C86 0 43 0 21.5 0L0 0Z" fill="#658369"></path></svg>