<?xml version="1.0" encoding="UTF-8" standalone="no"?>
<!-- Created with Inkscape (http://www.inkscape.org/) -->

<svg
   version="1.1"
   id="svg2"
   width="2069.5879"
   height="529.72363"
   viewBox="0 0 2069.5879 529.72362"
   xmlns="http://www.w3.org/2000/svg"
   xmlns:svg="http://www.w3.org/2000/svg">
  <defs
     id="defs6">
    <clipPath
       clipPathUnits="userSpaceOnUse"
       id="clipPath16">
      <path
         d="M 0,2000 H 2000 V 0 H 0 Z"
         id="path14" />
    </clipPath>
  </defs>
  <g
     id="g8"
     transform="matrix(1.3333333,0,0,-1.3333333,-298.53965,1598.1952)">
    <g
       id="g10">
      <g
         id="g12"
         clip-path="url(#clipPath16)">
        <g
           id="g18"
           transform="translate(821.9336,1018.354)">
          <path
             d="m 0,0 c 12.684,2.798 25.087,7.878 37.214,15.247 12.125,7.369 23.039,16.325 32.74,26.868 9.697,10.532 17.44,22.008 23.224,34.416 5.781,12.403 8.675,25.043 8.675,37.915 0,3.169 -0.84,5.782 -2.518,7.833 -1.68,2.051 -4.106,3.081 -7.275,3.081 -4.293,0 -9.793,-2.381 -16.51,-7.136 C 68.835,113.467 61.183,105.537 52.606,94.438 44.021,83.338 34.787,68.085 24.904,48.69 19.867,38.987 15.433,30.454 11.612,23.085 7.786,15.711 3.916,8.018 0,0 m -125.641,-123.403 c 4.101,0 8.536,0.563 13.292,1.681 4.758,1.118 9.746,2.895 14.972,5.317 15.669,7.653 30.124,20.89 43.372,39.735 -4.295,0.932 -8.773,1.628 -13.432,2.096 -4.665,0.464 -9.421,0.701 -14.271,0.701 -5.036,0 -10.215,-0.278 -15.53,-0.839 -5.318,-0.562 -10.494,-1.587 -15.531,-3.077 -12.499,-3.36 -22.063,-7.652 -28.681,-12.872 -6.625,-5.225 -9.933,-10.538 -9.933,-15.948 0,-4.663 2.329,-8.631 6.995,-11.893 4.661,-3.262 10.912,-4.901 18.747,-4.901 m 196.154,-59.882 c -1.678,0 -2.007,1.263 -0.979,3.783 1.023,2.514 2.002,4.802 2.939,6.853 1.677,3.359 2.518,8.585 2.518,15.67 0,6.158 -1.119,12.779 -3.358,19.864 -2.238,7.096 -6.624,13.532 -13.153,19.309 -8.953,8.214 -19.027,14.742 -30.219,19.592 -11.192,4.848 -22.902,8.764 -35.117,11.748 -12.22,2.983 -24.301,5.596 -36.238,7.838 -7.276,-10.075 -15.067,-19.123 -23.364,-27.146 -8.303,-8.018 -17.117,-14.171 -26.444,-18.469 -5.225,-2.422 -10.26,-4.24 -15.108,-5.451 -4.855,-1.217 -9.423,-1.819 -13.712,-1.819 -10.45,0 -18.984,2.752 -25.605,8.25 -6.622,5.509 -9.933,11.991 -9.933,19.452 0,7.085 3.218,14.031 9.655,20.844 6.436,6.806 17.112,12.454 32.038,16.926 5.969,1.681 12.593,2.943 19.867,3.784 7.276,0.834 14.83,1.257 22.665,1.257 4.849,0 9.654,-0.14 14.413,-0.423 4.756,-0.279 9.184,-0.886 13.289,-1.819 5.411,8.208 10.445,16.742 15.111,25.605 4.661,8.858 9.515,18.514 14.552,28.965 -14.74,-0.377 -27.519,1.818 -38.335,6.574 -10.821,4.757 -19.169,11.141 -25.046,19.164 -5.874,8.023 -8.814,16.603 -8.814,25.745 0,7.461 2.143,14.783 6.436,21.966 4.29,7.178 11.053,13.712 20.287,19.586 9.234,5.88 21.032,10.497 35.398,13.852 0.93,0.37 1.819,0.561 2.659,0.561 h 2.378 c 2.798,0 4.197,-0.561 4.197,-1.68 0,-1.865 -2.986,-3.174 -8.956,-3.916 -9.7,-1.118 -18.236,-4.576 -25.602,-10.352 -7.371,-5.786 -13.06,-12.692 -17.069,-20.71 -4.014,-8.023 -6.016,-16.139 -6.016,-24.342 0,-7.09 1.68,-13.712 5.037,-19.87 3.357,-6.152 8.675,-11.146 15.948,-14.969 7.276,-3.823 16.693,-5.735 28.264,-5.735 4.099,0 8.484,0.278 13.15,0.84 0.745,1.489 2.002,4.519 3.777,9.095 1.773,4.565 3.78,9.744 6.016,15.53 2.239,5.777 4.429,11.373 6.578,16.789 2.141,5.405 4.617,11.749 7.415,19.024 8.577,21.452 17.391,38.287 26.442,50.509 9.046,12.218 17.811,20.849 26.303,25.884 8.487,5.034 16.09,7.554 22.805,7.554 7.275,0 13.292,-2.144 18.048,-6.436 4.758,-4.293 7.32,-9.142 7.696,-14.552 0.183,-1.675 0.28,-2.891 0.28,-3.633 v -2.798 c 0,-11.012 -2.195,-22.018 -6.577,-33.02 C 102.644,70.976 96.581,60.531 88.841,50.648 81.099,40.759 72.236,31.804 62.258,23.786 52.276,15.763 41.644,9.043 30.358,3.638 19.071,-1.778 7.647,-5.503 -3.919,-7.554 c -2.798,-5.596 -5.271,-10.59 -7.415,-14.97 -2.146,-4.385 -4.524,-9.095 -7.134,-14.134 -2.615,-5.035 -6.065,-11.47 -10.355,-19.308 -1.306,-2.427 -2.285,-4.154 -2.937,-5.174 -0.657,-1.03 -1.636,-2.566 -2.94,-4.616 9.327,-2.243 19.493,-5.365 30.503,-9.373 11.004,-4.015 21.869,-8.771 32.597,-14.275 10.726,-5.503 20.288,-11.516 28.682,-18.045 10.444,-8.023 17.859,-17.072 22.245,-27.145 4.382,-10.074 6.577,-18.933 6.577,-26.584 0,-5.405 -0.84,-9.513 -2.52,-12.311 -2.426,-4.101 -4.851,-6.714 -7.276,-7.833 -2.424,-1.303 -4.292,-1.963 -5.595,-1.963"
             style="fill:#FFFFFF;fill-opacity:1;fill-rule:nonzero;stroke:none"
             id="path20" />
        </g>
        <g
           id="g22"
           transform="translate(896.9214,967.7061)">
          <path
             d="m 0,0 c 2.61,0 6.995,0.979 13.153,2.937 6.155,1.958 11.751,5.081 16.788,9.373 4.849,4.293 8.577,9.002 11.192,14.134 2.61,5.128 3.919,9.466 3.919,13.012 0,4.102 -1.497,6.157 -4.478,6.157 -2.239,0 -5.318,-1.499 -9.234,-4.478 C 27.421,38.146 22.57,33.112 16.788,26.021 13.243,21.544 9.886,16.695 6.717,11.476 3.543,6.25 1.304,2.422 0,0 m 5.037,-49.247 c -6.905,0 -13.109,2.236 -18.607,6.715 -5.506,4.477 -8.255,11.284 -8.255,20.426 0,8.394 2.051,17.391 6.155,27.001 4.102,9.61 9.327,18.05 15.67,25.327 5.408,6.338 11.473,11.563 18.187,15.67 6.717,4.102 13.058,6.152 19.03,6.152 4.099,0 7.647,-1.118 10.633,-3.354 3.169,-2.427 4.756,-5.88 4.756,-10.353 0,-4.668 -1.775,-9.795 -5.317,-15.392 C 43.743,17.35 38.706,12.124 32.18,7.275 29.382,5.22 25.834,3.262 21.547,1.401 17.252,-0.469 12.965,-2.005 8.675,-3.216 4.38,-4.432 0.84,-5.035 -1.958,-5.035 c -0.935,-2.241 -1.819,-5.225 -2.659,-8.955 -0.84,-3.737 -1.26,-7.555 -1.26,-11.471 0,-4.669 0.933,-8.863 2.798,-12.594 1.863,-3.735 5.318,-5.595 10.355,-5.595 6.155,0 11.751,1.767 16.788,5.317 5.038,3.54 9.515,7.972 13.431,13.289 3.919,5.318 7.227,10.678 9.935,16.088 2.703,5.41 4.896,9.981 6.575,13.712 1.119,2.612 2.61,3.921 4.478,3.921 0.93,0 1.399,-0.469 1.399,-1.402 0,-0.747 -0.28,-1.679 -0.84,-2.797 -2.615,-5.596 -5.413,-11.522 -8.394,-17.768 -2.986,-6.255 -6.534,-12.13 -10.633,-17.628 -4.107,-5.509 -9.002,-9.935 -14.691,-13.295 -5.694,-3.353 -12.452,-5.034 -20.287,-5.034"
             style="fill:#FFFFFF;fill-opacity:1;fill-rule:nonzero;stroke:none"
             id="path24" />
        </g>
        <g
           id="g26"
           transform="translate(1119.3711,1038.2183)">
          <path
             d="m 0,0 c 2.051,0 4.102,0.046 6.155,0.145 2.051,0.087 4.102,0.231 6.158,0.417 18.838,1.865 34.835,6.199 47.989,13.011 13.15,6.807 23.129,14.876 29.938,24.203 6.81,9.327 10.216,18.468 10.216,27.424 0,8.765 -3.316,16.551 -9.935,23.363 -6.625,6.808 -16.745,11.239 -30.361,13.295 -1.865,0.371 -3.406,0.557 -4.617,0.557 h -4.896 c -12.129,0 -24.671,-2.891 -37.636,-8.673 C 0.043,87.956 -12.27,79.891 -23.926,69.539 -35.587,59.187 -45.611,47.196 -54.006,33.582 c -2.056,-3.545 -3.638,-6.251 -4.756,-8.116 -1.121,-1.865 -2.426,-4.107 -3.919,-6.715 C -55.033,12.965 -45.751,8.399 -34.837,5.04 -23.926,1.68 -12.313,0 0,0 m -87.863,-215.181 c 7.273,0 15.853,1.355 25.742,4.06 9.886,2.705 20.191,6.813 30.92,12.311 10.725,5.504 21.031,12.269 30.92,20.287 9.885,8.023 18.56,17.35 26.024,27.981 -8.955,-0.181 -17.769,-0.603 -26.444,-1.258 -8.673,-0.649 -17.304,-1.721 -25.883,-3.215 -9.142,-1.494 -18.607,-4.061 -28.4,-7.698 -9.793,-3.639 -18.845,-7.879 -27.144,-12.734 -8.301,-4.844 -15.018,-9.744 -20.147,-14.685 -5.133,-4.942 -7.694,-9.466 -7.694,-13.574 0,-2.421 1.072,-4.57 3.218,-6.435 2.141,-1.865 5.547,-3.262 10.213,-4.2 2.61,-0.557 5.501,-0.84 8.675,-0.84 m 0.278,-8.672 c -6.343,0 -11.751,0.84 -16.228,2.52 -7.088,2.612 -12.265,5.642 -15.529,9.094 -3.262,3.452 -4.898,7.132 -4.898,11.053 0,5.035 2.473,10.307 7.415,15.81 4.944,5.502 11.795,10.821 20.568,15.948 8.765,5.133 18.839,9.61 30.219,13.433 11.376,3.824 23.506,6.668 36.378,8.534 5.778,0.932 12.171,1.679 19.166,2.236 6.995,0.561 14.083,1.077 21.265,1.541 7.181,0.469 13.664,0.701 19.448,0.701 6.9,11.748 12.545,22.853 16.929,33.298 4.383,10.445 8.256,22.477 11.613,36.097 l 1.121,4.477 c -3.548,-3.359 -8.536,-7.415 -14.972,-12.177 -6.436,-4.755 -13.897,-9.511 -22.385,-14.268 -8.492,-4.756 -17.538,-8.724 -27.142,-11.893 -9.611,-3.174 -19.447,-4.756 -29.522,-4.756 -7.835,0 -15.388,1.211 -22.665,3.638 -7.835,2.798 -14.879,7.508 -21.127,14.129 -6.25,6.622 -11.192,14.83 -14.83,24.626 -3.637,9.791 -5.457,20.658 -5.457,32.598 0,8.765 1.121,18.143 3.36,28.125 2.236,9.975 5.875,20.189 10.912,30.639 -5.784,5.967 -10.309,12.588 -13.571,19.864 -3.267,7.276 -4.898,14.737 -4.898,22.39 0,6.714 1.399,13.382 4.197,20.003 2.798,6.622 7.181,13.011 13.154,19.169 1.676,1.86 3.261,2.798 4.755,2.798 0.745,0 1.119,-0.376 1.119,-1.118 0,-1.118 -0.655,-2.427 -1.958,-3.916 -4.293,-5.225 -7.462,-10.734 -9.513,-16.51 -2.056,-5.787 -3.079,-11.568 -3.079,-17.35 0,-6.534 1.261,-12.97 3.777,-19.308 2.52,-6.343 6.109,-12.223 10.773,-17.628 0.932,1.86 1.912,3.73 2.939,5.596 1.023,1.86 2.098,3.731 3.218,5.596 8.953,14.552 19.911,27.048 32.879,37.498 12.965,10.445 26.815,18.509 41.552,24.203 14.736,5.689 29.102,8.533 43.092,8.533 2.424,0 4.802,-0.098 7.137,-0.278 2.329,-0.191 4.707,-0.469 7.134,-0.84 18.092,-2.798 31.621,-8.863 40.574,-18.189 8.956,-9.328 13.432,-19.778 13.432,-31.341 0,-8.023 -2.196,-16.046 -6.576,-24.064 C 101.806,28.635 95.182,21.271 86.324,14.552 77.461,7.838 66.457,2.427 53.304,-1.675 40.153,-5.781 24.903,-8.018 7.554,-8.394 c -13.619,-0.186 -27.05,1.541 -40.293,5.179 -13.248,3.638 -24.441,8.44 -33.579,14.412 -4.664,-9.893 -8.07,-19.545 -10.213,-28.964 -2.147,-9.42 -3.219,-18.236 -3.219,-26.44 0,-13.81 2.892,-25.651 8.676,-35.54 5.778,-9.888 13.802,-16.509 24.063,-19.864 2.984,-0.938 6.017,-1.587 9.095,-1.964 3.079,-0.371 6.109,-0.555 9.096,-0.555 8.393,0 16.832,1.256 25.321,3.776 8.486,2.521 16.371,5.828 23.646,9.936 7.274,4.101 13.475,8.434 18.608,13.01 5.13,4.566 8.533,8.812 10.213,12.733 4.29,9.698 8.536,16.459 12.732,20.287 4.197,3.818 7.975,5.735 11.332,5.735 2.798,0 5.176,-1.262 7.137,-3.777 1.958,-2.52 2.656,-5.926 2.097,-10.213 -1.866,-15.489 -6.112,-30.5 -12.73,-45.052 -6.624,-14.552 -15.16,-30.314 -25.605,-47.288 12.684,-0.185 24.108,-0.887 34.277,-2.102 10.167,-1.211 19.352,-2.84 27.563,-4.896 2.239,-0.561 3.777,-1.257 4.618,-2.098 0.84,-0.839 1.259,-1.54 1.259,-2.096 0,-1.304 -1.121,-1.964 -3.357,-1.964 -1.121,0 -2.708,0.284 -4.759,0.841 -4.292,1.123 -9.981,2.101 -17.069,2.936 -7.09,0.84 -14.691,1.448 -22.804,1.82 -8.116,0.375 -15.907,0.561 -23.366,0.561 -7.835,-11.192 -17.115,-21.308 -27.841,-30.361 -10.728,-9.043 -22.062,-16.829 -33.999,-23.364 -11.939,-6.528 -23.644,-11.516 -35.117,-14.968 -11.474,-3.453 -21.782,-5.179 -30.921,-5.179"
             style="fill:#FFFFFF;fill-opacity:1;fill-rule:nonzero;stroke:none"
             id="path28" />
        </g>
        <g
           id="g30"
           transform="translate(1252.0049,1033.1841)">
          <path
             d="m 0,0 c -2.799,0 -5.086,0.979 -6.856,2.937 -1.776,1.958 -2.66,4.339 -2.66,7.137 0,3.54 1.4,6.621 4.198,9.234 2.797,2.607 5.877,3.916 9.234,3.916 2.983,0 5.407,-0.932 7.275,-2.798 1.864,-1.865 2.798,-4.107 2.798,-6.714 C 13.989,10.167 12.591,6.998 9.793,4.2 6.994,1.401 3.728,0 0,0 m -22.666,-113.607 c -6.904,0 -11.754,2.005 -14.552,6.019 -2.798,4.008 -4.196,8.626 -4.196,13.851 0,2.798 0.324,5.637 0.978,8.533 0.652,2.891 1.443,5.545 2.378,7.972 l 18.749,47.85 c 0.56,1.494 0.84,2.798 0.84,3.916 0,1.865 -0.468,3.499 -1.398,4.901 -0.936,1.396 -1.588,2.375 -1.959,2.937 l 15.389,0.561 c 2.798,0.181 4.8,-0.144 6.016,-0.984 1.211,-0.835 1.819,-1.814 1.819,-2.937 0,-1.118 -0.657,-3.174 -1.958,-6.153 l -23.226,-54.564 c -2.054,-4.669 -3.175,-7.374 -3.358,-8.116 -0.558,-2.798 -0.935,-4.576 -1.118,-5.317 -0.188,-0.748 -0.28,-1.217 -0.28,-1.403 v -2.236 c 0,-2.427 0.603,-4.477 1.818,-6.157 1.211,-1.675 3.311,-2.515 6.297,-2.515 1.861,0 4.009,0.557 6.437,1.675 2.422,1.123 4.196,2.241 5.314,3.359 4.661,4.849 9.279,11.239 13.852,19.169 4.568,7.925 8.813,15.81 12.732,23.642 0.742,1.865 1.678,2.803 2.799,2.803 0.93,0 1.398,-0.659 1.398,-1.963 0,-0.747 -0.28,-1.865 -0.839,-3.355 -1.869,-3.916 -4.198,-8.77 -6.995,-14.551 -2.798,-5.788 -6.115,-11.522 -9.935,-17.211 -3.826,-5.689 -7.975,-10.399 -12.452,-14.129 -4.476,-3.737 -9.329,-5.597 -14.55,-5.597"
             style="fill:#FFFFFF;fill-opacity:1;fill-rule:nonzero;stroke:none"
             id="path32" />
        </g>
        <g
           id="g34"
           transform="translate(1278.8643,919.5771)">
          <path
             d="m 0,0 c -2.054,0 -4.524,0.464 -7.415,1.402 -2.894,0.927 -5.413,2.654 -7.555,5.173 -2.145,2.52 -3.217,6.297 -3.217,11.332 0,4.849 1.162,9.559 3.499,14.134 2.329,4.565 4.518,8.997 6.575,13.289 -0.56,0 -1.167,0.187 -1.82,0.563 -0.657,0.371 -0.978,0.926 -0.978,1.679 0,0.742 0.182,1.49 0.558,2.237 0.743,1.489 1.582,3.076 2.518,4.755 0.933,1.68 1.773,3.454 2.52,5.319 2.797,5.781 5.595,11.331 8.393,16.648 2.799,5.318 5.221,10.023 7.276,14.13 2.051,4.102 5.596,6.158 10.633,6.158 H 38.335 C 35.161,94.392 32.319,91.732 29.802,88.842 27.282,85.951 24.156,80.68 20.429,73.032 17.813,67.808 15.53,63.19 13.572,59.182 11.612,55.168 9.654,51.112 7.695,47.011 5.737,42.903 4.102,39.456 2.798,36.658 0.373,31.433 -1.214,27.285 -1.958,24.203 c -0.747,-3.076 -1.118,-5.92 -1.118,-8.533 0,-6.157 2.051,-9.233 6.154,-9.233 4.479,0 9.887,3.637 16.23,10.914 5.219,6.152 10.355,13.52 15.389,22.105 5.036,8.574 9.839,17.438 14.412,26.584 4.569,9.137 8.626,17.345 12.172,24.621 2.051,4.102 5.689,6.158 10.913,6.158 h 15.39 C 84.786,94.577 82.452,92.479 80.589,90.522 78.721,88.563 76.902,85.951 75.132,82.689 73.356,79.422 70.979,74.806 67.998,68.838 65.57,63.799 63.005,58.435 60.302,52.745 57.597,47.052 55.216,41.692 53.165,36.658 51.111,31.619 49.808,27.517 49.249,24.343 c -0.188,-1.865 -0.376,-3.262 -0.56,-4.195 -0.187,-0.938 -0.28,-1.958 -0.28,-3.082 0,-3.545 0.603,-6.059 1.819,-7.553 1.21,-1.494 2.659,-2.237 4.338,-2.237 4.476,0 8.997,2.52 13.571,7.554 4.568,5.04 8.953,11.192 13.15,18.469 4.197,7.275 7.789,14.176 10.775,20.704 1.118,2.051 2.141,3.081 3.077,3.081 1.12,0 1.679,-0.654 1.679,-1.958 0,-0.938 -0.377,-2.056 -1.118,-3.359 C 93.644,47.289 91.127,42.156 88.143,36.375 85.157,30.593 81.8,24.904 78.069,19.309 74.336,13.712 70.234,9.095 65.759,5.457 61.281,1.819 56.427,0 51.207,0 46.544,0 42.718,1.722 39.733,5.179 c -2.985,3.447 -4.474,8.342 -4.474,14.691 0,5.034 0.929,10.445 2.798,16.227 C 34.883,30.5 31.244,24.904 27.143,19.309 23.038,13.712 18.653,9.095 13.992,5.457 9.326,1.819 4.66,0 0,0"
             style="fill:#FFFFFF;fill-opacity:1;fill-rule:nonzero;stroke:none"
             id="path36" />
        </g>
        <g
           id="g38"
           transform="translate(1344.0615,918.1758)">
          <path
             d="m 0,0 c 6.902,13.248 13.431,26.537 19.586,39.879 6.158,13.335 12.406,25.975 18.749,37.915 3.73,6.714 6.856,11.424 9.373,14.129 2.52,2.7 5.921,4.056 10.213,4.056 1.492,0 3.079,-0.232 4.759,-0.696 1.677,-0.469 3.357,-0.701 5.037,-0.701 1.118,0 1.958,0.093 2.517,0.278 C 67.619,93.366 64.262,89.687 60.16,83.807 56.056,77.933 51.858,71.167 47.569,63.521 43.276,55.868 39.453,48.69 36.096,41.976 c 3.543,4.287 7.227,8.58 11.053,12.872 3.821,4.287 8.067,8.394 12.733,12.31 4.099,3.54 8.438,7.415 13.012,11.614 4.567,4.195 9.094,7.787 13.569,10.77 4.478,2.984 8.394,4.479 11.754,4.479 1.302,0 2.141,-0.093 2.517,-0.279 3.543,-1.494 5.319,-3.916 5.319,-7.276 0,-1.118 -0.47,-2.798 -1.4,-5.034 C 102.227,75.089 99.099,68.601 95.277,61.984 91.451,55.358 87.862,48.69 84.505,41.976 c 2.799,3.359 6.297,7.456 10.494,12.31 4.197,4.849 8.439,9.142 12.73,12.872 4.102,3.731 9.328,7.647 15.67,11.754 6.341,4.102 12.594,7.647 18.749,10.63 6.156,2.984 11.097,4.479 14.831,4.479 1.303,0 2.239,-0.093 2.797,-0.279 -4.104,-7.276 -7.695,-13.851 -10.771,-19.725 -3.079,-5.88 -6.204,-12.13 -9.376,-18.751 -3.175,-6.622 -6.017,-12.965 -8.533,-19.026 -2.521,-6.064 -4.154,-11.15 -4.899,-15.252 -0.558,-2.427 -0.84,-4.664 -0.84,-6.715 0,-2.988 0.562,-4.946 1.68,-5.874 1.121,-0.937 2.332,-1.401 3.639,-1.401 3.73,0 7.553,1.958 11.472,5.874 3.916,3.921 7.697,8.626 11.331,14.135 3.639,5.498 6.857,10.914 9.655,16.226 2.798,5.318 4.848,9.373 6.157,12.171 1.119,2.051 2.239,3.081 3.357,3.081 1.119,0 1.68,-0.747 1.68,-2.241 0,-0.932 -0.28,-1.958 -0.84,-3.076 -2.238,-4.292 -4.897,-9.42 -7.976,-15.392 -3.076,-5.972 -6.575,-11.8 -10.491,-17.489 -3.919,-5.688 -8.255,-10.445 -13.011,-14.268 -4.759,-3.824 -9.843,-5.736 -15.25,-5.736 -3.919,0 -7.885,1.304 -11.894,3.917 -4.013,2.612 -6.015,7.461 -6.015,14.552 0,3.916 0.839,8.672 2.516,14.269 1.304,3.73 3.311,8.017 6.017,12.871 2.702,4.849 6.015,10.445 9.934,16.789 1.863,3.173 2.798,5.688 2.798,7.558 0,2.237 -1.12,3.355 -3.356,3.355 -1.868,0 -4.435,-0.933 -7.697,-2.798 -3.266,-1.865 -7.325,-5.132 -12.173,-9.79 C 103.903,58.207 100.407,54.332 96.398,49.391 92.384,44.444 88.326,39.08 84.225,33.304 80.12,27.517 76.575,21.828 73.592,16.231 70.605,10.636 68.647,5.688 67.717,1.401 64.919,1.401 62.68,2.566 61,4.9 59.32,7.229 58.483,9.981 58.483,13.155 v 1.68 c 0,0.557 0.09,1.211 0.278,1.958 0.933,5.776 2.423,11.192 4.478,16.228 2.051,5.039 4.38,10.258 6.995,15.669 2.051,3.916 4.102,8.157 6.156,12.733 2.05,4.57 3.078,8.064 3.078,10.491 0,1.494 -0.559,2.241 -1.68,2.241 -1.306,0 -3.452,-0.978 -6.434,-2.936 C 68.366,69.255 64.262,65.854 59.042,61.006 54.376,56.527 48.731,50.092 42.112,41.697 35.488,33.304 28.261,21.359 20.426,5.88 19.308,3.823 17.999,2.566 16.51,2.103 15.013,1.634 12.684,1.401 9.515,1.401 7.464,1.401 5.735,1.36 4.336,1.263 2.937,1.17 1.494,0.752 0,0"
             style="fill:#FFFFFF;fill-opacity:1;fill-rule:nonzero;stroke:none"
             id="path40" />
        </g>
        <g
           id="g42"
           transform="translate(1527.6191,967.7061)">
          <path
             d="m 0,0 c 2.609,0 6.995,0.979 13.152,2.937 6.156,1.958 11.751,5.081 16.788,9.373 4.85,4.293 8.578,9.002 11.193,14.134 2.61,5.128 3.919,9.466 3.919,13.012 0,4.102 -1.497,6.157 -4.478,6.157 -2.239,0 -5.318,-1.499 -9.234,-4.478 C 27.421,38.146 22.569,33.112 16.788,26.021 13.243,21.544 9.886,16.695 6.717,11.476 3.542,6.25 1.304,2.422 0,0 m 5.037,-49.247 c -6.905,0 -13.109,2.236 -18.607,6.715 -5.506,4.477 -8.255,11.284 -8.255,20.426 0,8.394 2.051,17.391 6.155,27.001 4.102,9.61 9.326,18.05 15.67,25.327 5.408,6.338 11.473,11.563 18.187,15.67 6.716,4.102 13.057,6.152 19.03,6.152 4.099,0 7.646,-1.118 10.633,-3.354 3.169,-2.427 4.755,-5.88 4.755,-10.353 0,-4.668 -1.774,-9.795 -5.317,-15.392 C 43.743,17.35 38.706,12.124 32.18,7.275 29.382,5.22 25.834,3.262 21.547,1.401 17.252,-0.469 12.965,-2.005 8.675,-3.216 4.38,-4.432 0.84,-5.035 -1.958,-5.035 c -0.936,-2.241 -1.819,-5.225 -2.659,-8.955 -0.84,-3.737 -1.26,-7.555 -1.26,-11.471 0,-4.669 0.933,-8.863 2.798,-12.594 1.862,-3.735 5.317,-5.595 10.354,-5.595 6.156,0 11.752,1.767 16.788,5.317 5.038,3.54 9.516,7.972 13.432,13.289 3.919,5.318 7.227,10.678 9.935,16.088 2.703,5.41 4.895,9.981 6.575,13.712 1.118,2.612 2.61,3.921 4.478,3.921 0.93,0 1.399,-0.469 1.399,-1.402 0,-0.747 -0.281,-1.679 -0.84,-2.797 -2.615,-5.596 -5.413,-11.522 -8.395,-17.768 -2.985,-6.255 -6.533,-12.13 -10.632,-17.628 -4.107,-5.509 -9.002,-9.935 -14.691,-13.295 -5.694,-3.353 -12.452,-5.034 -20.287,-5.034"
             style="fill:#FFFFFF;fill-opacity:1;fill-rule:nonzero;stroke:none"
             id="path44" />
        </g>
        <g
           id="g46"
           transform="translate(1600.3682,982.5361)">
          <path
             d="m 0,0 c 6.717,6.899 13.242,14.876 19.589,23.925 6.338,9.048 12.264,18.468 17.766,28.263 5.501,9.791 10.119,19.071 13.852,27.842 1.304,2.798 2.378,5.874 3.218,9.234 0.84,3.355 1.26,6.157 1.26,8.394 0,2.607 -0.658,3.916 -1.958,3.916 -0.748,0 -1.869,-0.7 -3.36,-2.097 C 48.873,98.075 46.914,95.7 44.493,92.34 40.945,87.677 37.077,81.333 32.881,73.315 28.681,65.292 24.437,56.708 20.147,47.572 15.855,38.43 11.937,29.614 8.396,21.127 4.849,12.635 2.051,5.596 0,0 m -4.197,-63.799 c -7.835,0 -13.151,2.098 -15.949,6.297 -2.797,4.194 -4.197,9.188 -4.197,14.97 0,5.967 0.837,12.125 2.518,18.468 1.679,6.337 3.169,11.656 4.477,15.948 2.981,10.445 6.758,21.591 11.331,33.442 4.572,11.842 9.608,23.503 15.112,34.973 5.501,11.476 10.957,21.782 16.368,30.923 4.29,7.276 8.907,12.733 13.85,16.371 4.943,3.638 9.279,5.457 13.014,5.457 2.982,0 5.36,-1.077 7.135,-3.221 1.769,-2.143 2.659,-5.364 2.659,-9.651 0,-2.989 -0.516,-6.534 -1.538,-10.636 -1.028,-4.107 -2.757,-8.77 -5.179,-13.99 C 48.873,61 41.087,46.448 32.041,31.901 22.989,17.35 11.565,3.73 -2.239,-8.956 c -0.747,-2.422 -1.727,-5.272 -2.938,-8.533 -1.216,-3.267 -2.285,-6.575 -3.218,-9.935 -1.118,-5.035 -1.676,-9.327 -1.676,-12.867 0,-5.787 1.161,-10.125 3.496,-13.017 2.331,-2.89 5.176,-4.333 8.535,-4.333 2.981,0 6.155,1.072 9.513,3.215 3.357,2.144 6.528,5.272 9.514,9.374 4.476,6.529 8.534,13.197 12.172,20.009 3.638,6.807 6.387,12.078 8.255,15.809 1.118,2.05 2.331,3.081 3.638,3.081 0.929,0 1.399,-0.562 1.399,-1.68 0,-0.938 -0.281,-1.958 -0.841,-3.081 -1.679,-3.731 -3.872,-8.533 -6.574,-14.408 C 36.328,-31.201 32.971,-37.075 28.962,-42.95 24.947,-48.829 20.191,-53.771 14.69,-57.78 9.188,-61.794 2.891,-63.799 -4.197,-63.799"
             style="fill:#FFFFFF;fill-opacity:1;fill-rule:nonzero;stroke:none"
             id="path48" />
        </g>
        <g
           id="g50"
           transform="translate(1659.9688,982.5361)">
          <path
             d="m 0,0 c 6.717,6.899 13.243,14.876 19.589,23.925 6.339,9.048 12.265,18.468 17.767,28.263 5.501,9.791 10.119,19.071 13.852,27.842 1.304,2.798 2.378,5.874 3.218,9.234 0.84,3.355 1.26,6.157 1.26,8.394 0,2.607 -0.658,3.916 -1.958,3.916 -0.748,0 -1.869,-0.7 -3.361,-2.097 C 48.873,98.075 46.915,95.7 44.493,92.34 40.945,87.677 37.078,81.333 32.881,73.315 28.682,65.292 24.438,56.708 20.148,47.572 15.855,38.43 11.938,29.614 8.397,21.127 4.85,12.635 2.052,5.596 0,0 m -4.196,-63.799 c -7.835,0 -13.151,2.098 -15.95,6.297 -2.797,4.194 -4.196,9.188 -4.196,14.97 0,5.967 0.837,12.125 2.517,18.468 1.679,6.337 3.17,11.656 4.478,15.948 2.981,10.445 6.758,21.591 11.331,33.442 4.571,11.842 9.608,23.503 15.112,34.973 5.5,11.476 10.957,21.782 16.368,30.923 4.29,7.276 8.906,12.733 13.85,16.371 4.943,3.638 9.279,5.457 13.014,5.457 2.982,0 5.36,-1.077 7.135,-3.221 1.769,-2.143 2.658,-5.364 2.658,-9.651 0,-2.989 -0.515,-6.534 -1.538,-10.636 -1.027,-4.107 -2.757,-8.77 -5.179,-13.99 C 48.873,61 41.087,46.448 32.041,31.901 22.99,17.35 11.566,3.73 -2.238,-8.956 c -0.747,-2.422 -1.727,-5.272 -2.938,-8.533 -1.216,-3.267 -2.285,-6.575 -3.218,-9.935 -1.118,-5.035 -1.677,-9.327 -1.677,-12.867 0,-5.787 1.162,-10.125 3.496,-13.017 2.332,-2.89 5.177,-4.333 8.536,-4.333 2.981,0 6.155,1.072 9.513,3.215 3.356,2.144 6.528,5.272 9.514,9.374 4.476,6.529 8.533,13.197 12.171,20.009 3.639,6.807 6.388,12.078 8.255,15.809 1.118,2.05 2.332,3.081 3.639,3.081 0.929,0 1.398,-0.562 1.398,-1.68 0,-0.938 -0.28,-1.958 -0.84,-3.081 -1.679,-3.731 -3.872,-8.533 -6.575,-14.408 -2.708,-5.879 -6.064,-11.753 -10.074,-17.628 -4.014,-5.879 -8.77,-10.821 -14.271,-14.83 -5.503,-4.014 -11.799,-6.019 -18.887,-6.019"
             style="fill:#FFFFFF;fill-opacity:1;fill-rule:nonzero;stroke:none"
             id="path52" />
        </g>
        <g
           id="g54"
           transform="translate(1716.2129,967.7061)">
          <path
             d="m 0,0 c 2.61,0 6.995,0.979 13.153,2.937 6.156,1.958 11.751,5.081 16.788,9.373 4.849,4.293 8.578,9.002 11.193,14.134 2.609,5.128 3.919,9.466 3.919,13.012 0,4.102 -1.497,6.157 -4.479,6.157 -2.238,0 -5.317,-1.499 -9.233,-4.478 C 27.422,38.146 22.57,33.112 16.789,26.021 13.243,21.544 9.887,16.695 6.718,11.476 3.543,6.25 1.304,2.422 0,0 m 5.037,-49.247 c -6.904,0 -13.108,2.236 -18.607,6.715 -5.506,4.477 -8.255,11.284 -8.255,20.426 0,8.394 2.051,17.391 6.155,27.001 4.102,9.61 9.327,18.05 15.67,25.327 5.408,6.338 11.474,11.563 18.187,15.67 6.717,4.102 13.058,6.152 19.031,6.152 4.098,0 7.646,-1.118 10.633,-3.354 3.169,-2.427 4.755,-5.88 4.755,-10.353 0,-4.668 -1.775,-9.795 -5.317,-15.392 C 43.743,17.35 38.707,12.124 32.181,7.275 29.383,5.22 25.835,3.262 21.547,1.401 17.252,-0.469 12.965,-2.005 8.676,-3.216 4.38,-4.432 0.84,-5.035 -1.958,-5.035 c -0.935,-2.241 -1.818,-5.225 -2.658,-8.955 -0.84,-3.737 -1.261,-7.555 -1.261,-11.471 0,-4.669 0.934,-8.863 2.799,-12.594 1.862,-3.735 5.317,-5.595 10.354,-5.595 6.156,0 11.751,1.767 16.788,5.317 5.038,3.54 9.515,7.972 13.432,13.289 3.918,5.318 7.227,10.678 9.935,16.088 2.702,5.41 4.895,9.981 6.575,13.712 1.118,2.612 2.609,3.921 4.477,3.921 0.931,0 1.4,-0.469 1.4,-1.402 0,-0.747 -0.281,-1.679 -0.84,-2.797 -2.615,-5.596 -5.413,-11.522 -8.395,-17.768 -2.986,-6.255 -6.534,-12.13 -10.632,-17.628 -4.108,-5.509 -9.002,-9.935 -14.692,-13.295 -5.693,-3.353 -12.452,-5.034 -20.287,-5.034"
             style="fill:#FFFFFF;fill-opacity:1;fill-rule:nonzero;stroke:none"
             id="path56" />
        </g>
        <g
           id="g58"
           transform="translate(255.1768,1052.6045)">
          <path
             d="m 0,0 0.14,-0.131 0.132,-0.133 c 0.542,-0.548 0.992,-1.099 1.507,-1.648 8.734,30.748 25.163,58.25 47.159,80.254 33.534,33.522 79.788,54.235 130.945,54.239 51.16,-0.004 97.413,-20.717 130.946,-54.239 21.994,-22.001 38.421,-49.498 47.156,-80.242 0.506,0.545 0.969,1.09 1.509,1.634 l 0.142,0.144 0.135,0.125 c 2.548,2.389 5.844,4.77 9.802,6.538 C 344.399,87.365 268.998,146.038 179.883,146.042 90.771,146.038 15.37,87.365 -9.806,6.541 -5.846,4.773 -2.548,2.391 0,0"
             style="fill:#FFFFFF;fill-opacity:1;fill-rule:nonzero;stroke:none"
             id="path60" />
        </g>
        <g
           id="g62"
           transform="translate(616.5811,963.2207)">
          <path
             d="m 0,0 c -7.329,-36.383 -25.307,-68.89 -50.575,-94.166 -33.533,-33.522 -79.786,-54.236 -130.946,-54.24 -51.158,0.004 -97.412,20.718 -130.945,54.24 -25.269,25.277 -43.248,57.786 -50.577,94.172 l -16.979,31.063 c 3.034,-107.062 90.706,-192.931 198.501,-192.936 107.797,0.005 195.467,85.874 198.501,192.935 z"
             style="fill:#FFFFFF;fill-opacity:1;fill-rule:nonzero;stroke:none"
             id="path64" />
        </g>
        <g
           id="g66"
           transform="translate(320.3945,966.7656)">
          <path
             d="m 0,0 c -3.121,2.533 -4.908,5.449 -5.966,8.319 -1.054,2.867 -1.339,5.686 -1.337,7.824 0,1.149 0.081,2.099 0.16,2.745 l 0.104,0.724 0.031,0.167 0.004,0.024 0.02,0.095 0.013,0.093 C -4.622,36.533 3.472,46.915 8.016,52.333 24.679,72.248 55.05,87.954 82.5,87.896 c 8.503,0 16.716,-1.479 24.212,-4.72 3.689,-1.589 7.687,-4.263 10.923,-7.498 3.25,-3.23 5.708,-7.012 6.606,-10.674 l 2.613,0.649 -2.62,-0.617 c 0.633,-2.681 1.085,-6.035 1.083,-9.142 0,-1.789 -0.15,-3.498 -0.465,-4.93 -1.727,-7.783 -6.511,-14.93 -12.615,-21.357 C 106.144,23.183 98.791,17.522 92.196,12.625 80.56,3.912 64.883,-3.319 50.477,-5.675 l 0.437,-2.656 V -5.64 H 50.851 50.52 L 50.2,-5.719 49.729,-5.83 C 47.479,-6.352 37.434,-8.493 26.368,-8.488 21.423,-8.489 16.279,-8.06 11.572,-6.914 L 10.3,-12.146 c 5.275,-1.281 10.815,-1.725 16.068,-1.726 13.415,0.006 25.01,2.902 25.133,2.929 l -0.65,2.612 v -2.691 h 0.063 0.221 l 0.215,0.035 c 15.491,2.561 31.726,10.088 44.064,19.295 6.643,4.938 14.239,10.757 20.729,17.594 6.479,6.834 11.913,14.729 13.966,23.901 0.425,1.946 0.591,4.007 0.592,6.091 -0.002,3.615 -0.503,7.294 -1.227,10.376 l -0.006,0.027 -0.002,0.005 c -1.248,4.98 -4.293,9.454 -8.028,13.189 -3.749,3.731 -8.215,6.733 -12.59,8.628 C 100.581,91.692 91.624,93.28 82.5,93.279 53.046,93.221 21.743,76.966 3.892,55.796 -0.855,50.151 -9.771,38.712 -12.302,20.744 l 2.666,-0.377 -2.633,0.566 c -0.028,-0.138 -0.417,-1.986 -0.418,-4.79 10e-4,-2.603 0.334,-6.04 1.666,-9.677 1.326,-3.631 3.689,-7.463 7.633,-10.651 L 0.001,0 Z"
             style="fill:#FFFFFF;fill-opacity:1;fill-rule:nonzero;stroke:none"
             id="path68" />
        </g>
        <g
           id="g70"
           transform="translate(444.0449,1033.7598)">
          <path
             d="m 0,0 c 1.721,-8.297 5.504,-26.938 6.645,-34.973 0.584,-4.102 0.87,-8.255 0.87,-12.403 0.003,-13.616 -3.088,-27.193 -8.731,-38.857 -3.12,-6.478 -5.585,-12.447 -11.041,-17.806 -3.815,-3.801 -10.555,-6.395 -17.026,-7.905 -6.478,-1.538 -12.589,-2.092 -15.377,-2.388 l 0.572,-5.355 c 2.728,0.294 9.143,0.864 16.049,2.504 6.913,1.665 14.416,4.303 19.556,9.304 6.337,6.235 9.094,13.079 12.115,19.301 6.014,12.443 9.265,26.774 9.267,41.202 0,4.396 -0.302,8.8 -0.923,13.162 -1.198,8.392 -4.972,26.942 -6.704,35.308 z"
             style="fill:#FFFFFF;fill-opacity:1;fill-rule:nonzero;stroke:none"
             id="path72" />
        </g>
        <g
           id="g74"
           transform="translate(403.1274,1014.8462)">
          <path
             d="M 0,0 0.032,-0.236 C 0.105,-1.218 0.05,-2.209 -0.152,-3.179 l -0.206,-0.825 c -0.32,-1.13 -0.801,-2.211 -1.398,-3.246 -0.655,-1.15 -1.44,-2.241 -2.303,-3.267 l -0.163,-0.199 c -0.844,-1.015 -1.785,-1.959 -2.744,-2.882 l -0.492,-0.447 c -0.826,-0.744 -1.686,-1.461 -2.561,-2.156 l -0.775,-0.595 c -1.302,-1 -2.661,-1.931 -4.067,-2.809 -0.627,-0.395 -1.263,-0.773 -1.912,-1.149 -0.644,-0.366 -1.304,-0.723 -1.969,-1.07 -1.525,-0.8 -3.105,-1.535 -4.731,-2.163 l -0.801,-0.305 c -1.167,-0.432 -2.355,-0.805 -3.568,-1.108 -1.522,-0.384 -3.067,-0.659 -4.639,-0.802 l -0.529,-0.036 c -1.37,-0.097 -2.75,-0.095 -4.112,0.058 -1.246,0.115 -2.474,0.352 -3.644,0.728 l -0.784,0.268 c -1.056,0.399 -2.037,0.936 -2.891,1.589 -0.981,0.743 -1.793,1.637 -2.374,2.638 l -0.058,0.122 c -0.468,0.88 -0.775,1.821 -0.894,2.789 l -0.056,0.465 c -0.065,1.102 0.053,2.227 0.322,3.331 l 0.055,0.211 c 0.281,1.043 0.689,2.069 1.191,3.063 0.623,1.238 1.396,2.429 2.26,3.559 l 0.156,0.189 c 0.825,1.068 1.749,2.078 2.752,3.032 0.842,0.815 1.741,1.591 2.677,2.327 l 1.007,0.772 c 1.162,0.863 2.369,1.675 3.623,2.435 0.691,0.429 1.406,0.834 2.129,1.225 0.72,0.399 1.454,0.773 2.198,1.133 1.341,0.639 2.716,1.213 4.117,1.73 l 1.204,0.434 c 1.194,0.399 2.403,0.771 3.631,1.089 l 0.339,0.089 c 1.328,0.326 2.661,0.61 4.025,0.794 l 0.055,0.008 c 1.646,0.218 3.323,0.328 4.99,0.242 C -9.98,8.023 -8.87,7.881 -7.79,7.619 l 0.537,-0.14 c 1.151,-0.317 2.234,-0.801 3.239,-1.403 l 0.589,-0.41 c 0.838,-0.613 1.55,-1.362 2.126,-2.185 L -1.204,3.347 C -0.565,2.316 -0.145,1.172 0,0 m -3.089,5.884 c -1.062,0.881 -2.317,1.587 -3.657,2.124 l -0.778,0.303 c -0.896,0.307 -1.814,0.559 -2.747,0.741 -1.673,0.352 -3.397,0.515 -5.129,0.531 h -0.787 c -1.207,-0.011 -2.405,-0.092 -3.602,-0.239 -2.008,-0.256 -3.993,-0.694 -5.936,-1.281 -1.557,-0.479 -3.087,-1.051 -4.58,-1.693 -0.986,-0.426 -1.951,-0.886 -2.897,-1.375 -0.939,-0.502 -1.859,-1.031 -2.757,-1.593 -1.363,-0.846 -2.683,-1.78 -3.921,-2.782 -1.564,-1.245 -3.018,-2.616 -4.33,-4.093 -0.738,-0.828 -1.436,-1.696 -2.082,-2.598 l -0.518,-0.754 c -0.946,-1.42 -1.753,-2.926 -2.311,-4.519 -0.279,-0.752 -0.497,-1.533 -0.644,-2.327 l -0.15,-1.034 c -0.11,-1.044 -0.087,-2.089 0.095,-3.13 l 0.223,-0.987 c 0.282,-0.956 0.705,-1.874 1.259,-2.716 l 0.116,-0.168 c 0.739,-1.048 1.691,-1.961 2.768,-2.681 l 0.356,-0.232 c 0.864,-0.515 1.776,-0.935 2.721,-1.28 l 1.277,-0.41 c 1.131,-0.313 2.29,-0.521 3.455,-0.645 1.373,-0.155 2.765,-0.188 4.148,-0.155 l 1.062,0.048 c 1.478,0.076 2.948,0.242 4.41,0.489 1.424,0.224 2.842,0.529 4.24,0.891 l 0.292,0.082 c 1.949,0.51 3.86,1.162 5.705,1.94 0.755,0.318 1.496,0.652 2.225,1.01 0.725,0.362 1.44,0.754 2.147,1.159 1.777,1.023 3.474,2.188 5.024,3.481 l 0.095,0.079 c 1.13,0.946 2.185,1.964 3.152,3.055 0.913,1.025 1.743,2.116 2.477,3.247 l 0.636,1.041 c 0.639,1.093 1.172,2.226 1.593,3.389 0.371,1.014 0.647,2.04 0.829,3.081 l 0.131,1.131 c 0.076,0.932 0.068,1.874 -0.089,2.797 L 0.371,0.12 C 0.14,1.309 -0.297,2.45 -0.946,3.483 l -0.097,0.15 C -1.59,4.477 -2.284,5.229 -3.089,5.884"
             style="fill:#FFFFFF;fill-opacity:1;fill-rule:nonzero;stroke:none"
             id="path76" />
        </g>
        <g
           id="g78"
           transform="translate(391.3076,991.0186)">
          <path
             d="m 0,0 c 1.272,-1.984 2.387,-4.054 3.326,-6.215 0.923,-2.161 1.709,-4.406 2.045,-6.889 -2.195,1.495 -3.943,3.225 -5.55,5.022 -1.596,1.812 -3.015,3.718 -4.277,5.708 -0.534,0.836 -1.039,1.68 -1.512,2.543 -0.334,0.607 -0.655,1.214 -0.954,1.835 0.665,0.347 1.324,0.704 1.969,1.069 0.649,0.376 1.285,0.755 1.911,1.15 0.5,-0.619 0.986,-1.246 1.446,-1.885 C -1.042,1.575 -0.511,0.797 0,0"
             style="fill:#FFFFFF;fill-opacity:1;fill-rule:nonzero;stroke:none"
             id="path80" />
        </g>
        <g
           id="g82"
           transform="translate(379.6548,990.8594)">
          <path
             d="m 0,0 c 0.006,-0.531 -0.004,-1.07 -0.021,-1.612 -0.031,-1.125 -0.097,-2.267 -0.193,-3.408 -0.219,-2.549 -0.603,-5.134 -1.174,-7.764 -0.586,-2.631 -1.319,-5.305 -2.526,-8.081 -0.773,2.319 -1.067,4.748 -1.21,7.212 -0.126,2.465 -0.065,4.976 0.158,7.529 0.108,1.17 0.24,2.353 0.413,3.539 l 0.184,1.172 c 1.212,0.303 2.4,0.676 3.568,1.107 z"
             style="fill:#FFFFFF;fill-opacity:1;fill-rule:nonzero;stroke:none"
             id="path84" />
        </g>
        <g
           id="g86"
           transform="translate(370.1177,988.6084)">
          <path
             d="m 0,0 -0.487,-0.871 c -0.688,-1.206 -1.407,-2.413 -2.158,-3.614 -1.67,-2.674 -3.484,-5.327 -5.463,-7.977 -2.001,-2.642 -4.12,-5.276 -6.676,-7.875 0.789,2.748 2.006,5.456 3.352,8.156 1.365,2.696 2.892,5.379 4.564,8.047 0.719,1.147 1.46,2.28 2.233,3.418 l 0.523,0.774 C -2.75,-0.096 -1.37,-0.098 0,0"
             style="fill:#FFFFFF;fill-opacity:1;fill-rule:nonzero;stroke:none"
             id="path88" />
        </g>
        <g
           id="g90"
           transform="translate(361.5776,989.6621)">
          <path
             d="m 0,0 -0.828,-0.715 c -1.075,-0.946 -2.166,-1.872 -3.278,-2.784 -2.829,-2.332 -5.763,-4.604 -8.815,-6.804 -3.058,-2.2 -6.21,-4.338 -9.66,-6.304 2.211,2.694 4.73,5.212 7.325,7.679 2.619,2.461 5.351,4.848 8.187,7.183 1.041,0.851 2.093,1.703 3.165,2.542 l 1.012,0.792 C -2.037,0.937 -1.056,0.399 0,0"
             style="fill:#FFFFFF;fill-opacity:1;fill-rule:nonzero;stroke:none"
             id="path92" />
        </g>
        <g
           id="g94"
           transform="translate(355.3604,996.7998)">
          <path
             d="m 0,0 c 0.119,-0.968 0.426,-1.908 0.894,-2.789 -0.483,-0.242 -0.975,-0.473 -1.465,-0.702 -1.206,-0.583 -2.41,-1.141 -3.622,-1.696 -3.508,-1.592 -7.052,-3.085 -10.638,-4.461 -3.596,-1.368 -7.229,-2.656 -10.981,-3.647 3.258,2.186 6.633,4.075 10.045,5.887 3.41,1.792 6.876,3.481 10.38,5.063 1.18,0.539 2.363,1.063 3.557,1.57 C -1.225,-0.508 -0.616,-0.249 0,0"
             style="fill:#FFFFFF;fill-opacity:1;fill-rule:nonzero;stroke:none"
             id="path96" />
        </g>
        <g
           id="g98"
           transform="translate(356.8721,1003.8701)">
          <path
             d="m 0,0 c -0.502,-0.994 -0.91,-2.02 -1.19,-3.063 l -0.056,-0.21 c -0.802,-0.161 -1.607,-0.316 -2.414,-0.456 -1.194,-0.223 -2.379,-0.428 -3.567,-0.62 -3.565,-0.57 -7.109,-1.025 -10.622,-1.34 -3.507,-0.306 -6.991,-0.508 -10.393,-0.361 3.726,1.291 7.38,2.232 11.016,3.071 3.621,0.822 7.22,1.512 10.788,2.08 1.193,0.194 2.381,0.371 3.573,0.531 C -1.912,-0.234 -0.955,-0.114 0,0"
             style="fill:#FFFFFF;fill-opacity:1;fill-rule:nonzero;stroke:none"
             id="path100" />
        </g>
        <g
           id="g102"
           transform="translate(362.0405,1010.6499)">
          <path
             d="m 0,0 c -1.003,-0.954 -1.927,-1.964 -2.752,-3.031 -0.994,0.113 -1.985,0.247 -2.971,0.403 -1.052,0.146 -2.101,0.32 -3.142,0.506 -3.016,0.542 -5.944,1.202 -8.765,2.003 -2.816,0.811 -5.551,1.734 -8.019,2.998 3.566,0.176 6.864,0.002 10.086,-0.279 3.207,-0.289 6.314,-0.718 9.325,-1.264 C -5.187,1.149 -4.153,0.944 -3.124,0.723 -2.069,0.5 -1.027,0.26 0,0"
             style="fill:#FFFFFF;fill-opacity:1;fill-rule:nonzero;stroke:none"
             id="path104" />
        </g>
        <g
           id="g106"
           transform="translate(369.3472,1016.1841)">
          <path
             d="m 0,0 c -1.254,-0.76 -2.461,-1.572 -3.623,-2.435 -0.855,0.553 -1.678,1.128 -2.477,1.717 -0.717,0.518 -1.417,1.06 -2.1,1.605 -1.946,1.564 -3.752,3.233 -5.4,5.007 -1.635,1.793 -3.147,3.665 -4.254,5.829 2.781,-0.968 5.158,-2.224 7.414,-3.57 C -8.206,6.796 -6.12,5.327 -4.183,3.76 -3.502,3.206 -2.832,2.64 -2.179,2.064 -1.434,1.394 -0.702,0.707 0,0"
             style="fill:#FFFFFF;fill-opacity:1;fill-rule:nonzero;stroke:none"
             id="path108" />
        </g>
        <g
           id="g110"
           transform="translate(374.7842,1032.2241)">
          <path
             d="m 0,0 c 0.877,-2.188 1.577,-4.445 2.103,-6.767 0.194,-0.844 0.363,-1.691 0.516,-2.548 0.157,-0.87 0.286,-1.748 0.388,-2.637 -1.401,-0.517 -2.776,-1.09 -4.117,-1.73 -0.31,0.881 -0.596,1.772 -0.851,2.674 -0.237,0.813 -0.45,1.635 -0.644,2.463 -0.537,2.316 -0.91,4.696 -1.103,7.141 -0.17,2.458 -0.197,4.969 0.253,7.656 C -1.938,4.306 -0.902,2.182 0,0"
             style="fill:#FFFFFF;fill-opacity:1;fill-rule:nonzero;stroke:none"
             id="path112" />
        </g>
        <g
           id="g114"
           transform="translate(392.4619,1043.4053)">
          <path
             d="m 0,0 c -0.011,-2.592 -0.481,-5.216 -1.097,-7.855 -0.633,-2.64 -1.44,-5.291 -2.416,-7.961 -0.381,-1.049 -0.786,-2.103 -1.222,-3.161 -0.24,-0.585 -0.482,-1.164 -0.737,-1.75 -1.363,-0.184 -2.696,-0.468 -4.024,-0.794 l -0.339,-0.089 c 0.223,0.798 0.462,1.595 0.712,2.395 0.318,0.998 0.659,2.003 1.022,3.015 0.971,2.666 2.094,5.347 3.397,8.042 1.32,2.7 2.78,5.408 4.704,8.158"
             style="fill:#FFFFFF;fill-opacity:1;fill-rule:nonzero;stroke:none"
             id="path116" />
        </g>
        <g
           id="g118"
           transform="translate(411.2412,1041.8389)">
          <path
             d="m 0,0 c -1.536,-2.777 -3.441,-5.448 -5.46,-8.088 -2.031,-2.64 -4.21,-5.234 -6.516,-7.789 -0.939,-1.041 -1.895,-2.077 -2.884,-3.108 l -0.507,-0.529 -0.536,0.14 c -1.081,0.263 -2.191,0.405 -3.303,0.463 l 0.821,0.971 c 0.894,1.053 1.806,2.097 2.742,3.138 2.298,2.558 4.722,5.077 7.293,7.553 C -5.76,-4.77 -3.061,-2.333 0,0"
             style="fill:#FFFFFF;fill-opacity:1;fill-rule:nonzero;stroke:none"
             id="path120" />
        </g>
        <g
           id="g122"
           transform="translate(424.4258,1034.0586)">
          <path
             d="m 0,0 c -2.795,-2.495 -5.808,-4.75 -8.884,-6.937 -3.083,-2.177 -6.244,-4.257 -9.488,-6.26 -1.309,-0.813 -2.629,-1.606 -3.969,-2.382 l -0.256,-0.152 c -0.576,0.822 -1.288,1.572 -2.127,2.184 l 0.336,0.218 c 1.281,0.842 2.582,1.664 3.897,2.479 3.234,2.007 6.546,3.931 9.938,5.761 C -7.151,-3.268 -3.683,-1.519 0,0"
             style="fill:#FFFFFF;fill-opacity:1;fill-rule:nonzero;stroke:none"
             id="path124" />
        </g>
        <g
           id="g126"
           transform="translate(429.7227,1021.3975)">
          <path
             d="m 0,0 c -3.572,-1.774 -7.158,-3.228 -10.763,-4.574 -3.596,-1.346 -7.205,-2.561 -10.818,-3.663 -1.496,-0.452 -2.993,-0.89 -4.493,-1.301 l -0.674,-0.192 c 0.203,0.97 0.258,1.961 0.185,2.942 l -0.032,0.237 0.371,0.12 c 1.48,0.492 2.953,0.965 4.43,1.415 3.62,1.107 7.24,2.103 10.866,2.968 C -7.292,-1.193 -3.654,-0.431 0,0"
             style="fill:#FFFFFF;fill-opacity:1;fill-rule:nonzero;stroke:none"
             id="path128" />
        </g>
        <g
           id="g130"
           transform="translate(426.229,1006.0488)">
          <path
             d="m 0,0 c -3.73,-0.751 -7.287,-1.146 -10.787,-1.43 -3.497,-0.268 -6.922,-0.407 -10.288,-0.415 -1.359,0 -2.709,0.011 -4.059,0.055 -0.667,0.011 -1.345,0.032 -2.027,0.071 0.863,1.025 1.649,2.116 2.304,3.266 l 1.316,0.052 c 1.416,0.053 2.822,0.076 4.212,0.087 3.366,0.015 6.676,-0.092 9.917,-0.339 C -6.184,1.092 -3.002,0.726 0,0"
             style="fill:#FFFFFF;fill-opacity:1;fill-rule:nonzero;stroke:none"
             id="path132" />
        </g>
        <g
           id="g134"
           transform="translate(414.5405,990.667)">
          <path
             d="m 0,0 c -3.247,0.407 -6.147,1.144 -8.947,1.969 -2.782,0.844 -5.431,1.811 -7.965,2.894 -0.984,0.423 -1.949,0.855 -2.893,1.307 -0.82,0.392 -1.62,0.797 -2.403,1.213 l 0.776,0.596 c 0.875,0.694 1.735,1.412 2.56,2.155 0.784,-0.267 1.56,-0.541 2.314,-0.83 1.036,-0.382 2.046,-0.789 3.037,-1.207 C -10.981,7.02 -8.56,5.828 -6.273,4.514 -3.996,3.188 -1.827,1.759 0,0"
             style="fill:#FFFFFF;fill-opacity:1;fill-rule:nonzero;stroke:none"
             id="path136" />
        </g>
        <g
           id="g138"
           transform="translate(386.5171,979.8477)">
          <path
             d="m 0,0 c 0.066,-0.847 -0.331,-1.572 -0.888,-1.619 -0.555,-0.05 -1.06,0.597 -1.126,1.443 -0.066,0.847 0.332,1.572 0.887,1.619 C -0.57,1.494 -0.067,0.847 0,0"
             style="fill:#FFFFFF;fill-opacity:1;fill-rule:nonzero;stroke:none"
             id="path140" />
        </g>
        <g
           id="g142"
           transform="translate(382.6763,977.8027)">
          <path
             d="m 0,0 c 0.069,-0.847 -0.329,-1.572 -0.886,-1.619 -0.554,-0.05 -1.059,0.597 -1.126,1.442 -0.065,0.847 0.332,1.573 0.889,1.62 C -0.568,1.494 -0.065,0.847 0,0"
             style="fill:#FFFFFF;fill-opacity:1;fill-rule:nonzero;stroke:none"
             id="path144" />
        </g>
        <g
           id="g146"
           transform="translate(384.7822,973.7256)">
          <path
             d="m 0,0 c 0.065,-0.848 -0.332,-1.573 -0.886,-1.622 -0.557,-0.048 -1.059,0.599 -1.128,1.445 -0.066,0.844 0.331,1.57 0.889,1.619 C -0.57,1.49 -0.066,0.846 0,0"
             style="fill:#FFFFFF;fill-opacity:1;fill-rule:nonzero;stroke:none"
             id="path148" />
        </g>
        <g
           id="g150"
           transform="translate(389.4775,976.8223)">
          <path
             d="M 0,0 C 0.815,-0.413 1.247,-1.103 0.963,-1.538 0.679,-1.978 -0.21,-2.001 -1.023,-1.589 -1.838,-1.176 -2.266,-0.486 -1.985,-0.05 -1.701,0.389 -0.812,0.412 0,0"
             style="fill:#FFFFFF;fill-opacity:1;fill-rule:nonzero;stroke:none"
             id="path152" />
        </g>
        <g
           id="g154"
           transform="translate(390.1138,983.2764)">
          <path
             d="M 0,0 C 0.56,-0.671 0.65,-1.465 0.2,-1.771 -0.25,-2.079 -1.067,-1.782 -1.625,-1.112 -2.185,-0.441 -2.274,0.353 -1.824,0.66 -1.375,0.967 -0.558,0.673 0,0"
             style="fill:#FFFFFF;fill-opacity:1;fill-rule:nonzero;stroke:none"
             id="path156" />
        </g>
        <g
           id="g158"
           transform="translate(369.3896,975.0791)">
          <path
             d="m 0,0 c -0.558,-0.673 -1.36,-0.991 -1.794,-0.705 -0.431,0.284 -0.331,1.062 0.226,1.735 0.558,0.676 1.36,0.991 1.794,0.707 C 0.66,1.454 0.557,0.676 0,0"
             style="fill:#FFFFFF;fill-opacity:1;fill-rule:nonzero;stroke:none"
             id="path160" />
        </g>
        <g
           id="g162"
           transform="translate(365.1748,975.7598)">
          <path
             d="m 0,0 c -0.555,-0.673 -1.36,-0.991 -1.793,-0.707 -0.431,0.286 -0.332,1.065 0.226,1.738 0.557,0.675 1.359,0.99 1.793,0.707 C 0.66,1.453 0.558,0.676 0,0"
             style="fill:#FFFFFF;fill-opacity:1;fill-rule:nonzero;stroke:none"
             id="path164" />
        </g>
        <g
           id="g166"
           transform="translate(363.771,971.4746)">
          <path
             d="M 0,0 C -0.558,-0.676 -1.359,-0.991 -1.793,-0.707 -2.227,-0.421 -2.127,0.355 -1.57,1.03 -1.012,1.706 -0.21,2.021 0.223,1.737 0.657,1.453 0.557,0.676 0,0"
             style="fill:#FFFFFF;fill-opacity:1;fill-rule:nonzero;stroke:none"
             id="path168" />
        </g>
        <g
           id="g170"
           transform="translate(369.3525,971.0879)">
          <path
             d="m 0,0 c 0.289,-0.78 0.105,-1.546 -0.41,-1.714 -0.516,-0.166 -1.171,0.334 -1.459,1.112 -0.29,0.781 -0.106,1.549 0.41,1.714 C -0.944,1.28 -0.29,0.781 0,0"
             style="fill:#FFFFFF;fill-opacity:1;fill-rule:nonzero;stroke:none"
             id="path172" />
        </g>
        <g
           id="g174"
           transform="translate(374.4214,975.5781)">
          <path
             d="m 0,0 c -0.079,-0.827 -0.584,-1.477 -1.125,-1.448 -0.542,0.029 -0.915,0.722 -0.837,1.551 0.08,0.828 0.582,1.478 1.123,1.449 C -0.297,1.522 0.079,0.828 0,0"
             style="fill:#FFFFFF;fill-opacity:1;fill-rule:nonzero;stroke:none"
             id="path176" />
        </g>
        <g
           id="g178"
           transform="translate(357.1006,977.6787)">
          <path
             d="m 0,0 c -0.799,-0.552 -1.727,-0.662 -2.074,-0.247 -0.35,0.413 0.013,1.196 0.81,1.749 0.799,0.549 1.727,0.662 2.077,0.246 C 1.16,1.336 0.797,0.553 0,0"
             style="fill:#FFFFFF;fill-opacity:1;fill-rule:nonzero;stroke:none"
             id="path180" />
        </g>
        <g
           id="g182"
           transform="translate(353.0098,979.5332)">
          <path
             d="m 0,0 c -0.799,-0.55 -1.727,-0.663 -2.074,-0.248 -0.35,0.412 0.013,1.196 0.813,1.749 C -0.465,2.05 0.463,2.163 0.813,1.748 1.159,1.335 0.797,0.552 0,0"
             style="fill:#FFFFFF;fill-opacity:1;fill-rule:nonzero;stroke:none"
             id="path184" />
        </g>
        <g
           id="g186"
           transform="translate(350.1313,975.4521)">
          <path
             d="m 0,0 c -0.797,-0.552 -1.728,-0.665 -2.075,-0.25 -0.349,0.413 0.016,1.196 0.813,1.749 0.796,0.552 1.727,0.662 2.074,0.249 C 1.162,1.333 0.797,0.55 0,0"
             style="fill:#FFFFFF;fill-opacity:1;fill-rule:nonzero;stroke:none"
             id="path188" />
        </g>
        <g
           id="g190"
           transform="translate(355.6523,973.1543)">
          <path
             d="m 0,0 c -0.36,-0.841 -1.091,-1.38 -1.638,-1.204 -0.544,0.177 -0.696,1.002 -0.339,1.844 0.36,0.84 1.091,1.38 1.638,1.204 C 0.205,1.667 0.358,0.842 0,0"
             style="fill:#FFFFFF;fill-opacity:1;fill-rule:nonzero;stroke:none"
             id="path192" />
        </g>
        <g
           id="g194"
           transform="translate(347.4077,983.9336)">
          <path
             d="m 0,0 c -0.952,-0.187 -1.746,0.026 -1.772,0.473 -0.026,0.45 0.723,0.965 1.674,1.154 C 0.854,1.814 1.646,1.602 1.674,1.154 1.701,0.704 0.952,0.189 0,0"
             style="fill:#FFFFFF;fill-opacity:1;fill-rule:nonzero;stroke:none"
             id="path196" />
        </g>
        <g
           id="g198"
           transform="translate(345.3101,986.7676)">
          <path
             d="M 0,0 C -0.952,-0.187 -1.747,0.023 -1.772,0.474 -1.799,0.923 -1.05,1.438 -0.098,1.628 0.854,1.813 1.646,1.602 1.672,1.152 1.701,0.705 0.949,0.187 0,0"
             style="fill:#FFFFFF;fill-opacity:1;fill-rule:nonzero;stroke:none"
             id="path200" />
        </g>
        <g
           id="g202"
           transform="translate(340.6323,984.3965)">
          <path
             d="m 0,0 c -0.952,-0.187 -1.743,0.023 -1.769,0.473 -0.026,0.45 0.723,0.965 1.671,1.152 C 0.855,1.814 1.649,1.602 1.675,1.151 1.701,0.702 0.952,0.187 0,0"
             style="fill:#FFFFFF;fill-opacity:1;fill-rule:nonzero;stroke:none"
             id="path204" />
        </g>
        <g
           id="g206"
           transform="translate(343.5874,980.7393)">
          <path
             d="m 0,0 c -0.781,-0.565 -1.674,-0.766 -1.995,-0.444 -0.324,0.32 0.047,1.039 0.828,1.603 0.78,0.566 1.674,0.766 1.995,0.445 C 1.151,1.282 0.779,0.565 0,0"
             style="fill:#FFFFFF;fill-opacity:1;fill-rule:nonzero;stroke:none"
             id="path208" />
        </g>
        <g
           id="g210"
           transform="translate(342.4678,992.6934)">
          <path
             d="M 0,0 C -0.949,0.145 -1.589,0.61 -1.428,1.039 -1.265,1.47 -0.363,1.701 0.585,1.557 1.538,1.412 2.174,0.947 2.014,0.519 1.851,0.087 0.951,-0.145 0,0"
             style="fill:#FFFFFF;fill-opacity:1;fill-rule:nonzero;stroke:none"
             id="path212" />
        </g>
        <g
           id="g214"
           transform="translate(341.7212,996.0527)">
          <path
             d="m 0,0 c -0.952,0.146 -1.591,0.61 -1.428,1.042 0.16,0.429 1.062,0.659 2.014,0.519 C 1.535,1.415 2.174,0.949 2.014,0.52 1.85,0.09 0.949,-0.142 0,0"
             style="fill:#FFFFFF;fill-opacity:1;fill-rule:nonzero;stroke:none"
             id="path216" />
        </g>
        <g
           id="g218"
           transform="translate(336.4473,995.4053)">
          <path
             d="m 0,0 c -0.949,0.141 -1.588,0.606 -1.425,1.037 0.16,0.429 1.062,0.66 2.013,0.519 C 1.538,1.41 2.177,0.945 2.014,0.514 1.853,0.085 0.952,-0.146 0,0"
             style="fill:#FFFFFF;fill-opacity:1;fill-rule:nonzero;stroke:none"
             id="path220" />
        </g>
        <g
           id="g222"
           transform="translate(337.6382,990.9814)">
          <path
             d="M 0,0 C -0.952,-0.268 -1.854,-0.154 -2.014,0.255 -2.177,0.663 -1.539,1.212 -0.589,1.48 0.362,1.749 1.264,1.634 1.424,1.226 1.587,0.815 0.949,0.27 0,0"
             style="fill:#FFFFFF;fill-opacity:1;fill-rule:nonzero;stroke:none"
             id="path224" />
        </g>
        <g
           id="g226"
           transform="translate(343.3745,1003.5229)">
          <path
             d="M 0,0 C -0.867,0.486 -1.286,1.18 -0.936,1.554 -0.586,1.927 0.399,1.834 1.267,1.348 2.135,0.862 2.556,0.168 2.206,-0.205 1.856,-0.578 0.87,-0.486 0,0"
             style="fill:#FFFFFF;fill-opacity:1;fill-rule:nonzero;stroke:none"
             id="path228" />
        </g>
        <g
           id="g230"
           transform="translate(344.1348,1007.1611)">
          <path
             d="M 0,0 C -0.868,0.484 -1.289,1.181 -0.939,1.554 -0.589,1.927 0.399,1.835 1.267,1.349 2.134,0.863 2.552,0.168 2.203,-0.205 1.853,-0.579 0.867,-0.486 0,0"
             style="fill:#FFFFFF;fill-opacity:1;fill-rule:nonzero;stroke:none"
             id="path232" />
        </g>
        <g
           id="g234"
           transform="translate(338.6768,1008.4023)">
          <path
             d="M 0,0 C -0.868,0.483 -1.288,1.18 -0.939,1.554 -0.589,1.924 0.397,1.833 1.265,1.349 2.132,0.862 2.552,0.168 2.202,-0.205 1.853,-0.579 0.867,-0.486 0,0"
             style="fill:#FFFFFF;fill-opacity:1;fill-rule:nonzero;stroke:none"
             id="path236" />
        </g>
        <g
           id="g238"
           transform="translate(337.8799,1003.541)">
          <path
             d="M 0,0 C -1.052,0.074 -1.882,0.513 -1.862,0.981 -1.837,1.446 -0.967,1.767 0.082,1.696 1.133,1.622 1.964,1.184 1.943,0.715 1.919,0.247 1.049,-0.073 0,0"
             style="fill:#FFFFFF;fill-opacity:1;fill-rule:nonzero;stroke:none"
             id="path240" />
        </g>
        <g
           id="g242"
           transform="translate(350.457,1015.5845)">
          <path
             d="M 0,0 C -0.576,0.708 -0.657,1.47 -0.181,1.707 0.292,1.94 1.141,1.56 1.717,0.852 2.29,0.145 2.372,-0.618 1.898,-0.854 1.426,-1.088 0.576,-0.704 0,0"
             style="fill:#FFFFFF;fill-opacity:1;fill-rule:nonzero;stroke:none"
             id="path244" />
        </g>
        <g
           id="g246"
           transform="translate(352.6919,1018.6816)">
          <path
             d="M 0,0 C -0.576,0.708 -0.657,1.47 -0.184,1.704 0.29,1.94 1.141,1.556 1.714,0.85 2.29,0.145 2.372,-0.621 1.898,-0.854 1.423,-1.088 0.573,-0.707 0,0"
             style="fill:#FFFFFF;fill-opacity:1;fill-rule:nonzero;stroke:none"
             id="path248" />
        </g>
        <g
           id="g250"
           transform="translate(348.3042,1021.4687)">
          <path
             d="M 0,0 C -0.576,0.704 -0.658,1.469 -0.184,1.704 0.289,1.937 1.138,1.556 1.714,0.849 2.29,0.142 2.371,-0.621 1.898,-0.854 1.422,-1.089 0.573,-0.708 0,0"
             style="fill:#FFFFFF;fill-opacity:1;fill-rule:nonzero;stroke:none"
             id="path252" />
        </g>
        <g
           id="g254"
           transform="translate(345.5146,1017.2676)">
          <path
             d="m 0,0 c -0.915,0.383 -1.48,1.036 -1.259,1.459 0.218,0.42 1.138,0.449 2.053,0.063 C 1.709,1.138 2.274,0.486 2.053,0.066 1.835,-0.358 0.915,-0.387 0,0"
             style="fill:#FFFFFF;fill-opacity:1;fill-rule:nonzero;stroke:none"
             id="path256" />
        </g>
        <g
           id="g258"
           transform="translate(413.126,998.3828)">
          <path
             d="M 0,0 C 0.915,0.11 1.612,0.594 1.554,1.078 1.496,1.564 0.707,1.866 -0.21,1.756 -1.128,1.646 -1.824,1.162 -1.767,0.678 -1.708,0.194 -0.918,-0.11 0,0"
             style="fill:#FFFFFF;fill-opacity:1;fill-rule:nonzero;stroke:none"
             id="path260" />
        </g>
        <g
           id="g262"
           transform="translate(414.5508,1002.0713)">
          <path
             d="M 0,0 C 0.917,0.111 1.614,0.592 1.557,1.078 1.499,1.562 0.71,1.864 -0.208,1.753 -1.125,1.644 -1.822,1.16 -1.764,0.676 -1.707,0.192 -0.917,-0.113 0,0"
             style="fill:#FFFFFF;fill-opacity:1;fill-rule:nonzero;stroke:none"
             id="path264" />
        </g>
        <g
           id="g266"
           transform="translate(419.3252,1001.0781)">
          <path
             d="M 0,0 C 0.918,0.11 1.614,0.591 1.556,1.077 1.499,1.562 0.71,1.867 -0.208,1.753 -1.125,1.643 -1.822,1.162 -1.764,0.675 -1.706,0.192 -0.918,-0.111 0,0"
             style="fill:#FFFFFF;fill-opacity:1;fill-rule:nonzero;stroke:none"
             id="path268" />
        </g>
        <g
           id="g270"
           transform="translate(416.9434,996.4473)">
          <path
             d="M 0,0 C 0.602,-0.615 1.423,-0.846 1.835,-0.518 2.248,-0.188 2.096,0.576 1.493,1.191 0.894,1.804 0.073,2.038 -0.339,1.709 -0.751,1.381 -0.6,0.615 0,0"
             style="fill:#FFFFFF;fill-opacity:1;fill-rule:nonzero;stroke:none"
             id="path272" />
        </g>
        <g
           id="g274"
           transform="translate(410.1709,994.6289)">
          <path
             d="M 0,0 C 0.829,-0.345 1.693,-0.266 1.935,0.179 2.174,0.625 1.696,1.264 0.87,1.608 0.042,1.956 -0.823,1.874 -1.064,1.43 -1.303,0.985 -0.828,0.344 0,0"
             style="fill:#FFFFFF;fill-opacity:1;fill-rule:nonzero;stroke:none"
             id="path276" />
        </g>
        <g
           id="g278"
           transform="translate(416.7012,1009.438)">
          <path
             d="M 0,0 C 0.918,0.363 1.483,1.046 1.26,1.527 1.037,2.009 0.113,2.106 -0.807,1.743 -1.724,1.38 -2.288,0.697 -2.063,0.216 -1.843,-0.265 -0.917,-0.362 0,0"
             style="fill:#FFFFFF;fill-opacity:1;fill-rule:nonzero;stroke:none"
             id="path280" />
        </g>
        <g
           id="g282"
           transform="translate(416.9517,1013.605)">
          <path
             d="M 0,0 C 0.917,0.36 1.48,1.047 1.259,1.528 1.036,2.009 0.113,2.104 -0.808,1.74 -1.725,1.378 -2.288,0.694 -2.067,0.213 -1.843,-0.268 -0.917,-0.363 0,0"
             style="fill:#FFFFFF;fill-opacity:1;fill-rule:nonzero;stroke:none"
             id="path284" />
        </g>
        <g
           id="g286"
           transform="translate(422.2568,1013.8843)">
          <path
             d="M 0,0 C 0.917,0.36 1.48,1.046 1.259,1.527 1.036,2.005 0.11,2.103 -0.808,1.74 -1.725,1.377 -2.288,0.693 -2.066,0.212 -1.843,-0.269 -0.918,-0.363 0,0"
             style="fill:#FFFFFF;fill-opacity:1;fill-rule:nonzero;stroke:none"
             id="path288" />
        </g>
        <g
           id="g290"
           transform="translate(421.7231,1008.3599)">
          <path
             d="M 0,0 C 0.978,-0.129 1.854,0.189 1.953,0.71 2.053,1.23 1.343,1.759 0.366,1.888 -0.613,2.017 -1.485,1.699 -1.588,1.178 -1.688,0.658 -0.976,0.132 0,0"
             style="fill:#FFFFFF;fill-opacity:1;fill-rule:nonzero;stroke:none"
             id="path292" />
        </g>
        <g
           id="g294"
           transform="translate(415.5186,1020.2275)">
          <path
             d="M 0,0 C 0.646,0.666 0.836,1.399 0.42,1.64 0.008,1.883 -0.854,1.541 -1.501,0.878 -2.147,0.213 -2.337,-0.52 -1.922,-0.762 -1.51,-1.007 -0.646,-0.665 0,0"
             style="fill:#FFFFFF;fill-opacity:1;fill-rule:nonzero;stroke:none"
             id="path296" />
        </g>
        <g
           id="g298"
           transform="translate(413.8535,1023.2935)">
          <path
             d="M 0,0 C 0.647,0.662 0.836,1.398 0.421,1.64 0.009,1.882 -0.854,1.54 -1.5,0.875 -2.147,0.213 -2.337,-0.523 -1.921,-0.766 -1.506,-1.007 -0.646,-0.666 0,0"
             style="fill:#FFFFFF;fill-opacity:1;fill-rule:nonzero;stroke:none"
             id="path300" />
        </g>
        <g
           id="g302"
           transform="translate(418.4155,1025.8433)">
          <path
             d="M 0,0 C 0.646,0.662 0.836,1.399 0.421,1.641 0.007,1.883 -0.854,1.541 -1.501,0.875 -2.148,0.213 -2.337,-0.523 -1.922,-0.765 -1.506,-1.007 -0.646,-0.665 0,0"
             style="fill:#FFFFFF;fill-opacity:1;fill-rule:nonzero;stroke:none"
             id="path304" />
        </g>
        <g
           id="g306"
           transform="translate(420.4458,1021.6924)">
          <path
             d="M 0,0 C 0.922,0.341 1.551,0.954 1.404,1.367 1.256,1.782 0.391,1.84 -0.531,1.499 -1.455,1.156 -2.085,0.543 -1.938,0.128 -1.791,-0.284 -0.923,-0.342 0,0"
             style="fill:#FFFFFF;fill-opacity:1;fill-rule:nonzero;stroke:none"
             id="path308" />
        </g>
        <g
           id="g310"
           transform="translate(409.6108,1028.4697)">
          <path
             d="M 0,0 C 0.329,0.828 0.202,1.564 -0.286,1.648 -0.778,1.73 -1.44,1.128 -1.772,0.3 -2.103,-0.525 -1.975,-1.265 -1.485,-1.346 -0.996,-1.43 -0.331,-0.825 0,0"
             style="fill:#FFFFFF;fill-opacity:1;fill-rule:nonzero;stroke:none"
             id="path312" />
        </g>
        <g
           id="g314"
           transform="translate(406.7769,1030.7207)">
          <path
             d="M 0,0 C 0.332,0.825 0.202,1.564 -0.286,1.646 -0.775,1.729 -1.441,1.125 -1.772,0.299 -2.103,-0.526 -1.974,-1.265 -1.485,-1.347 -0.996,-1.431 -0.331,-0.826 0,0"
             style="fill:#FFFFFF;fill-opacity:1;fill-rule:nonzero;stroke:none"
             id="path316" />
        </g>
        <g
           id="g318"
           transform="translate(409.9946,1034.5928)">
          <path
             d="M 0,0 C 0.329,0.826 0.203,1.564 -0.287,1.646 -0.778,1.729 -1.44,1.125 -1.772,0.3 -2.103,-0.528 -1.974,-1.264 -1.485,-1.349 -0.996,-1.43 -0.332,-0.828 0,0"
             style="fill:#FFFFFF;fill-opacity:1;fill-rule:nonzero;stroke:none"
             id="path320" />
        </g>
        <g
           id="g322"
           transform="translate(413.6206,1031.4692)">
          <path
             d="M 0,0 C 0.723,0.623 1.057,1.396 0.746,1.728 0.438,2.056 -0.399,1.819 -1.123,1.194 -1.843,0.57 -2.179,-0.203 -1.87,-0.533 -1.559,-0.862 -0.723,-0.625 0,0"
             style="fill:#FFFFFF;fill-opacity:1;fill-rule:nonzero;stroke:none"
             id="path324" />
        </g>
        <g
           id="g326"
           transform="translate(398.8501,1033.0815)">
          <path
             d="M 0,0 C -0.034,0.928 -0.492,1.606 -1.017,1.511 -1.546,1.417 -1.945,0.586 -1.909,-0.342 -1.874,-1.273 -1.419,-1.948 -0.891,-1.854 -0.362,-1.76 0.035,-0.931 0,0"
             style="fill:#FFFFFF;fill-opacity:1;fill-rule:nonzero;stroke:none"
             id="path328" />
        </g>
        <g
           id="g330"
           transform="translate(395.0122,1034.27)">
          <path
             d="M 0,0 C -0.037,0.93 -0.492,1.606 -1.018,1.512 -1.546,1.417 -1.946,0.586 -1.909,-0.342 -1.875,-1.273 -1.42,-1.949 -0.892,-1.854 -0.366,-1.759 0.034,-0.929 0,0"
             style="fill:#FFFFFF;fill-opacity:1;fill-rule:nonzero;stroke:none"
             id="path332" />
        </g>
        <g
           id="g334"
           transform="translate(396.5181,1039.2227)">
          <path
             d="m 0,0 c -0.034,0.928 -0.492,1.606 -1.018,1.511 -0.527,-0.094 -0.927,-0.925 -0.89,-1.853 0.034,-0.93 0.491,-1.606 1.017,-1.511 C -0.363,-1.762 0.034,-0.931 0,0"
             style="fill:#FFFFFF;fill-opacity:1;fill-rule:nonzero;stroke:none"
             id="path336" />
        </g>
        <g
           id="g338"
           transform="translate(401.54,1037.4609)">
          <path
             d="M 0,0 C 0.447,0.871 0.439,1.751 -0.019,1.964 -0.473,2.175 -1.207,1.641 -1.654,0.771 -2.103,-0.102 -2.095,-0.981 -1.638,-1.193 -1.183,-1.406 -0.45,-0.87 0,0"
             style="fill:#FFFFFF;fill-opacity:1;fill-rule:nonzero;stroke:none"
             id="path340" />
        </g>
        <g
           id="g342"
           transform="translate(383.8721,1033.3911)">
          <path
             d="M 0,0 C -0.389,0.805 -1.075,1.247 -1.533,0.984 -1.99,0.723 -2.044,-0.142 -1.653,-0.946 -1.264,-1.75 -0.578,-2.192 -0.121,-1.932 0.336,-1.669 0.392,-0.804 0,0"
             style="fill:#FFFFFF;fill-opacity:1;fill-rule:nonzero;stroke:none"
             id="path344" />
        </g>
        <g
           id="g346"
           transform="translate(379.8237,1033.1382)">
          <path
             d="M 0,0 C -0.389,0.805 -1.075,1.247 -1.533,0.987 -1.99,0.724 -2.046,-0.138 -1.654,-0.945 -1.264,-1.75 -0.579,-2.192 -0.121,-1.929 0.336,-1.669 0.389,-0.804 0,0"
             style="fill:#FFFFFF;fill-opacity:1;fill-rule:nonzero;stroke:none"
             id="path348" />
        </g>
        <g
           id="g350"
           transform="translate(379.332,1038.0029)">
          <path
             d="m 0,0 c -0.389,0.804 -1.078,1.246 -1.533,0.983 -0.457,-0.26 -0.512,-1.125 -0.123,-1.93 0.391,-0.804 1.078,-1.246 1.535,-0.986 C 0.336,-1.669 0.39,-0.807 0,0"
             style="fill:#FFFFFF;fill-opacity:1;fill-rule:nonzero;stroke:none"
             id="path352" />
        </g>
        <g
           id="g354"
           transform="translate(384.7061,1038.1499)">
          <path
             d="m 0,0 c 0.086,0.917 -0.261,1.688 -0.768,1.719 -0.51,0.032 -0.991,-0.683 -1.075,-1.601 -0.084,-0.917 0.26,-1.687 0.77,-1.719 C -0.566,-1.635 -0.084,-0.917 0,0"
             style="fill:#FFFFFF;fill-opacity:1;fill-rule:nonzero;stroke:none"
             id="path356" />
        </g>
        <g
           id="g358"
           transform="translate(367.3413,1028.9268)">
          <path
             d="m 0,0 c -0.742,0.563 -1.583,0.689 -1.875,0.279 -0.292,-0.41 0.074,-1.198 0.817,-1.763 C -0.315,-2.05 0.523,-2.177 0.817,-1.767 1.109,-1.356 0.744,-0.564 0,0"
             style="fill:#FFFFFF;fill-opacity:1;fill-rule:nonzero;stroke:none"
             id="path360" />
        </g>
        <g
           id="g362"
           transform="translate(363.7627,1027.1289)">
          <path
             d="m 0,0 c -0.744,0.565 -1.583,0.689 -1.874,0.279 -0.292,-0.41 0.073,-1.199 0.815,-1.764 0.744,-0.566 1.582,-0.692 1.874,-0.282 C 1.11,-1.356 0.741,-0.565 0,0"
             style="fill:#FFFFFF;fill-opacity:1;fill-rule:nonzero;stroke:none"
             id="path364" />
        </g>
        <g
           id="g366"
           transform="translate(360.9766,1031.2642)">
          <path
             d="M 0,0 C -0.742,0.565 -1.581,0.692 -1.873,0.281 -2.167,-0.131 -1.801,-0.92 -1.058,-1.485 -0.316,-2.051 0.525,-2.174 0.817,-1.767 1.109,-1.356 0.743,-0.565 0,0"
             style="fill:#FFFFFF;fill-opacity:1;fill-rule:nonzero;stroke:none"
             id="path368" />
        </g>
        <g
           id="g370"
           transform="translate(365.8184,1033.4863)">
          <path
             d="M 0,0 C -0.365,0.849 -1.048,1.401 -1.529,1.23 -2.011,1.062 -2.105,0.236 -1.743,-0.613 -1.379,-1.462 -0.694,-2.015 -0.212,-1.844 0.266,-1.675 0.363,-0.85 0,0"
             style="fill:#FFFFFF;fill-opacity:1;fill-rule:nonzero;stroke:none"
             id="path372" />
        </g>
        <g
           id="g374"
           transform="translate(399.8496,986.9512)">
          <path
             d="M 0,0 C 0.772,-0.468 1.659,-0.51 1.979,-0.092 2.298,0.326 1.93,1.044 1.156,1.515 0.384,1.983 -0.502,2.024 -0.823,1.606 -1.141,1.188 -0.776,0.472 0,0"
             style="fill:#FFFFFF;fill-opacity:1;fill-rule:nonzero;stroke:none"
             id="path376" />
        </g>
        <g
           id="g378"
           transform="translate(403.6851,988.9971)">
          <path
             d="M 0,0 C 0.775,-0.468 1.662,-0.51 1.982,-0.093 2.3,0.326 1.935,1.044 1.16,1.515 0.387,1.982 -0.5,2.024 -0.82,1.606 -1.139,1.188 -0.771,0.471 0,0"
             style="fill:#FFFFFF;fill-opacity:1;fill-rule:nonzero;stroke:none"
             id="path380" />
        </g>
        <g
           id="g382"
           transform="translate(406.5352,985.3164)">
          <path
             d="M 0,0 C 0.773,-0.471 1.659,-0.513 1.979,-0.095 2.3,0.324 1.932,1.044 1.159,1.512 0.386,1.982 -0.5,2.024 -0.82,1.606 -1.141,1.188 -0.773,0.468 0,0"
             style="fill:#FFFFFF;fill-opacity:1;fill-rule:nonzero;stroke:none"
             id="path384" />
        </g>
        <g
           id="g386"
           transform="translate(401.2715,983.1055)">
          <path
             d="M 0,0 C -0.01,-0.85 0.434,-1.53 0.991,-1.522 1.548,-1.515 2.009,-0.817 2.017,0.034 2.025,0.883 1.58,1.564 1.025,1.557 0.468,1.546 0.008,0.849 0,0"
             style="fill:#FFFFFF;fill-opacity:1;fill-rule:nonzero;stroke:none"
             id="path388" />
        </g>
        <g
           id="g390"
           transform="translate(394.8096,985.7793)">
          <path
             d="m 0,0 c 0.366,-0.775 1.075,-1.236 1.591,-1.03 0.512,0.204 0.636,0.999 0.27,1.773 C 1.498,1.52 0.786,1.982 0.273,1.777 -0.242,1.569 -0.363,0.775 0,0"
             style="fill:#FFFFFF;fill-opacity:1;fill-rule:nonzero;stroke:none"
             id="path392" />
        </g>
        <g
           id="g394"
           transform="translate(384.9634,837.7607)">
          <path
             d="m 0,0 c -0.913,7.367 -4.259,14.149 -8.588,19.909 -4.373,5.845 -10.059,10.33 -16.235,14.23 l -37.183,24.302 c -6.189,4.096 -12.354,8.232 -18.375,12.664 -3.015,2.246 -6.015,4.422 -8.996,6.981 -3.245,2.476 -5.721,6.459 -7.611,9.42 -7.932,12.726 -15.117,25.617 -22.466,38.51 l -21.316,38.997 -10.361,19.66 -5.124,9.872 -2.487,4.995 -1.259,2.593 -0.66,1.435 c -0.295,0.739 -0.552,2.179 -0.287,3.065 1.034,3.884 3.707,5.003 5.921,5.908 2.337,0.778 4.716,0.783 6.915,0.399 4.429,-0.838 8.05,-3.223 10.959,-5.951 5.629,-5.663 9.665,-11.763 13.948,-17.902 8.128,-12.467 15.942,-25.052 23.115,-38.04 -8.71,11.994 -17.181,24.142 -26.326,35.718 -4.49,5.748 -9.043,11.828 -14.128,16.416 -2.569,2.195 -5.539,3.794 -8.457,4.173 -1.441,0.175 -2.869,0.065 -4.028,-0.402 -1.134,-0.345 -2.04,-1.541 -1.798,-1.376 l 42.417,-75.616 c 7.172,-12.901 14.389,-25.887 21.892,-38.416 2.032,-3.278 3.368,-5.803 5.999,-7.953 2.577,-2.335 5.51,-4.596 8.374,-6.838 L -58.462,63.508 -22.56,37.361 C -10.484,28.683 -0.203,15.148 0,0"
             style="fill:#FFFFFF;fill-opacity:1;fill-rule:nonzero;stroke:none"
             id="path396" />
        </g>
        <g
           id="g398"
           transform="translate(435.4019,837.7607)">
          <path
             d="m 0,0 c 0.026,13.508 -2.721,26.975 -8.597,38.8 -2.816,5.888 -6.793,11.278 -10.621,16.846 -3.883,5.456 -7.79,10.827 -12.325,15.497 -8.976,9.459 -20.401,15.918 -32.584,21.489 -12.231,5.845 -24.416,11.77 -36.411,18.454 -5.888,3.383 -12.015,7.141 -17.328,11.694 l -15.68,12.814 c -2.602,2.124 -5.215,4.238 -7.837,6.249 -1.304,0.985 -2.642,2.006 -3.888,2.831 -1.178,0.815 -2.111,1.191 -3.326,1.441 -4.827,0.947 -8.139,-2.84 -5.44,-8.124 2.504,-5.346 7.333,-10.172 11.852,-15.143 4.549,-4.904 9.205,-9.778 14.342,-13.743 5.657,-3.667 10.763,-8.773 15.138,-13.886 4.391,-5.198 8.542,-10.81 10.855,-17.226 -3.105,6.031 -7.729,11.019 -12.419,15.764 -4.877,4.714 -9.804,8.896 -15.837,12.099 -5.879,3.913 -10.885,8.6 -15.851,13.28 -4.806,4.721 -10.064,9.325 -13.75,16.105 -0.87,1.74 -1.656,3.681 -1.846,6.029 -0.092,1.162 0.042,2.47 0.363,3.646 0.318,1.081 0.755,2.174 1.415,3.191 2.679,4.36 8.213,5.79 12.377,4.983 2.124,-0.308 4.38,-1.249 6.007,-2.329 1.599,-0.996 2.977,-1.996 4.402,-3.011 2.8,-2.024 5.502,-4.091 8.197,-6.167 l 15.89,-12.67 c 5.008,-4.22 10.519,-7.493 16.356,-10.813 11.562,-6.62 23.7,-12.562 35.757,-18.612 12.125,-6.007 24.695,-13.276 33.873,-24.105 4.632,-5.286 8.523,-11.029 12.099,-16.841 C -11.371,52.736 -7.587,46.947 -5,40.398 -0.071,27.437 1.835,13.453 0,0"
             style="fill:#FFFFFF;fill-opacity:1;fill-rule:nonzero;stroke:none"
             id="path400" />
        </g>
        <g
           id="g402"
           transform="translate(485.1567,837.7607)">
          <path
             d="m 0,0 c 0.206,15.148 10.487,28.683 22.561,37.361 l 35.902,26.147 17.683,13.245 c 2.862,2.242 5.799,4.503 8.375,6.838 2.629,2.15 3.965,4.675 5.998,7.953 7.506,12.529 14.723,25.515 21.895,38.416 l 42.414,75.616 c 0.244,-0.165 -0.665,1.031 -1.798,1.376 -1.157,0.467 -2.585,0.577 -4.025,0.402 -2.919,-0.379 -5.892,-1.978 -8.458,-4.173 -5.084,-4.588 -9.638,-10.668 -14.131,-16.416 -9.142,-11.576 -17.615,-23.724 -26.322,-35.718 7.169,12.988 14.985,25.573 23.114,38.04 4.28,6.139 8.319,12.239 13.945,17.902 2.912,2.728 6.533,5.113 10.961,5.951 2.197,0.384 4.579,0.379 6.916,-0.399 2.214,-0.905 4.886,-2.024 5.921,-5.908 0.266,-0.886 0.005,-2.326 -0.289,-3.065 l -0.66,-1.435 -1.259,-2.593 -2.488,-4.995 -5.124,-9.872 -10.36,-19.66 -21.314,-38.997 C 112.108,113.123 104.92,100.232 96.988,87.506 95.098,84.545 92.622,80.562 89.377,78.086 86.396,75.527 83.399,73.351 80.381,71.105 74.36,66.673 68.198,62.537 62.009,58.441 L 24.824,34.139 C 18.651,30.239 12.961,25.754 8.592,19.909 4.262,14.149 0.915,7.367 0,0"
             style="fill:#FFFFFF;fill-opacity:1;fill-rule:nonzero;stroke:none"
             id="path404" />
        </g>
        <g
           id="g406"
           transform="translate(596.2656,979.0469)">
          <path
             d="m 0,0 c -0.196,-2.358 -0.983,-4.323 -1.818,-6.044 -3.684,-6.779 -8.941,-11.396 -13.756,-16.113 -4.962,-4.667 -9.973,-9.383 -15.867,-13.265 -6.043,-3.192 -10.955,-7.418 -15.819,-12.084 -4.717,-4.766 -9.334,-9.777 -12.43,-15.77 2.309,6.386 6.436,11.987 10.857,17.195 4.373,5.108 9.482,10.218 15.132,13.902 5.159,3.98 9.776,8.843 14.345,13.756 4.52,4.962 9.334,9.777 11.84,15.131 2.701,5.306 -0.59,9.088 -5.454,8.105 -1.179,-0.245 -2.112,-0.588 -3.291,-1.424 -1.277,-0.835 -2.604,-1.867 -3.881,-2.85 -2.653,-2.014 -5.257,-4.126 -7.861,-6.238 l -0.344,-0.295 -2.21,-1.769 -13.117,-10.758 c -5.306,-4.52 -11.447,-8.303 -17.342,-11.693 -11.987,-6.681 -24.171,-12.576 -36.402,-18.422 -4.717,-2.162 -9.335,-4.47 -13.707,-7.025 -0.05,0 -0.099,-0.05 -0.147,-0.05 -6.878,-4.028 -13.265,-8.646 -18.718,-14.443 -4.569,-4.667 -8.45,-10.022 -12.331,-15.475 -3.832,-5.6 -7.81,-10.955 -10.612,-16.85 -5.895,-11.84 -8.646,-25.301 -8.597,-38.811 -1.866,13.461 0.049,27.462 4.962,40.383 2.604,6.583 6.387,12.38 9.825,18.177 3.586,5.796 7.468,11.544 12.135,16.85 4.913,5.797 10.807,10.563 17.096,14.689 1.376,0.933 2.849,1.818 4.275,2.653 4.126,2.457 8.301,4.667 12.477,6.73 12.037,6.042 24.22,11.988 35.765,18.62 5.846,3.34 11.348,6.583 16.359,10.807 l 15.868,12.675 c 1.179,0.885 2.358,1.817 3.586,2.702 1.032,0.786 2.064,1.572 3.144,2.407 h 0.05 c 0.441,0.393 0.933,0.738 1.425,1.081 1.423,0.982 2.799,2.014 4.421,2.997 0.883,0.589 1.965,1.129 3.095,1.523 0.934,0.392 1.965,0.639 2.898,0.786 4.176,0.835 9.678,-0.59 12.38,-4.962 C -1.13,5.796 -0.688,4.716 -0.344,3.635 -0.049,2.456 0.098,1.129 0,0"
             style="fill:#FFFFFF;fill-opacity:1;fill-rule:nonzero;stroke:none"
             id="path408" />
        </g>
        <g
           id="g410"
           transform="translate(447.9072,962.0703)">
          <path
             d="m 0,0 c 1.618,-1.931 3.619,-3.634 5.958,-4.807 l 1.112,2.222 -1.137,-2.21 c 3.235,-1.644 6.752,-2.431 9.715,-3.606 2.993,-1.184 5.231,-2.562 6.594,-5.089 l 0.008,-0.016 0.011,-0.018 c 0.673,-1.189 1.076,-2.81 1.424,-4.669 0.36,-1.856 0.662,-3.925 1.444,-5.998 l -0.006,0.015 c 1.308,-3.485 3.361,-7.409 6.011,-10.443 l 0.015,-0.019 c 1.683,-1.883 3.746,-3.286 6.043,-4.135 l 1.728,4.66 c -1.552,0.578 -2.896,1.485 -4.067,2.79 l 0.016,-0.019 c -2.078,2.353 -3.98,5.903 -5.089,8.903 l -0.006,0.015 c -0.536,1.389 -0.838,3.195 -1.207,5.16 -0.38,1.961 -0.827,4.107 -1.967,6.163 l -2.17,-1.212 2.189,1.177 c -2.153,4.013 -5.765,6.043 -9.159,7.362 -3.423,1.324 -6.828,2.132 -9.253,3.399 L 8.195,-0.369 8.183,-0.362 C 6.565,0.444 5.048,1.708 3.812,3.188 Z"
             style="fill:#FFFFFF;fill-opacity:1;fill-rule:nonzero;stroke:none"
             id="path412" />
        </g>
        <g
           id="g414"
           transform="translate(583.001,1002.5781)">
          <path
             d="m 0,0 c 0,-4.176 -1.229,-7.909 -3.046,-11.3 -0.246,-0.441 -0.442,-0.835 -0.736,-1.227 -1.671,-2.899 -3.734,-5.601 -5.798,-8.156 h -0.049 c -2.014,-2.407 -4.618,-5.255 -5.453,-8.842 l -2.21,-1.769 -3.095,0.196 c 0.295,4.57 2.456,8.008 4.47,10.563 0.884,1.179 1.769,2.162 2.456,2.947 v 0.049 c 2.31,2.899 4.472,5.699 6.043,8.598 1.522,2.898 2.456,5.796 2.456,8.941 0,0.933 -0.098,1.965 -0.295,2.997 -0.737,3.93 -2.063,7.074 -4.077,9.58 -2.014,2.505 -4.765,4.371 -8.646,5.649 -4.667,1.474 -8.745,2.8 -12.282,5.109 -3.586,2.358 -6.485,5.748 -8.646,10.759 -1.376,3.242 -2.604,6.19 -4.176,8.696 -1.523,2.554 -3.39,4.715 -6.19,6.681 v -0.05 c -3.193,2.211 -7.123,3.194 -11.202,3.194 -2.849,0 -5.747,-0.491 -8.449,-1.278 -2.948,-0.884 -5.896,-3.537 -9.039,-6.435 -3.145,-2.849 -6.485,-5.994 -11.152,-6.927 -0.492,-0.049 -0.982,-0.099 -1.474,-0.099 -2.408,0 -5.011,0.688 -7.959,1.278 -2.947,0.639 -6.141,1.179 -9.334,1.179 -1.228,0 -2.456,-0.049 -3.685,-0.246 -3.192,-0.491 -8.154,-2.407 -12.084,-6.091 -3.98,-3.636 -7.025,-8.892 -7.074,-16.557 v -0.097 l -4.962,-0.05 v 0.147 c 0,9.089 3.832,15.82 8.646,20.241 4.864,4.422 10.513,6.681 14.738,7.32 1.523,0.246 2.948,0.344 4.421,0.344 3.783,0 7.32,-0.688 10.367,-1.326 2.995,-0.639 5.55,-1.18 6.926,-1.18 l 0.59,0.049 h 0.048 c 2.702,0.492 5.503,2.801 8.598,5.651 3.144,2.849 6.436,6.14 11.004,7.565 3.144,0.933 6.485,1.474 9.874,1.474 4.864,0 9.826,-1.18 14.002,-4.029 h 0.049 c 3.39,-2.359 5.797,-5.158 7.615,-8.155 1.817,-2.997 3.095,-6.141 4.47,-9.334 1.868,-4.323 4.029,-6.681 6.78,-8.548 2.8,-1.866 6.435,-3.095 11.054,-4.569 h 0.049 c 4.618,-1.474 8.351,-3.93 11.004,-7.221 C -2.8,12.429 -1.179,8.4 -0.344,3.93 -0.098,2.604 0,1.277 0,0"
             style="fill:#FFFFFF;fill-opacity:1;fill-rule:nonzero;stroke:none"
             id="path416" />
        </g>
        <g
           id="g418"
           transform="translate(488.9263,1007.8608)">
          <path
             d="m 0,0 1.236,-1.979 c 1.947,1.284 2.796,2.73 3.624,3.282 2.031,1.549 4.184,2.861 6.364,4.963 1.159,1.125 1.901,1.732 2.59,2.097 0.688,0.366 1.469,0.607 2.972,0.812 1.631,0.222 2.889,0.364 4.023,0.363 1.363,-0.004 2.593,-0.18 4.346,-0.744 6.092,-1.931 12.368,-3.478 16.079,-7.593 2.133,-2.312 4.09,-5.363 6.157,-8.18 2.413,-3.3 2.851,-6.164 3.507,-10.736 0.234,-1.64 0.448,-3.424 0.447,-5.099 0.003,-1.578 -0.196,-3.042 -0.645,-4.169 -0.993,-2.609 -3.48,-4.822 -5.952,-7.629 -2.372,-2.731 -4.323,-4.488 -7.266,-6.271 -1.473,-0.886 -2.991,-1.737 -4.559,-2.669 -1.144,-0.689 -1.743,-1.027 -2.166,-1.164 -0.418,-0.143 -0.908,-0.229 -2.157,-0.232 -2.892,-0.013 -5.244,-0.546 -7.179,-0.528 -1.194,0.003 -2.218,0.158 -3.32,0.641 -2.005,0.881 -4.214,1.668 -6.178,2.603 -1.968,0.927 -3.635,2.004 -4.607,3.217 -0.852,0.958 -1.421,3.058 -2.697,5.162 -1.404,2.179 -3.186,3.936 -4.43,5.582 -1.918,2.49 -2.387,5.377 -3.115,9.12 -0.344,1.722 -0.591,3.671 -0.591,5.489 0,0.96 0.069,1.882 0.215,2.704 0.101,0.747 1.148,3.25 2.274,5.3 0.563,1.047 1.151,2.038 1.638,2.765 L 1.223,-2.05 1.376,-1.88 1.263,-1.765 1.365,-1.887 1.376,-1.88 1.263,-1.765 1.365,-1.887 0.609,-0.975 1.236,-1.979 1.365,-1.887 0.609,-0.975 1.236,-1.979 0,0 -1.237,1.979 C -1.809,1.603 -2.058,1.288 -2.375,0.922 c -1.01,-1.238 -2.151,-3.172 -3.223,-5.246 -1.055,-2.096 -1.965,-4.093 -2.298,-5.815 -0.206,-1.161 -0.287,-2.345 -0.287,-3.523 10e-4,-2.23 0.291,-4.445 0.679,-6.398 0.712,-3.511 1.211,-7.396 3.985,-11.045 1.522,-1.974 3.21,-3.677 4.204,-5.258 0.781,-1.12 1.334,-3.451 3.011,-5.598 1.708,-2.083 3.981,-3.414 6.226,-4.487 2.249,-1.064 4.525,-1.872 6.293,-2.656 1.8,-0.799 3.582,-1.042 5.206,-1.039 2.661,0.018 4.936,0.544 7.179,0.529 1.427,-0.002 2.57,0.102 3.678,0.486 1.103,0.386 1.924,0.911 3.033,1.567 1.497,0.89 3.021,1.743 4.579,2.681 3.369,2.022 5.839,4.26 8.388,7.215 2.085,2.465 5.136,4.952 6.763,8.969 0.754,1.925 0.968,3.943 0.971,5.882 -10e-4,2.058 -0.251,4.047 -0.493,5.756 -0.63,4.474 -1.226,8.597 -4.37,12.845 -1.947,2.637 -3.964,5.828 -6.478,8.571 -5.115,5.496 -12.341,6.973 -18.076,8.876 -2.114,0.69 -3.966,0.975 -5.786,0.971 C 19.292,14.204 17.829,14.025 16.161,13.8 14.401,13.566 12.943,13.194 11.61,12.477 10.277,11.76 9.216,10.813 7.979,9.619 6.252,7.939 4.314,6.738 2.043,5.023 0.344,3.665 -0.428,2.417 -1.238,1.979 Z"
             style="fill:#FFFFFF;fill-opacity:1;fill-rule:nonzero;stroke:none"
             id="path420" />
        </g>
        <g
           id="g422"
           transform="translate(477.208,1011.8213)">
          <path
             d="m 0,0 c 2.261,0.094 4.566,0.087 6.95,-0.437 2.351,-0.507 4.894,-1.685 6.787,-3.883 L 9.551,-6.999 C 9.044,-5.404 7.763,-3.893 6.003,-2.735 4.251,-1.565 2.143,-0.719 0,0"
             style="fill:#FFFFFF;fill-opacity:1;fill-rule:nonzero;stroke:none"
             id="path424" />
        </g>
        <g
           id="g426"
           transform="translate(522.0835,1035.9971)">
          <path
             d="m 0,0 c 1.162,-3.275 2.257,-6.6 2.902,-10.136 0.617,-3.513 0.876,-7.333 -0.393,-11.259 l -4.533,2.038 c 1.551,2.432 2.252,5.724 2.446,9.064 C 0.622,-6.928 0.359,-3.455 0,0"
             style="fill:#FFFFFF;fill-opacity:1;fill-rule:nonzero;stroke:none"
             id="path428" />
        </g>
        <g
           id="g430"
           transform="translate(478.6323,1022.6265)">
          <path
             d="m 0,0 c 2.885,-1.239 5.731,-2.436 8.602,-3.916 2.941,-1.716 5.291,-3.73 7.787,-5.781 l -3.668,-3.348 C 10.97,-10.606 9.117,-8.015 7.105,-5.999 4.896,-3.936 2.422,-1.953 0,0"
             style="fill:#FFFFFF;fill-opacity:1;fill-rule:nonzero;stroke:none"
             id="path432" />
        </g>
        <g
           id="g434"
           transform="translate(489.8213,1026.7783)">
          <path
             d="m 0,0 c 2.378,-0.917 4.591,-2.412 6.54,-4.237 1.934,-1.849 3.664,-4.028 4.838,-6.775 L 6.572,-12.274 C 6.225,-8.015 3.813,-3.261 0,0"
             style="fill:#FFFFFF;fill-opacity:1;fill-rule:nonzero;stroke:none"
             id="path436" />
        </g>
        <g
           id="g438"
           transform="translate(534.2119,1028.2349)">
          <path
             d="m 0,0 c 0.517,-2.789 0.167,-5.722 -0.573,-8.579 -0.407,-1.431 -0.946,-2.865 -1.844,-4.268 -0.886,-1.351 -2.252,-2.876 -4.531,-3.443 l -0.657,4.926 c 0.509,-0.148 1.463,0.172 2.339,0.919 0.886,0.734 1.704,1.752 2.414,2.857 C -1.476,-5.341 -0.313,-2.776 0,0"
             style="fill:#FFFFFF;fill-opacity:1;fill-rule:nonzero;stroke:none"
             id="path440" />
        </g>
        <g
           id="g442"
           transform="translate(541.0381,1000.1875)">
          <path
             d="m 0,0 c 2.004,-1.306 5.154,-1.845 8.142,-1.856 3.027,0.024 6.175,0.405 9.045,1.766 C 14.749,-2.167 11.646,-3.446 8.469,-4.319 5.251,-5.101 1.856,-5.659 -2.009,-4.548 Z"
             style="fill:#FFFFFF;fill-opacity:1;fill-rule:nonzero;stroke:none"
             id="path444" />
        </g>
        <g
           id="g446"
           transform="translate(542.5913,992.376)">
          <path
             d="m 0,0 c 1.742,-1.298 4.465,-2.105 7.109,-2.525 2.692,-0.394 5.502,-0.521 8.278,0.057 C 12.88,-3.831 10.017,-4.579 7.105,-5.011 4.166,-5.365 1.155,-5.55 -2.214,-4.45 Z"
             style="fill:#FFFFFF;fill-opacity:1;fill-rule:nonzero;stroke:none"
             id="path448" />
        </g>
        <g
           id="g450"
           transform="translate(541.2563,975.5547)">
          <path
             d="m 0,0 c 0.117,-0.619 0.512,-1.529 0.9,-2.273 0.411,-0.777 0.903,-1.524 1.471,-2.228 1.126,-1.427 2.621,-2.614 4.411,-3.461 -1.963,0.032 -4.043,0.52 -5.935,1.497 -0.954,0.479 -1.876,1.057 -2.742,1.726 -0.881,0.704 -1.647,1.344 -2.49,2.4 z"
             style="fill:#FFFFFF;fill-opacity:1;fill-rule:nonzero;stroke:none"
             id="path452" />
        </g>
        <g
           id="g454"
           transform="translate(511.0933,958.7861)">
          <path
             d="m 0,0 c -2.237,-3.972 -4.184,-8.01 -4.171,-12.783 -1.714,4.429 -1.318,9.702 -0.532,14.387 z"
             style="fill:#FFFFFF;fill-opacity:1;fill-rule:nonzero;stroke:none"
             id="path456" />
        </g>
        <g
           id="g458"
           transform="translate(519.041,959.1162)">
          <path
             d="m 0,0 c -0.991,-1.288 -1.762,-2.604 -2.204,-4.229 -0.446,-1.611 -0.565,-3.426 -0.575,-5.244 -0.791,1.638 -1.527,3.347 -1.909,5.289 -0.404,1.932 -0.296,4.123 0.102,6.099 z"
             style="fill:#FFFFFF;fill-opacity:1;fill-rule:nonzero;stroke:none"
             id="path460" />
        </g>
        <g
           id="g462"
           transform="translate(503.9541,960.2891)">
          <path
             d="m 0,0 c -1.613,-0.733 -3.094,-2.273 -4.125,-4.252 -1.017,-1.977 -1.713,-4.266 -2.002,-6.637 -0.535,2.342 -0.695,4.817 -0.374,7.368 0.35,2.528 1.335,5.246 3.463,7.455 z"
             style="fill:#FFFFFF;fill-opacity:1;fill-rule:nonzero;stroke:none"
             id="path464" />
        </g>
        <g
           id="g466"
           transform="translate(485.3003,978.3457)">
          <path
             d="m 0,0 c -1.662,-0.127 -3.31,-0.859 -4.875,-2.201 -1.565,-1.311 -3.035,-3.01 -4.673,-4.429 0.989,1.935 1.657,3.939 2.724,5.972 1.025,2.024 2.796,4.109 5.194,5.35 z"
             style="fill:#FFFFFF;fill-opacity:1;fill-rule:nonzero;stroke:none"
             id="path468" />
        </g>
        <g
           id="g470"
           transform="translate(483.8105,986.2705)">
          <path
             d="m 0,0 c -3.785,0.007 -8.044,-2.34 -11.271,-5.578 1.958,4.151 5.003,8.291 10.193,10.429 z"
             style="fill:#FFFFFF;fill-opacity:1;fill-rule:nonzero;stroke:none"
             id="path472" />
        </g>
        <g
           id="g474"
           transform="translate(492.9736,994.7617)">
          <path
             d="m 0,0 c 0.068,1.315 -0.335,2.533 0.102,4.071 0.619,1.52 1.978,2.275 2.846,3.075 1.847,1.733 3.655,3.332 5.063,5.456 0.902,1.193 2.36,2.159 3.811,2.504 1.454,0.33 2.774,0.395 4.092,0.376 1.339,-0.027 2.735,-0.061 4.118,-0.609 1.291,-0.634 2.155,-1.527 3.499,-1.653 -1.334,-0.468 -2.738,0.354 -3.875,0.495 -1.112,0.211 -2.364,0.068 -3.594,-0.138 C 13.453,13.157 11.172,12.88 9.969,11.07 8.445,8.896 6.299,7.037 4.062,5.605 2.878,4.899 1.75,4.423 1.197,3.553 0.548,2.687 0.589,1.188 0,0"
             style="fill:#FFFFFF;fill-opacity:1;fill-rule:nonzero;stroke:none"
             id="path476" />
        </g>
        <g
           id="g478"
           transform="translate(496.9775,978.2656)">
          <path
             d="m 0,0 c 2.157,-0.866 3.213,-3.116 4.485,-4.664 1.247,-1.572 2.652,-2.587 4.573,-3.228 1.988,-0.738 3.91,-1.521 5.815,-1.921 1.019,-0.207 2.012,-0.37 2.871,-0.185 0.388,0.019 0.904,0.391 1.565,0.464 0.66,0.09 1.126,-0.204 1.671,-0.168 -0.487,-0.296 -1.125,-0.257 -1.504,-0.468 -0.4,-0.181 -0.674,-0.619 -1.298,-0.966 -1.169,-0.553 -2.383,-0.553 -3.478,-0.583 -2.375,0.005 -4.484,0.813 -6.512,1.502 -2.146,0.721 -4.344,2.42 -5.315,4.543 l -1.33,2.958 C 1.131,-1.743 0.787,-0.724 0,0"
             style="fill:#FFFFFF;fill-opacity:1;fill-rule:nonzero;stroke:none"
             id="path480" />
        </g>
        <g
           id="g482"
           transform="translate(496.3613,995.3203)">
          <path
             d="m 0,0 c 0.487,-1.433 -0.175,-2.902 -0.398,-4.189 -0.262,-1.272 -0.197,-2.413 0.35,-3.621 0.434,-1.308 0.89,-2.582 1.516,-3.681 0.33,-0.589 0.67,-1.145 1.126,-1.492 l 0.89,-0.573 0.629,-0.898 -0.871,0.544 -1.024,0.23 c -0.769,0.342 -1.284,0.942 -1.762,1.468 -0.99,1.183 -1.456,2.57 -2.021,3.847 -0.506,1.373 -0.634,3.157 -0.015,4.542 C -1.065,-2.471 -0.187,-1.362 0,0"
             style="fill:#FFFFFF;fill-opacity:1;fill-rule:nonzero;stroke:none"
             id="path484" />
        </g>
        <g
           id="g486"
           transform="translate(512.2241,975.6201)">
          <path
             d="M 0,0 C 1.332,0.719 2.893,0.309 4.195,0.299 5.497,0.25 6.61,0.5 7.712,1.237 c 1.216,0.646 2.399,1.306 3.38,2.103 0.527,0.424 1.019,0.85 1.286,1.358 l 0.42,0.974 0.782,0.764 -0.393,-0.947 C 13.109,5.216 13.215,4.895 13.128,4.441 12.917,3.626 12.412,3.02 11.971,2.461 10.966,1.291 9.675,0.602 8.508,-0.165 7.236,-0.891 5.499,-1.311 4.03,-0.927 2.613,-0.643 1.376,0.041 0,0"
             style="fill:#FFFFFF;fill-opacity:1;fill-rule:nonzero;stroke:none"
             id="path488" />
        </g>
        <g
           id="g490"
           transform="translate(527.1841,975.9629)">
          <path
             d="m 0,0 c 1.478,1.388 1.956,3.203 3.084,4.993 0.479,1.015 1.74,1.77 2.097,2.245 l 0.275,0.621 c 0.031,0.335 0.009,0.789 -0.02,1.272 -0.104,2.31 0.597,4.135 0.714,5.901 0.167,1.739 -0.462,3.604 -0.935,5.584 C 6.569,19.144 7.78,17.362 8.062,15.105 8.377,12.911 7.731,10.878 7.916,9.23 7.924,8.728 7.945,8.192 7.86,7.549 7.826,6.911 7.329,5.935 6.841,5.581 5.785,4.687 5.203,4.525 4.599,3.841 3.356,2.553 2.092,0.521 0,0"
             style="fill:#FFFFFF;fill-opacity:1;fill-rule:nonzero;stroke:none"
             id="path492" />
        </g>
        <g
           id="g494"
           transform="translate(516.9902,1011.3765)">
          <path
             d="m 0,0 c 1.422,0.182 2.841,0.323 4.329,0.061 1.487,-0.216 2.934,-0.898 4.154,-1.866 2.434,-2.017 3.54,-5.15 3.281,-8.02 -0.878,1.194 -1.502,2.385 -2.32,3.4 -0.798,1.014 -1.575,1.967 -2.535,2.701 -0.915,0.79 -1.981,1.37 -3.133,1.965 C 2.621,-1.176 1.262,-0.828 0,0"
             style="fill:#FFFFFF;fill-opacity:1;fill-rule:nonzero;stroke:none"
             id="path496" />
        </g>
        <g
           id="g498"
           transform="translate(519.8071,988.6299)">
          <path
             d="m 0,0 c -0.234,-0.777 -0.483,-1.495 -0.997,-2.196 l -0.745,-0.755 -0.718,-0.558 -1.052,-0.27 c -0.47,0.238 -0.889,0.289 -1.43,0.362 -0.462,0.063 -0.516,0.274 -0.695,0.652 l -0.327,0.445 c -0.139,0.201 -0.265,1.446 -0.197,1.904 0.104,0.681 0.595,1.786 1.307,2.294 l 0.728,0.252 0.683,0.209 0.791,0.162 0.941,0.353 C -0.924,2.957 -0.737,2.415 -0.531,1.868 -0.311,1.283 0.238,0.788 0,0 m -7.351,9.611 c -1.457,0.129 -2.92,-0.179 -3.916,-1.157 -1.014,-0.835 -1.473,-2.638 -3.019,-3.492 -1.565,-0.489 -1.378,-2.247 -0.902,-3.684 -0.478,0.627 -0.668,1.417 -0.789,2.214 -0.202,0.914 0.685,1.747 1.264,2.099 1.202,0.783 1.527,2.329 2.774,3.591 1.281,1.16 3.124,1.502 4.686,1.186 1.592,-0.278 3.004,-0.994 4.315,-1.812 -1.463,0.488 -2.946,0.931 -4.413,1.055 M 4.703,2.071 c -0.029,2.891 -1.065,5.29 -2.317,7.828 -1.266,2.576 -4.607,2.811 -7.004,3.93 -2.232,1.044 -4.38,2.123 -6.969,0.289 -1.044,-0.741 -1.965,-1.626 -2.485,-2.8 -0.633,-1.438 -1.312,-1.236 -2.436,-2.001 -0.726,-0.494 -1.172,-1.373 -1.924,-1.907 -0.935,-0.657 -1.529,-1.084 -1.985,-2.113 -1.218,-2.762 -0.013,-6.683 1.453,-8.699 0.988,-1.357 4.831,-4.429 5.872,-4.689 0.814,-0.204 1.621,-0.232 2.405,-0.536 1.68,-0.655 2.446,-1.111 4.3,-0.367 2.172,0.874 3.84,1.57 6.2,1.874 1.631,0.209 2.291,1.294 3.102,2.795 0.674,1.255 0.276,1.68 1.118,2.91 0.796,1.17 0.684,2.058 0.67,3.486"
             style="fill:#FFFFFF;fill-opacity:1;fill-rule:nonzero;stroke:none"
             id="path500" />
        </g>
      </g>
    </g>
  </g>
</svg>
