<svg id="visual" viewBox="0 0 960 540" width="960" height="540" xmlns="http://www.w3.org/2000/svg" xmlns:xlink="http://www.w3.org/1999/xlink" version="1.1"><rect x="0" y="0" width="960" height="540" fill="#FFF"></rect><path d="M0 37L10 35.5C20 34 40 31 60 29.3C80 27.7 100 27.3 120 25C140 22.7 160 18.3 180 19C200 19.7 220 25.3 240 27.2C260 29 280 27 300 25.2C320 23.3 340 21.7 360 21C380 20.3 400 20.7 420 21.5C440 22.3 460 23.7 480 23.7C500 23.7 520 22.3 540 24.7C560 27 580 33 600 34.2C620 35.3 640 31.7 660 31.3C680 31 700 34 720 31.8C740 29.7 760 22.3 780 22.5C800 22.7 820 30.3 840 32.2C860 34 880 30 900 26.3C920 22.7 940 19.3 950 17.7L960 16L960 0L950 0C940 0 920 0 900 0C880 0 860 0 840 0C820 0 800 0 780 0C760 0 740 0 720 0C700 0 680 0 660 0C640 0 620 0 600 0C580 0 560 0 540 0C520 0 500 0 480 0C460 0 440 0 420 0C400 0 380 0 360 0C340 0 320 0 300 0C280 0 260 0 240 0C220 0 200 0 180 0C160 0 140 0 120 0C100 0 80 0 60 0C40 0 20 0 10 0L0 0Z" fill="#B9DABD"></path></svg>