<?xml version="1.0" standalone="no"?>
<!DOCTYPE svg PUBLIC "-//W3C//DTD SVG 20010904//EN"
 "http://www.w3.org/TR/2001/REC-SVG-20010904/DTD/svg10.dtd">
<svg version="1.0" xmlns="http://www.w3.org/2000/svg"
 width="1178.000000pt" height="1178.000000pt" viewBox="0 0 1178.000000 1178.000000"
 preserveAspectRatio="xMidYMid meet">

<g transform="translate(0.000000,1178.000000) scale(0.100000,-0.100000)"
fill="#1a3620" stroke="none">
<path d="M5413 11390 c-110 -20 -238 -86 -311 -161 -103 -105 -276 -422 -354
-649 -54 -159 -117 -445 -118 -532 0 -21 -3 -38 -7 -38 -5 1 -35 38 -68 83
-81 111 -296 324 -430 428 -172 133 -420 272 -540 303 -81 22 -215 20 -297 -3
-180 -49 -326 -195 -382 -381 -53 -175 -37 -596 35 -874 27 -106 95 -306 130
-383 15 -35 26 -63 25 -63 -2 0 -28 11 -59 25 -92 40 -345 122 -452 145 -162
34 -309 50 -481 51 -245 0 -346 -21 -469 -96 -139 -86 -229 -222 -257 -390
-26 -154 26 -322 174 -559 154 -247 328 -442 555 -621 56 -44 100 -81 99 -82
-1 -1 -51 -9 -111 -18 -353 -51 -698 -181 -972 -364 -67 -45 -140 -102 -162
-128 -49 -58 -106 -168 -126 -243 -19 -71 -19 -190 0 -260 22 -82 79 -191 131
-249 98 -109 445 -303 677 -380 165 -54 225 -69 411 -100 l160 -27 -35 -24
c-384 -267 -777 -806 -806 -1105 -16 -176 73 -382 211 -486 124 -94 213 -119
444 -126 199 -7 357 6 537 44 121 25 370 104 472 148 31 14 57 25 59 25 1 0
-10 -29 -26 -64 -62 -137 -134 -380 -164 -557 -40 -232 -40 -564 0 -699 53
-183 202 -328 393 -384 70 -20 209 -21 286 0 68 17 240 102 360 177 237 148
479 376 662 622 l22 30 1 -36 c0 -44 34 -238 61 -344 57 -230 172 -497 297
-694 82 -128 119 -170 199 -224 197 -135 436 -135 637 -2 75 50 107 84 180
195 148 226 247 449 312 704 30 119 64 298 64 343 0 17 3 34 8 36 4 3 50 -49
102 -115 196 -248 481 -479 767 -622 132 -66 171 -78 280 -83 179 -10 306 39
433 167 120 121 156 228 166 495 13 327 -53 651 -211 1037 -7 17 -5 17 31 2
153 -65 355 -130 496 -160 193 -41 513 -57 685 -33 198 26 349 129 435 295 51
99 63 154 62 274 -1 87 -5 116 -26 170 -121 312 -384 659 -678 896 -41 33 -88
69 -104 79 l-29 19 159 27 c272 46 445 100 669 209 417 202 565 373 565 650 0
144 -50 275 -145 378 -54 59 -201 162 -335 234 -227 122 -518 216 -784 254
-124 17 -128 18 -106 33 48 32 197 156 263 220 224 216 434 520 524 759 88
235 -13 526 -227 657 -122 74 -226 95 -473 95 -302 0 -561 -50 -854 -166 -73
-28 -133 -50 -133 -48 0 3 11 30 24 62 140 340 205 677 192 993 -10 249 -56
380 -175 500 -65 64 -189 131 -278 149 -81 17 -234 7 -301 -19 -220 -88 -485
-262 -690 -456 -75 -70 -213 -230 -271 -313 -26 -38 -41 -34 -41 11 -1 88 -67
378 -125 548 -79 226 -268 557 -372 649 -128 113 -312 168 -470 140z m178
-302 c57 -16 114 -70 173 -162 226 -350 326 -698 343 -1191 l6 -180 -53 -105
c-110 -219 -294 -638 -467 -1065 -47 -115 -86 -211 -87 -212 -1 -2 -33 75 -71
170 -150 378 -365 868 -486 1109 l-52 103 6 180 c17 489 119 844 343 1191 56
88 111 141 165 160 44 16 131 17 180 2z m-1980 -589 c368 -178 697 -506 956
-954 l41 -70 11 -165 c22 -308 79 -799 145 -1242 7 -49 11 -88 9 -88 -3 0
-102 76 -221 168 -366 285 -663 503 -880 647 -96 64 -106 74 -151 149 -180
303 -285 588 -332 901 -9 54 -14 170 -14 290 1 188 2 203 24 253 28 61 93 124
154 146 74 27 150 17 258 -35z m4068 22 c66 -34 118 -87 136 -139 26 -73 32
-373 10 -522 -41 -284 -126 -532 -278 -815 -97 -181 -96 -180 -170 -226 -166
-102 -816 -583 -1126 -833 -12 -9 -13 -3 -7 39 3 28 24 183 46 345 47 348 84
689 101 925 13 192 13 190 120 361 189 301 439 565 690 727 86 55 222 127 289
153 47 19 137 11 189 -15z m-5287 -1496 c220 -33 423 -99 658 -211 213 -103
303 -158 328 -203 62 -110 468 -666 735 -1006 69 -88 125 -161 123 -162 -1 -2
-79 8 -172 22 -427 63 -859 111 -1197 134 l-128 9 -121 73 c-424 256 -731 572
-901 927 -34 71 -42 100 -45 158 -4 79 6 109 65 182 46 56 98 81 191 92 101
12 337 4 464 -15z m6674 16 c104 -10 155 -32 202 -86 54 -61 75 -113 75 -183
0 -55 -7 -76 -52 -169 -181 -372 -512 -706 -941 -948 -84 -48 -85 -48 -210
-56 -303 -21 -898 -88 -1234 -140 -71 -11 -130 -18 -131 -17 -2 2 33 48 77
103 242 306 579 762 735 995 77 116 89 125 253 213 425 226 844 325 1226 288z
m-3071 -641 c-68 -500 -78 -562 -95 -557 -8 3 -51 14 -94 26 -44 11 -81 23
-84 25 -2 3 39 112 91 243 131 326 209 514 212 511 2 -2 -12 -113 -30 -248z
m-829 -184 c69 -169 123 -313 122 -318 -2 -6 -35 -19 -73 -29 -39 -11 -80 -22
-92 -25 -15 -4 -23 -1 -27 13 -7 24 -94 641 -101 723 l-6 65 26 -60 c15 -33
83 -199 151 -369z m-636 -427 l205 -164 -71 -67 c-39 -38 -73 -68 -76 -68 -11
0 -498 622 -498 635 0 8 204 -148 440 -336z m2318 234 c-133 -174 -256 -331
-343 -440 l-82 -101 -72 72 -72 73 48 40 c128 105 591 463 600 463 2 0 -33
-48 -79 -107z m-1198 -428 c293 -45 542 -236 675 -517 59 -125 70 -183 70
-368 0 -185 -11 -243 -70 -368 -96 -203 -238 -347 -436 -442 -135 -64 -220
-82 -384 -82 -171 0 -254 19 -401 92 -252 126 -426 356 -483 638 -14 68 -14
256 0 324 55 274 225 504 466 630 183 96 357 125 563 93z m-2770 -384 c241
-116 556 -253 909 -396 212 -86 251 -104 235 -113 -11 -6 -78 -34 -149 -62
-402 -160 -830 -347 -1065 -465 l-130 -65 -167 0 c-459 0 -876 115 -1215 333
-137 89 -181 153 -181 267 0 113 37 169 172 260 157 105 342 189 542 245 237
67 413 92 674 94 l170 1 205 -99z m5882 88 c381 -39 736 -166 1011 -362 83
-60 120 -127 121 -221 1 -119 -40 -179 -181 -272 -336 -219 -758 -334 -1223
-334 l-149 0 -148 71 c-295 142 -590 270 -1018 444 -104 42 -194 80 -199 83
-5 3 13 14 40 24 352 138 899 373 1174 506 l145 70 162 1 c89 1 209 -4 265
-10z m-4802 -120 c456 -65 422 -58 413 -83 -4 -11 -16 -56 -28 -98 l-20 -77
-250 98 c-138 55 -308 124 -380 155 l-130 57 60 -6 c33 -4 184 -24 335 -46z
m3479 47 c-6 -6 -746 -306 -754 -306 -3 0 -5 8 -5 19 0 10 -10 55 -23 99 l-23
80 75 12 c83 12 427 62 586 84 106 15 151 19 144 12z m-3087 -824 c14 -53 25
-98 24 -99 -5 -5 -780 -114 -794 -111 -10 2 8 13 38 25 30 12 199 81 375 152
176 72 322 130 325 130 3 1 17 -43 32 -97z m2450 54 c161 -62 632 -257 638
-263 7 -7 -40 -1 -448 58 -188 27 -347 49 -351 49 -5 0 2 37 15 82 13 45 24
90 24 100 0 10 2 18 5 18 2 0 55 -20 117 -44z m-2569 -488 c-6 -7 -59 -76
-119 -153 -286 -365 -619 -819 -714 -972 -38 -61 -54 -77 -119 -116 -261 -157
-593 -284 -851 -327 -219 -36 -539 -31 -618 9 -42 22 -98 83 -127 140 -30 60
-18 159 32 263 105 219 285 450 496 636 111 97 188 155 327 243 170 107 217
129 280 129 159 0 1051 100 1335 149 76 13 89 13 78 -1z m2647 -3 c286 -47
1016 -129 1245 -141 150 -8 153 -9 335 -126 163 -104 252 -173 382 -291 131
-120 162 -153 243 -262 91 -120 158 -229 211 -337 40 -84 47 -107 47 -160 0
-70 -21 -122 -75 -183 -52 -60 -95 -76 -234 -85 -381 -27 -765 63 -1172 276
-185 97 -196 106 -275 224 -163 244 -593 824 -784 1057 -19 23 -31 43 -27 43
5 0 52 -7 104 -15z m-204 -345 c208 -267 256 -332 238 -322 -20 11 -447 342
-567 440 l-68 55 72 73 72 72 82 -101 c44 -56 122 -154 171 -217z m-2012 241
l68 -68 -74 -60 c-76 -62 -395 -312 -507 -398 -36 -27 -61 -42 -56 -34 35 59
482 629 494 629 3 0 37 -31 75 -69z m551 -310 c38 -10 71 -23 73 -29 3 -9
-203 -529 -273 -687 l-26 -60 6 65 c7 78 94 709 101 729 3 8 12 11 27 7 12 -3
53 -14 92 -25z m698 21 c3 -4 26 -153 51 -332 64 -454 65 -464 62 -467 -9 -10
-309 745 -301 758 4 5 14 9 23 9 9 0 44 9 77 19 69 22 82 24 88 13z m-1149
-219 c-66 -446 -123 -938 -144 -1243 l-12 -165 -50 -85 c-274 -459 -567 -750
-940 -930 -59 -29 -127 -55 -151 -57 -106 -12 -222 57 -268 159 -22 50 -23 65
-24 253 0 219 11 314 56 496 45 181 93 310 189 504 131 263 125 256 286 365
256 172 528 374 874 644 102 80 188 145 191 145 3 1 0 -38 -7 -86z m1747 -121
c294 -227 556 -420 774 -567 88 -60 165 -116 170 -124 37 -56 146 -264 187
-356 145 -324 203 -600 196 -926 -4 -204 -12 -236 -71 -297 -59 -62 -112 -86
-191 -86 -66 -1 -79 3 -177 50 -363 177 -659 464 -918 893 l-78 128 -7 109
c-19 297 -62 692 -121 1114 -40 280 -40 276 -22 263 6 -6 123 -96 258 -201z
m-970 -64 c163 -412 402 -965 510 -1180 l59 -118 0 -103 c0 -493 -120 -940
-341 -1268 -91 -137 -154 -179 -264 -179 -110 0 -175 44 -261 178 -218 337
-321 699 -340 1197 l-6 170 72 145 c102 205 288 628 421 957 63 155 115 283
115 283 1 0 16 -37 35 -82z"/>
</g>
</svg>
