<?xml version="1.0" encoding="UTF-8" standalone="no"?>
<!DOCTYPE svg PUBLIC "-//W3C//DTD SVG 1.1//EN" "http://www.w3.org/Graphics/SVG/1.1/DTD/svg11.dtd">
<svg width="100%" height="100%" viewBox="0 0 590 574" version="1.1" xmlns="http://www.w3.org/2000/svg" xmlns:xlink="http://www.w3.org/1999/xlink" xml:space="preserve" xmlns:serif="http://www.serif.com/" style="fill-rule:evenodd;clip-rule:evenodd;stroke-linecap:round;stroke-linejoin:round;stroke-miterlimit:1.5;">
    <g transform="matrix(1,0,0,1,-1488.76,-669.509)">
        <g transform="matrix(0.981798,-0.189929,0.189929,0.981798,917.145,188.115)">
            <path d="M891.041,1143.99C888.807,1146.28 886.248,1148.55 883.497,1150.65C870.268,1160.83 857.398,1166.93 844.169,1169.13C830.943,1171.33 817.208,1169.49 801.602,1162.69C783.011,1154.31 766.66,1147.1 749.251,1144.46C731.554,1141.83 713.117,1144.33 692.458,1153.91C679.16,1160.18 667.14,1165.93 655.284,1169.37C643.445,1173.08 631.633,1174.62 617.468,1172.95L617.607,1172.8C601.539,1170.81 586.602,1162.95 573.94,1151.61C565.096,1143.7 557.466,1134.12 551.27,1124.17C544.579,1113.23 542.814,1096.78 541.125,1079.04C539.294,1061.43 537.682,1042.37 525.791,1026.51C524.401,1024.99 523.019,1023.47 521.491,1022.1C514.016,1015.41 504.02,1010.32 493.226,1003.97C482.299,997.768 470.88,990.575 460.968,981.704C457.156,978.293 453.48,974.729 450.214,970.702C441.672,960.306 431.602,940.561 429.659,918.182C427.427,895.814 432.607,871.003 453.795,847.021L454.065,846.719L453.685,846.372C454.577,845.314 455.629,843.354 456.732,840.836L585.399,930.646C568.322,940.149 557.692,955.273 550.542,970.433C561.607,959.33 575.583,950.742 588.975,948.064C589.949,953.036 591.01,958.131 592.53,963.261C584.748,968.478 578.897,975.806 575.278,982.953C570.833,991.423 568.049,999.773 563.928,1007.84C570.753,1001.92 576.878,994.844 583.399,989.382C588.762,984.783 594.359,981.903 600.03,980.731C601.255,982.779 602.623,984.816 604.158,986.835C610.499,995.06 617.533,1002.16 621.674,1008.74C624.928,1013.41 627.233,1023.12 634.22,1032.07C641.337,1040.75 650.808,1046.29 660.162,1050.77C660.219,1050.79 660.276,1050.82 660.333,1050.85C657.068,1057.13 655.227,1063.77 654.348,1070.12C653.011,1080.75 653.678,1091.06 655.907,1100.82C657.111,1090.94 660.011,1081.4 664.248,1073.16C667.591,1066.75 672.07,1061.44 677.06,1057.96C680.396,1059.3 683.546,1060.57 686.383,1061.83C687.699,1062.42 689.014,1062.93 690.323,1063.38C688.022,1080.65 687.665,1099.11 693.803,1114.97C693.754,1096.86 700.477,1081.29 708.718,1066.15C714.033,1066.08 718.981,1065.53 723.727,1065C723.609,1069.36 723.915,1073.7 724.765,1077.77C726.356,1085.86 729.423,1092.98 732.719,1099.81C732.761,1092.23 733.256,1084.67 735.115,1077.95C736.553,1072.67 738.827,1068.17 741.72,1063.89C746.004,1063.72 749.702,1063.18 753.312,1061.93C757.576,1060.44 760.829,1058.45 764.967,1055.99L891.041,1143.99Z" style="fill:white;"/>
            <path d="M925.636,1011.28C918.627,1023.83 916.617,1036.87 915.92,1047.83C915.382,1053.95 915.392,1059.47 915.34,1063.82L915.203,1063.97C914.303,1079.41 913.219,1094.13 910.025,1107.51C906.682,1120.76 901.513,1132.37 892.757,1142.15C892.21,1142.76 891.637,1143.37 891.041,1143.99L764.967,1055.99C765.289,1055.79 765.616,1055.6 765.949,1055.4C772.187,1051.69 778.537,1048.14 785.028,1044.23C799.066,1035.81 809.358,1026.48 819.978,1014.17C821.584,1012.27 823.328,1010.37 825.146,1008.42C826.382,1009.51 827.643,1010.53 828.966,1011.59C832.574,1014.37 836.416,1016.78 840.391,1018.78C848.274,1022.85 856.941,1024.88 865.12,1025.02C857.662,1021.49 851.433,1016.54 846.741,1010.59C844.374,1007.66 842.324,1004.55 840.612,1001.31C839.49,999.159 838.354,996.675 837.601,994.493C841.655,989.369 845.398,983.612 848.158,976.798C851.299,968.777 852.191,960.369 852.203,952.29C852.202,949.375 852.081,946.493 851.882,943.679C858.806,944.01 865.46,943.422 872.028,942.63C884.162,940.83 896.091,937.714 906.537,932.035C894.97,934.443 883.262,933.914 872.045,932.272C864.288,931.04 856.369,929.008 849.827,926.026C849.09,920.839 848.33,915.761 847.311,910.747C855.68,910.617 863.58,909.061 871.24,907.199C884.478,903.562 897.407,898.233 907.565,889.578C895.607,895.249 882.49,896.837 869.878,896.937C860.06,896.901 849.824,895.497 841.839,892.236C839.441,886.429 836.271,880.635 831.941,874.785C823.828,863.798 815.424,850.502 804.949,839.073C801.7,835.582 798.247,832.48 794.642,829.702C795.688,828.423 796.614,827.127 797.439,825.868C801.181,820.023 803.427,814.048 805.123,808.085C808.206,796.181 809.664,783.96 807.51,772.339C806.206,783.906 801.36,794.593 795.627,803.956C792.668,808.56 789.26,812.802 785.568,815.86C783.161,817.913 780.612,819.192 778.547,819.648C775.872,818.29 773.162,817.04 770.433,815.875C772.017,804.198 770.937,792.876 769.067,782.23C766.379,767.497 761.817,753.643 756.975,739.997C758.471,754.393 759.567,768.863 758.733,782.884C758.189,792.257 756.686,801.539 753.789,809.697C745.431,806.945 737.219,804.607 729.633,802.09C720.824,799.215 713.108,798.027 705.524,798.044C699.203,798.048 693.108,798.794 686.158,799.731C678.824,800.706 672.749,802.256 667.195,805.244C665.092,806.375 663.151,807.644 661.271,809.054C657.798,804.278 653.909,799.992 649.799,796.063C641.678,788.458 632.458,782.229 622.549,778.408C635.756,789.703 644.929,805.296 648.479,820.43C644.717,823.673 640.712,826.582 636.401,829.682C628.711,823.405 620.928,817.368 611.77,812.024C599.808,805.858 587.949,800.87 575.928,795.708C586.02,803.845 596.328,812.108 605.533,820.703C611.404,826.586 616.95,833.644 622.253,840.837C618.928,844.119 616.707,846.893 614.566,848.417C609.481,845.547 604.106,843.661 598.952,842.55C589.019,840.367 579.415,840.338 569.994,840.729C578.923,843.725 587.706,847.25 595.006,852.125C598.571,854.47 601.664,857.163 604.144,860.075C601.288,864.501 598.333,869.757 595.495,875.248C591.099,883.981 587.308,892.302 585.92,899.477C585.062,904.315 584.724,909.248 584.724,914.156C584.727,919.666 585.153,925.154 585.836,930.405C585.69,930.485 585.544,930.565 585.399,930.646L456.732,840.836C460.885,831.36 465.767,813.979 465.609,806.989L466.106,806.984L466.106,806.58C466.311,774.643 478.998,752.743 495.581,737.593C511.956,722.243 532.631,714.259 545.931,712.213C551.052,711.393 556.169,711.188 561.286,711.188C574.59,711.188 587.898,713.438 600.177,716.101C612.461,718.559 623.306,721.426 633.34,721.426C635.39,721.426 637.431,721.218 639.481,721.013C658.927,717.126 672.844,704.022 685.948,692.151C699.044,680.076 711.327,669.022 723.611,665.338C734.869,662.059 746.944,660.013 758.815,660.013C775.811,660.013 792.186,664.109 805.49,673.322L805.49,673.113C817.156,681.305 824.936,690.309 831.281,700.951C837.831,711.393 842.948,723.676 848.681,737.184C857.686,758.063 869.765,772.188 884.706,782.013C899.444,791.634 916.436,797.159 935.881,803.301C952.052,808.626 963.515,816.401 971.906,826.838C980.298,837.28 985.823,850.38 988.894,866.755C989.715,871.055 990.123,875.355 990.123,879.243C990.123,892.347 986.231,904.422 979.89,916.497C973.344,928.576 964.336,940.243 954.711,952.322L954.711,952.526C951.848,955.797 948.161,959.893 944.477,964.805C936.086,975.451 927.081,989.776 925.852,1008.82L926.354,1008.85C926.207,1009.51 925.931,1010.39 925.636,1011.28Z" style="fill:white;"/>
            <g transform="matrix(4.16667,0,0,4.16667,1010.8,769.73)">
                <path d="M0,26.283C0,30.459 -1.229,34.192 -3.046,37.583C-3.292,38.024 -3.488,38.418 -3.782,38.81C-5.453,41.709 -7.516,44.411 -9.58,46.966L-9.629,46.966C-11.643,49.373 -14.247,52.221 -15.082,55.808L-17.292,57.577L-20.387,57.381C-20.092,52.811 -17.931,49.373 -15.917,46.818C-15.033,45.639 -14.148,44.656 -13.461,43.871L-13.461,43.822C-11.151,40.923 -8.989,38.123 -7.418,35.224C-5.896,32.326 -4.962,29.428 -4.962,26.283C-4.962,25.35 -5.06,24.318 -5.257,23.286C-5.994,19.356 -7.32,16.212 -9.334,13.706C-11.348,11.201 -14.099,9.335 -17.98,8.057C-22.647,6.583 -26.725,5.257 -30.262,2.948C-33.848,0.59 -36.747,-2.8 -38.908,-7.811C-40.284,-11.053 -41.512,-14.001 -43.084,-16.507C-44.607,-19.061 -46.474,-21.222 -49.274,-23.188L-49.274,-23.138C-52.467,-25.349 -56.397,-26.332 -60.476,-26.332C-63.325,-26.332 -66.223,-25.841 -68.925,-25.054C-71.873,-24.17 -74.821,-21.517 -77.964,-18.619C-81.109,-15.77 -84.449,-12.625 -89.116,-11.692C-89.608,-11.643 -90.098,-11.593 -90.59,-11.593C-92.998,-11.593 -95.601,-12.281 -98.549,-12.871C-101.496,-13.51 -104.69,-14.05 -107.883,-14.05C-109.111,-14.05 -110.339,-14.001 -111.568,-13.804C-114.76,-13.313 -119.722,-11.397 -123.652,-7.713C-127.632,-4.077 -130.677,1.179 -130.726,8.844L-130.726,8.941L-135.688,8.991L-135.688,8.844C-135.688,-0.245 -131.856,-6.976 -127.042,-11.397C-122.178,-15.819 -116.529,-18.078 -112.304,-18.717C-110.781,-18.963 -109.356,-19.061 -107.883,-19.061C-104.1,-19.061 -100.563,-18.373 -97.516,-17.735C-94.521,-17.096 -91.966,-16.555 -90.59,-16.555L-90,-16.604L-89.952,-16.604C-87.25,-17.096 -84.449,-19.405 -81.354,-22.255C-78.21,-25.104 -74.918,-28.395 -70.35,-29.82C-67.206,-30.753 -63.865,-31.294 -60.476,-31.294C-55.612,-31.294 -50.65,-30.114 -46.474,-27.265L-46.425,-27.265C-43.035,-24.906 -40.628,-22.107 -38.81,-19.11C-36.993,-16.113 -35.715,-12.969 -34.34,-9.776C-32.472,-5.453 -30.311,-3.095 -27.56,-1.228C-24.76,0.638 -21.125,1.867 -16.506,3.341L-16.457,3.341C-11.839,4.815 -8.106,7.271 -5.453,10.562C-2.8,13.854 -1.179,17.883 -0.344,22.353C-0.098,23.679 0,25.006 0,26.283" style="fill:rgb(26,54,32);fill-rule:nonzero;"/>
            </g>
            <g transform="matrix(4.16667,0,0,4.16667,1010.8,769.73)">
                <path d="M0,26.283C0,30.459 -1.229,34.192 -3.046,37.583C-3.292,38.024 -3.488,38.418 -3.782,38.81C-5.453,41.709 -7.516,44.411 -9.58,46.966L-9.629,46.966C-11.643,49.373 -14.247,52.221 -15.082,55.808L-17.292,57.577L-20.387,57.381C-20.092,52.811 -17.931,49.373 -15.917,46.818C-15.033,45.639 -14.148,44.656 -13.461,43.871L-13.461,43.822C-11.151,40.923 -8.989,38.123 -7.418,35.224C-5.896,32.326 -4.962,29.428 -4.962,26.283C-4.962,25.35 -5.06,24.318 -5.257,23.286C-5.994,19.356 -7.32,16.212 -9.334,13.706C-11.348,11.201 -14.099,9.335 -17.98,8.057C-22.647,6.583 -26.725,5.257 -30.262,2.948C-33.848,0.59 -36.747,-2.8 -38.908,-7.811C-40.284,-11.053 -41.512,-14.001 -43.084,-16.507C-44.607,-19.061 -46.474,-21.222 -49.274,-23.188L-49.274,-23.138C-52.467,-25.349 -56.397,-26.332 -60.476,-26.332C-63.325,-26.332 -66.223,-25.841 -68.925,-25.054C-71.873,-24.17 -74.821,-21.517 -77.964,-18.619C-81.109,-15.77 -84.449,-12.625 -89.116,-11.692C-89.608,-11.643 -90.098,-11.593 -90.59,-11.593C-92.998,-11.593 -95.601,-12.281 -98.549,-12.871C-101.496,-13.51 -104.69,-14.05 -107.883,-14.05C-109.111,-14.05 -110.339,-14.001 -111.568,-13.804C-114.76,-13.313 -119.722,-11.397 -123.652,-7.713C-127.632,-4.077 -130.677,1.179 -130.726,8.844L-130.726,8.941L-135.688,8.991L-135.688,8.844C-135.688,-0.245 -131.856,-6.976 -127.042,-11.397C-122.178,-15.819 -116.529,-18.078 -112.304,-18.717C-110.781,-18.963 -109.356,-19.061 -107.883,-19.061C-104.1,-19.061 -100.563,-18.373 -97.516,-17.735C-94.521,-17.096 -91.966,-16.555 -90.59,-16.555L-90,-16.604L-89.952,-16.604C-87.25,-17.096 -84.449,-19.405 -81.354,-22.255C-78.21,-25.104 -74.918,-28.395 -70.35,-29.82C-67.206,-30.753 -63.865,-31.294 -60.476,-31.294C-55.612,-31.294 -50.65,-30.114 -46.474,-27.265L-46.425,-27.265C-43.035,-24.906 -40.628,-22.107 -38.81,-19.11C-36.993,-16.113 -35.715,-12.969 -34.34,-9.776C-32.472,-5.453 -30.311,-3.095 -27.56,-1.228C-24.76,0.638 -21.125,1.867 -16.506,3.341L-16.457,3.341C-11.839,4.815 -8.106,7.271 -5.453,10.562C-2.8,13.854 -1.179,17.883 -0.344,22.353C-0.098,23.679 0,25.006 0,26.283" style="fill:rgb(26,54,32);fill-rule:nonzero;"/>
            </g>
            <g transform="matrix(3.10431,2.77808,2.78408,-3.11101,834.986,1237.7)">
                <path d="M0,26.283C0,30.459 -1.229,34.192 -3.046,37.583C-3.292,38.024 -3.488,38.418 -3.782,38.81C-5.453,41.709 -7.516,44.411 -9.58,46.966L-9.629,46.966C-11.643,49.373 -14.247,52.221 -15.082,55.808L-17.292,57.577L-20.387,57.381C-20.092,52.811 -17.931,49.373 -15.917,46.818C-15.033,45.639 -14.148,44.656 -13.461,43.871L-13.461,43.822C-11.151,40.923 -8.989,38.123 -7.418,35.224C-5.896,32.326 -4.962,29.428 -4.962,26.283C-4.962,25.35 -5.06,24.318 -5.257,23.286C-5.994,19.356 -7.32,16.212 -9.334,13.706C-11.348,11.201 -14.099,9.335 -17.98,8.057C-22.647,6.583 -26.725,5.257 -30.262,2.948C-33.848,0.59 -36.747,-2.8 -38.908,-7.811C-40.284,-11.053 -41.512,-14.001 -43.084,-16.507C-44.607,-19.061 -46.474,-21.222 -49.274,-23.188L-49.274,-23.138C-52.467,-25.349 -56.397,-26.332 -60.476,-26.332C-63.325,-26.332 -66.223,-25.841 -68.925,-25.054C-71.873,-24.17 -74.821,-21.517 -77.964,-18.619C-81.109,-15.77 -84.449,-12.625 -89.116,-11.692C-89.608,-11.643 -90.098,-11.593 -90.59,-11.593C-92.998,-11.593 -95.601,-12.281 -98.549,-12.871C-101.496,-13.51 -104.69,-14.05 -107.883,-14.05C-109.111,-14.05 -110.339,-14.001 -111.568,-13.804C-114.76,-13.313 -119.722,-11.397 -123.652,-7.713C-127.632,-4.077 -130.677,1.179 -130.726,8.844L-130.726,8.941L-135.688,8.991L-135.688,8.844C-135.688,-0.245 -131.856,-6.976 -127.042,-11.397C-122.178,-15.819 -116.529,-18.078 -112.304,-18.717C-110.781,-18.963 -109.356,-19.061 -107.883,-19.061C-104.1,-19.061 -100.563,-18.373 -97.516,-17.735C-94.521,-17.096 -91.966,-16.555 -90.59,-16.555L-90,-16.604L-89.952,-16.604C-87.25,-17.096 -84.449,-19.405 -81.354,-22.255C-78.21,-25.104 -74.918,-28.395 -70.35,-29.82C-67.206,-30.753 -63.865,-31.294 -60.476,-31.294C-55.612,-31.294 -50.65,-30.114 -46.474,-27.265L-46.425,-27.265C-43.035,-24.906 -40.628,-22.107 -38.81,-19.11C-36.993,-16.113 -35.715,-12.969 -34.34,-9.776C-32.472,-5.453 -30.311,-3.095 -27.56,-1.228C-24.76,0.638 -21.125,1.867 -16.506,3.341L-16.457,3.341C-11.839,4.815 -8.106,7.271 -5.453,10.562C-2.8,13.854 -1.179,17.883 -0.344,22.353C-0.098,23.679 0,25.006 0,26.283C0,26.283 -131.526,10.377 -136.183,9.813" style="fill:rgb(26,54,32);fill-rule:nonzero;"/>
            </g>
            <path d="M624.504,865.12C632.24,859.861 635.697,854.051 639.07,851.802C647.533,845.348 656.503,839.881 665.587,831.123C670.416,826.435 673.508,823.906 676.378,822.385C679.245,820.86 682.499,819.856 688.762,819.002C695.558,818.077 700.799,817.485 705.524,817.49C711.203,817.506 716.328,818.24 723.633,820.59C749.016,828.635 775.166,835.081 790.628,852.227C799.516,861.86 807.67,874.573 816.283,886.31C826.337,900.06 828.162,911.994 830.895,931.044C831.87,937.877 832.762,945.31 832.758,952.29C832.77,958.865 831.941,964.965 830.07,969.66C825.933,980.531 815.57,989.752 805.27,1001.45C795.387,1012.83 787.258,1020.15 774.995,1027.58C768.858,1031.27 762.533,1034.82 755.999,1038.7C751.233,1041.57 748.737,1042.98 746.974,1043.55C745.233,1044.14 743.191,1044.5 737.987,1044.52C725.937,1044.57 716.137,1046.79 708.074,1046.71C703.099,1046.7 698.833,1046.06 694.241,1044.04C685.887,1040.37 676.683,1037.09 668.499,1033.2C660.299,1029.34 653.353,1024.85 649.303,1019.79C645.753,1015.8 643.383,1007.05 638.066,998.285C632.216,989.206 624.791,981.885 619.608,975.027C611.616,964.652 609.662,952.623 606.628,937.027C605.195,929.852 604.166,921.731 604.166,914.156C604.166,910.156 604.453,906.315 605.062,902.89C605.483,899.777 609.845,889.348 614.537,880.806C616.883,876.444 619.333,872.315 621.362,869.285L623.916,865.773L624.504,865.12Z" style="fill:rgb(242,234,140);"/>
            <g transform="matrix(4.16667,0,0,4.16667,618.82,1006.97)">
                <path d="M0,-35.937L1.236,-33.958C3.183,-35.242 4.032,-36.688 4.86,-37.24C6.891,-38.789 9.044,-40.101 11.224,-42.203C12.383,-43.328 13.125,-43.935 13.814,-44.3C14.502,-44.666 15.283,-44.907 16.786,-45.112C18.417,-45.334 19.675,-45.476 20.809,-45.475C22.172,-45.471 23.402,-45.295 25.155,-44.731C31.247,-42.8 37.523,-41.253 41.234,-37.138C43.367,-34.826 45.324,-31.775 47.391,-28.958C49.804,-25.658 50.242,-22.794 50.898,-18.222C51.132,-16.582 51.346,-14.798 51.345,-13.123C51.348,-11.545 51.149,-10.081 50.7,-8.954C49.707,-6.345 47.22,-4.132 44.748,-1.325C42.376,1.406 40.425,3.163 37.482,4.946C36.009,5.832 34.491,6.683 32.923,7.615C31.779,8.304 31.18,8.642 30.757,8.779C30.339,8.922 29.849,9.008 28.6,9.011C25.708,9.024 23.356,9.557 21.421,9.539C20.227,9.536 19.203,9.381 18.101,8.898C16.096,8.017 13.887,7.23 11.923,6.295C9.955,5.368 8.288,4.291 7.316,3.078C6.464,2.12 5.895,0.02 4.619,-2.084C3.215,-4.263 1.433,-6.02 0.189,-7.666C-1.729,-10.156 -2.198,-13.043 -2.926,-16.786C-3.27,-18.508 -3.517,-20.457 -3.517,-22.275C-3.517,-23.235 -3.448,-24.157 -3.302,-24.979C-3.201,-25.726 -2.154,-28.229 -1.028,-30.279C-0.465,-31.326 0.123,-32.317 0.61,-33.044L1.223,-33.887L1.376,-34.057L1.263,-34.172L1.365,-34.05L1.376,-34.057L1.263,-34.172L1.365,-34.05L0.609,-34.962L1.236,-33.958L1.365,-34.05L0.609,-34.962L1.236,-33.958L0,-35.937L-1.237,-37.916C-1.809,-37.54 -2.058,-37.225 -2.375,-36.859C-3.385,-35.621 -4.526,-33.687 -5.598,-31.613C-6.653,-29.517 -7.563,-27.52 -7.896,-25.798C-8.102,-24.637 -8.183,-23.453 -8.183,-22.275C-8.182,-20.045 -7.892,-17.83 -7.504,-15.877C-6.792,-12.366 -6.293,-8.481 -3.519,-4.832C-1.997,-2.858 -0.309,-1.155 0.685,0.426C1.466,1.546 2.019,3.877 3.696,6.024C5.404,8.107 7.677,9.438 9.922,10.511C12.171,11.575 14.447,12.383 16.215,13.167C18.015,13.966 19.797,14.209 21.421,14.206C24.082,14.188 26.357,13.662 28.6,13.677C30.027,13.679 31.17,13.575 32.278,13.191C33.381,12.805 34.202,12.28 35.311,11.624C36.808,10.734 38.332,9.881 39.89,8.943C43.259,6.921 45.729,4.683 48.278,1.728C50.363,-0.737 53.414,-3.224 55.041,-7.241C55.795,-9.166 56.009,-11.184 56.012,-13.123C56.011,-15.181 55.761,-17.17 55.519,-18.879C54.889,-23.353 54.293,-27.476 51.149,-31.724C49.202,-34.361 47.185,-37.552 44.671,-40.295C39.556,-45.791 32.33,-47.268 26.595,-49.171C24.481,-49.861 22.629,-50.146 20.809,-50.142C19.292,-50.141 17.829,-49.962 16.161,-49.737C14.401,-49.503 12.943,-49.131 11.61,-48.414C10.277,-47.697 9.216,-46.75 7.979,-45.556C6.252,-43.876 4.314,-42.675 2.043,-40.96C0.344,-39.602 -0.428,-38.354 -1.238,-37.916L0,-35.937Z" style="fill:rgb(26,54,32);fill-rule:nonzero;"/>
            </g>
            <g transform="matrix(4.16667,0,0,4.16667,569.994,869.5)">
                <path d="M0,-6.905C2.261,-6.999 4.566,-6.992 6.95,-6.468C9.301,-5.961 11.844,-4.783 13.737,-2.585L9.551,0.094C9.044,-1.501 7.763,-3.012 6.003,-4.17C4.251,-5.34 2.143,-6.186 0,-6.905" style="fill:rgb(26,54,32);fill-rule:nonzero;"/>
            </g>
            <g transform="matrix(4.16667,0,0,4.16667,756.975,829.143)">
                <path d="M0,-21.395C1.162,-18.12 2.257,-14.795 2.902,-11.259C3.519,-7.746 3.778,-3.926 2.509,0L-2.024,-2.038C-0.473,-4.47 0.228,-7.762 0.422,-11.102C0.622,-14.467 0.359,-17.94 0,-21.395" style="fill:rgb(26,54,32);fill-rule:nonzero;"/>
            </g>
            <g transform="matrix(4.16667,0,0,4.16667,575.928,850.062)">
                <path d="M0,-13.045C2.885,-11.806 5.731,-10.609 8.602,-9.129C11.543,-7.413 13.893,-5.399 16.389,-3.348L12.721,0C10.97,-2.439 9.117,-5.03 7.105,-7.046C4.896,-9.109 2.422,-11.092 0,-13.045" style="fill:rgb(26,54,32);fill-rule:nonzero;"/>
            </g>
            <g transform="matrix(-2.89773,2.99404,2.99404,2.89773,681.113,804.729)">
                <path d="M5.236,-14.493C4.241,-12.146 3.776,-9.517 3.732,-6.847C3.716,-4.171 4.078,-1.413 5.236,1.341L9.485,-1.234C6.666,-4.446 4.927,-9.485 5.236,-14.493" style="fill:rgb(26,54,32);fill-rule:nonzero;"/>
            </g>
            <g transform="matrix(4.16667,0,0,4.16667,807.51,840.214)">
                <path d="M0,-16.29C0.517,-13.501 0.167,-10.568 -0.573,-7.711C-0.98,-6.28 -1.519,-4.846 -2.417,-3.443C-3.303,-2.092 -4.669,-0.567 -6.948,0L-7.605,-4.926C-7.096,-4.778 -6.142,-5.098 -5.266,-5.845C-4.38,-6.579 -3.562,-7.597 -2.852,-8.702C-1.476,-10.949 -0.313,-13.514 0,-16.29" style="fill:rgb(26,54,32);fill-rule:nonzero;"/>
            </g>
            <g transform="matrix(4.16667,0,0,4.16667,835.953,912.783)">
                <path d="M0,-5.659C2.004,-4.353 5.154,-3.814 8.142,-3.803C11.169,-3.827 14.317,-4.208 17.187,-5.569C14.749,-3.492 11.646,-2.213 8.469,-1.34C5.251,-0.558 1.856,0 -2.009,-1.111L0,-5.659Z" style="fill:rgb(26,54,32);fill-rule:nonzero;"/>
            </g>
            <g transform="matrix(4.16667,0,0,4.16667,842.424,944.876)">
                <path d="M0,-5.55C1.742,-4.252 4.465,-3.445 7.109,-3.025C9.801,-2.631 12.611,-2.504 15.387,-3.082C12.88,-1.719 10.017,-0.971 7.105,-0.539C4.166,-0.185 1.155,0 -2.214,-1.1L0,-5.55Z" style="fill:rgb(26,54,32);fill-rule:nonzero;"/>
            </g>
            <g transform="matrix(4.16667,0,0,4.16667,836.862,1025.02)">
                <path d="M0,-7.962C0.117,-7.343 0.512,-6.433 0.9,-5.689C1.311,-4.912 1.803,-4.165 2.371,-3.461C3.497,-2.034 4.992,-0.847 6.782,0C4.819,-0.032 2.739,-0.52 0.847,-1.497C-0.107,-1.976 -1.029,-2.554 -1.895,-3.223C-2.776,-3.927 -3.542,-4.567 -4.385,-5.623L0,-7.962Z" style="fill:rgb(26,54,32);fill-rule:nonzero;"/>
            </g>
            <g transform="matrix(4.16667,0,0,4.16667,711.183,1108.29)">
                <path d="M0,-11.179C-2.237,-7.207 -4.184,-3.169 -4.171,1.604C-5.885,-2.825 -5.489,-8.098 -4.703,-12.783L0,-11.179Z" style="fill:rgb(26,54,32);fill-rule:nonzero;"/>
            </g>
            <g transform="matrix(4.16667,0,0,4.16667,744.298,1091.83)">
                <path d="M0,-7.558C-0.991,-6.27 -1.762,-4.954 -2.204,-3.329C-2.65,-1.718 -2.769,0.097 -2.779,1.915C-3.57,0.277 -4.306,-1.432 -4.688,-3.374C-5.092,-5.306 -4.984,-7.497 -4.586,-9.473L0,-7.558Z" style="fill:rgb(26,54,32);fill-rule:nonzero;"/>
            </g>
            <g transform="matrix(4.16667,0,0,4.16667,681.436,1084.43)">
                <path d="M0,-6.955C-1.613,-6.222 -3.094,-4.682 -4.125,-2.703C-5.142,-0.726 -5.838,1.563 -6.127,3.934C-6.662,1.592 -6.822,-0.883 -6.501,-3.434C-6.151,-5.962 -5.166,-8.68 -3.038,-10.889L0,-6.955Z" style="fill:rgb(26,54,32);fill-rule:nonzero;"/>
            </g>
            <g transform="matrix(4.16667,0,0,4.16667,603.712,988.286)">
                <path d="M0,-1.938C-1.662,-1.811 -3.31,-1.079 -4.875,0.263C-6.44,1.574 -7.91,3.273 -9.548,4.692C-8.559,2.757 -7.891,0.753 -6.824,-1.28C-5.799,-3.304 -4.028,-5.389 -1.63,-6.63L0,-1.938Z" style="fill:rgb(26,54,32);fill-rule:nonzero;"/>
            </g>
            <g transform="matrix(4.16667,0,0,4.16667,597.504,950.22)">
                <path d="M0,-0.727C-3.785,-0.734 -8.044,1.613 -11.271,4.851C-9.313,0.7 -6.268,-3.44 -1.078,-5.578L0,-0.727Z" style="fill:rgb(26,54,32);fill-rule:nonzero;"/>
            </g>
            <g transform="matrix(4.16667,0,0,4.16667,635.684,847.223)">
                <path d="M0,15.501C0.068,14.186 -0.335,12.968 0.102,11.43C0.721,9.91 2.08,9.155 2.948,8.355C4.795,6.622 6.603,5.023 8.011,2.899C8.913,1.706 10.371,0.74 11.822,0.395C13.276,0.065 14.596,0 15.914,0.019C17.253,0.046 18.649,0.08 20.032,0.628C21.323,1.262 22.187,2.155 23.531,2.281C22.197,2.749 20.793,1.927 19.656,1.786C18.544,1.575 17.292,1.718 16.062,1.924C13.453,2.344 11.172,2.621 9.969,4.431C8.445,6.605 6.299,8.464 4.062,9.896C2.878,10.602 1.75,11.078 1.197,11.948C0.548,12.814 0.589,14.313 0,15.501" style="fill:rgb(26,54,32);fill-rule:nonzero;"/>
            </g>
            <g transform="matrix(4.16667,0,0,4.16667,652.367,1029.37)">
                <path d="M0,-11.719C2.157,-10.853 3.213,-8.603 4.485,-7.055C5.732,-5.483 7.137,-4.468 9.058,-3.827C11.046,-3.089 12.968,-2.306 14.873,-1.906C15.892,-1.699 16.885,-1.536 17.744,-1.721C18.132,-1.74 18.648,-2.112 19.309,-2.185C19.969,-2.275 20.435,-1.981 20.98,-2.017C20.493,-1.721 19.855,-1.76 19.476,-1.549C19.076,-1.368 18.802,-0.93 18.178,-0.583C17.009,-0.03 15.795,-0.03 14.7,0C12.325,-0.005 10.216,-0.813 8.188,-1.502C6.042,-2.223 3.844,-3.922 2.873,-6.045L1.543,-9.003C1.131,-9.976 0.787,-10.995 0,-11.719" style="fill:rgb(26,54,32);fill-rule:nonzero;"/>
            </g>
            <g transform="matrix(4.16667,0,0,4.16667,649.799,969.708)">
                <path d="M0,-14.454C0.487,-13.021 -0.175,-11.552 -0.398,-10.265C-0.66,-8.993 -0.595,-7.852 -0.048,-6.644C0.386,-5.336 0.842,-4.062 1.468,-2.963C1.798,-2.374 2.138,-1.818 2.594,-1.471L3.484,-0.898L4.113,0L3.242,-0.544L2.218,-0.774C1.449,-1.116 0.934,-1.716 0.456,-2.242C-0.534,-3.425 -1,-4.812 -1.565,-6.089C-2.071,-7.462 -2.199,-9.246 -1.58,-10.631C-1.065,-11.983 -0.187,-13.092 0,-14.454" style="fill:rgb(26,54,32);fill-rule:nonzero;"/>
            </g>
            <g transform="matrix(4.16667,0,0,4.16667,715.894,970.213)">
                <path d="M0,5.125C1.332,4.406 2.893,4.816 4.195,4.826C5.497,4.875 6.61,4.625 7.712,3.888C8.928,3.242 10.111,2.582 11.092,1.785C11.619,1.361 12.111,0.935 12.378,0.427L12.798,-0.547L13.58,-1.311L13.187,-0.364C13.109,-0.091 13.215,0.23 13.128,0.684C12.917,1.499 12.412,2.105 11.971,2.664C10.966,3.834 9.675,4.523 8.508,5.29C7.236,6.016 5.499,6.436 4.03,6.052C2.613,5.768 1.376,5.084 0,5.125" style="fill:rgb(26,54,32);fill-rule:nonzero;"/>
            </g>
            <g transform="matrix(4.16667,0,0,4.16667,778.228,904.239)">
                <path d="M0,20.616C1.478,19.228 1.956,17.413 3.084,15.623C3.563,14.608 4.824,13.853 5.181,13.378L5.456,12.757C5.487,12.422 5.465,11.968 5.436,11.485C5.332,9.175 6.033,7.35 6.15,5.584C6.317,3.845 5.688,1.98 5.215,0C6.569,1.472 7.78,3.254 8.062,5.511C8.377,7.705 7.731,9.738 7.916,11.386C7.924,11.888 7.945,12.424 7.86,13.067C7.826,13.705 7.329,14.681 6.841,15.035C5.785,15.929 5.203,16.091 4.599,16.775C3.356,18.063 2.092,20.095 0,20.616" style="fill:rgb(26,54,32);fill-rule:nonzero;"/>
            </g>
            <g transform="matrix(4.16667,0,0,4.16667,735.753,882.174)">
                <path d="M0,-9.502C1.422,-9.684 2.841,-9.825 4.329,-9.563C5.816,-9.347 7.263,-8.665 8.483,-7.697C10.917,-5.68 12.023,-2.547 11.764,0.323C10.886,-0.871 10.262,-2.062 9.444,-3.077C8.646,-4.091 7.869,-5.044 6.909,-5.778C5.994,-6.568 4.928,-7.148 3.776,-7.743C2.621,-8.326 1.262,-8.674 0,-9.502" style="fill:rgb(26,54,32);fill-rule:nonzero;"/>
            </g>
            <path d="M747.49,937.36L744.073,936.331C743.238,939.104 742.389,941.689 740.606,944.195C740.604,944.198 737.857,946.982 737.857,946.982L735.635,948.709L733.173,949.341C731.391,948.642 729.671,948.373 727.579,948.089C727.471,947.864 727.335,947.58 727.228,947.354C727.13,947.148 727.013,946.951 726.878,946.768L725.819,945.326C725.697,944.497 725.175,940.81 725.348,939.623C725.657,937.618 726.966,934.402 728.976,932.72C728.978,932.718 731.405,931.878 731.405,931.878L734.026,931.076L737.156,930.435C737.339,930.398 737.519,930.346 737.693,930.28L741.129,928.992C741.221,929.149 741.388,929.445 741.473,929.642C741.638,930.025 741.786,930.429 741.938,930.833C742.357,931.947 743.006,933.003 743.586,934.096C743.934,934.753 744.346,935.427 744.074,936.328L747.49,937.36Z" style="fill:rgb(242,234,140);"/>
            <path d="M763.518,928.766C763.568,933.863 764.185,937.072 761.344,941.249C759.228,944.34 758.668,946.425 758.215,948.526C757.898,949.994 757.679,951.481 756.493,953.691C753.742,958.783 751.792,962.778 746.257,963.487L746.255,963.487C736.093,964.797 728.9,967.76 719.548,971.524C712.946,974.173 710.24,972.314 704.257,969.981L704.251,969.979C700.844,968.658 697.345,968.498 693.808,967.611L693.805,967.61C692.73,967.342 690.844,966.104 688.559,964.514C682.422,960.244 674.099,953.199 671.359,949.435C665.842,941.848 661.101,927.128 665.683,916.732C667.283,913.122 669.46,911.711 672.742,909.405C672.747,909.401 672.751,909.398 672.756,909.395C674.565,908.11 676.032,906.437 677.457,904.762C678.48,903.559 679.461,902.342 680.714,901.489C682.416,900.331 683.857,899.774 685.116,899.156C687.845,897.816 690.046,896.357 692.123,891.639C694.023,887.348 697.453,884.159 701.275,881.446C710.743,874.74 718.574,879.154 726.737,882.972L726.739,882.973C731.788,885.33 737.827,886.767 743.275,888.96C747.834,890.796 751.997,893.147 754.229,897.688L754.232,897.693C759.205,907.776 763.402,917.281 763.518,928.766ZM716.828,897.706L716.56,900.87C722.4,901.364 728.296,903.153 734.119,905.095C735.835,905.667 737.707,904.866 738.477,903.23C739.247,901.593 738.672,899.64 737.137,898.683C731.3,895.041 724.997,891.892 717.911,890.65C710.391,889.143 701.526,890.863 695.349,896.457C695.3,896.501 695.252,896.547 695.206,896.594C692.392,899.442 690.588,902.59 688.839,905.488C687.529,907.66 686.315,909.696 684.299,911.034C682.438,912.175 680.032,914.244 678.611,916.747C677.454,918.786 676.92,921.085 677.408,923.456C678.005,927.333 679.039,931.142 681.369,934.198C682.426,935.585 684.33,936.005 685.872,935.191C687.414,934.377 688.142,932.568 687.594,930.913C686.773,928.434 686.127,925.69 686.435,923.344C686.629,921.87 687.334,920.621 689.029,920.091C689.259,920.019 689.48,919.925 689.691,919.809C693.452,917.731 695.953,914.56 698.069,911.339C699.667,908.905 700.948,906.425 702.813,904.89C702.893,904.824 702.97,904.754 703.044,904.681C706.467,901.321 711.54,900.426 716.546,900.869L716.826,897.706L716.828,897.706ZM750.907,938.389C751.697,935.77 751.243,933.632 750.345,931.668C749.817,930.512 749.048,929.465 748.618,928.321L748.617,928.319C747.67,925.803 746.442,923.546 744.222,922.505C743.107,921.982 741.715,921.692 739.898,921.93C739.628,921.965 739.363,922.032 739.108,922.127L735.449,923.5L732.428,924.118C732.318,924.141 732.208,924.169 732.1,924.202L729.254,925.073C729.213,925.085 729.172,925.099 729.131,925.113L726.098,926.163C725.775,926.275 725.47,926.432 725.193,926.63C721.477,929.281 718.834,935.001 718.292,938.555C718.291,938.56 718.29,938.564 718.29,938.569C718.055,940.148 718.242,943.63 718.638,945.914C718.904,947.45 719.383,948.59 719.705,949.056C719.725,949.084 719.744,949.112 719.765,949.14L720.928,950.723C721.585,952.083 722.141,953.024 722.975,953.721C723.758,954.375 724.778,954.91 726.416,955.133L726.421,955.134C728.24,955.379 729.664,955.489 731.245,956.289C732.017,956.681 732.905,956.778 733.744,956.562L738.127,955.437C738.601,955.316 739.044,955.098 739.43,954.798L742.422,952.473C742.545,952.378 742.662,952.274 742.772,952.162L745.876,949.016C745.998,948.893 746.111,948.76 746.214,948.62C748.612,945.349 749.814,942.017 750.906,938.392L750.907,938.389Z" style="fill:white;"/>
            <g transform="matrix(4.16667,0,0,4.16667,747.49,911.468)">
                <path d="M5.559,4.135C5.575,5.768 5.651,6.773 4.741,8.111L4.74,8.113C4.325,8.718 4.286,9.09 4.194,9.51C4.106,9.913 3.989,10.35 3.67,10.944L3.668,10.946C2.707,12.726 1.856,13.936 -0.078,14.183C-2.358,14.477 -3.968,15.158 -6.067,16.003L-6.068,16.003C-8.191,16.855 -9.073,16.389 -10.997,15.639C-11.747,15.349 -12.521,15.331 -13.3,15.136C-13.666,15.044 -14.342,14.679 -15.122,14.137C-16.747,13.006 -18.931,11.117 -19.656,10.12L-19.657,10.12C-21.264,7.909 -22.536,3.6 -21.201,0.571L-21.2,0.57C-20.673,-0.62 -20.008,-1.135 -18.927,-1.895C-18.609,-2.121 -18.363,-2.425 -18.113,-2.719C-17.766,-3.127 -17.415,-3.522 -16.99,-3.811C-16.608,-4.071 -16.273,-4.234 -15.97,-4.376C-15.52,-4.587 -15.175,-4.724 -14.856,-5.449L-14.855,-5.451C-14.272,-6.767 -13.253,-7.772 -12.083,-8.602L-12.082,-8.603C-9.176,-10.661 -6.761,-9.563 -4.256,-8.391C-3.07,-7.838 -1.651,-7.506 -0.372,-6.991C1.12,-6.39 2.424,-5.549 3.154,-4.064C4.464,-1.408 5.529,1.109 5.559,4.135ZM3.847,4.151C3.819,1.395 2.812,-0.886 1.618,-3.306L1.617,-3.307C1.082,-4.397 0.083,-4.961 -1.012,-5.402C-2.319,-5.928 -3.769,-6.273 -4.98,-6.839L-4.981,-6.839C-6.94,-7.756 -8.819,-8.815 -11.092,-7.205C-12.009,-6.554 -12.832,-5.789 -13.288,-4.759C-13.787,-3.627 -14.315,-3.277 -14.97,-2.955C-15.272,-2.807 -15.618,-2.673 -16.026,-2.395C-16.327,-2.19 -16.562,-1.898 -16.808,-1.61C-17.15,-1.208 -17.502,-0.806 -17.936,-0.498C-17.937,-0.497 -17.938,-0.496 -17.94,-0.495C-18.727,0.058 -19.25,0.397 -19.634,1.263C-20.733,3.758 -19.596,7.291 -18.272,9.112C-17.614,10.015 -15.616,11.706 -14.144,12.731C-13.595,13.113 -13.142,13.41 -12.884,13.474L-12.884,13.474C-12.035,13.687 -11.195,13.725 -10.377,14.043L-10.376,14.043C-8.94,14.603 -8.291,15.049 -6.706,14.413C-4.462,13.51 -2.735,12.799 -0.296,12.485L-0.296,12.485C1.032,12.314 1.5,11.356 2.161,10.133C2.445,9.603 2.498,9.246 2.574,8.894C2.683,8.39 2.817,7.889 3.325,7.147C4.007,6.145 3.859,5.375 3.847,4.151ZM0.82,6.461L0.82,6.462C0.558,7.332 0.269,8.131 -0.306,8.916C-0.331,8.95 -0.358,8.982 -0.387,9.012L-1.132,9.767C-1.159,9.793 -1.187,9.818 -1.216,9.841L-1.934,10.399C-2.027,10.471 -2.133,10.523 -2.247,10.553L-3.299,10.823C-3.5,10.874 -3.714,10.851 -3.899,10.757C-4.278,10.565 -4.62,10.539 -5.057,10.48L-5.058,10.48C-5.451,10.426 -5.696,10.297 -5.884,10.141C-6.084,9.973 -6.217,9.748 -6.375,9.421L-6.654,9.041C-6.659,9.035 -6.664,9.028 -6.668,9.021C-6.746,8.909 -6.861,8.636 -6.925,8.267C-7.02,7.719 -7.064,6.883 -7.008,6.504C-7.008,6.503 -7.008,6.502 -7.008,6.501C-6.877,5.648 -6.243,4.275 -5.351,3.639C-5.285,3.591 -5.212,3.553 -5.134,3.527L-4.406,3.275C-4.396,3.271 -4.387,3.268 -4.377,3.265L-3.694,3.056C-3.668,3.048 -3.641,3.041 -3.615,3.036L-2.89,2.887L-2.012,2.558C-1.951,2.535 -1.887,2.519 -1.822,2.511C-1.386,2.454 -1.052,2.523 -0.784,2.649C-0.251,2.899 0.043,3.44 0.27,4.044L0.271,4.045C0.374,4.319 0.558,4.571 0.685,4.848C0.901,5.319 1.01,5.832 0.82,6.461ZM0,6.214L-0.82,5.966C-0.754,5.75 -0.853,5.588 -0.937,5.431C-1.076,5.168 -1.232,4.915 -1.333,4.648C-1.369,4.551 -1.405,4.454 -1.444,4.362C-1.464,4.314 -1.505,4.243 -1.527,4.206L-2.351,4.515C-2.393,4.531 -2.436,4.543 -2.48,4.552L-3.231,4.706L-3.861,4.898C-3.861,4.898 -4.443,5.1 -4.443,5.1C-4.926,5.504 -5.24,6.276 -5.314,6.757C-5.356,7.042 -5.23,7.927 -5.201,8.126L-4.947,8.472C-4.914,8.516 -4.886,8.563 -4.863,8.612C-4.837,8.667 -4.805,8.735 -4.779,8.789C-4.277,8.857 -3.864,8.922 -3.436,9.089L-2.845,8.938L-2.312,8.523C-2.312,8.523 -1.653,7.855 -1.652,7.854C-1.224,7.253 -1.02,6.633 -0.82,5.967L0,6.214ZM-7.359,-3.303C-7.359,-3.303 -7.359,-3.303 -7.359,-3.303L-7.427,-2.544C-8.628,-2.65 -9.846,-2.435 -10.667,-1.629C-10.685,-1.611 -10.703,-1.595 -10.723,-1.579C-11.17,-1.21 -11.477,-0.615 -11.861,-0.031C-12.369,0.742 -12.969,1.503 -13.872,2.002C-13.922,2.03 -13.976,2.052 -14.031,2.069C-14.437,2.197 -14.607,2.496 -14.653,2.85C-14.727,3.413 -14.572,4.072 -14.375,4.667C-14.243,5.064 -14.418,5.498 -14.788,5.693C-15.158,5.889 -15.615,5.788 -15.869,5.455C-16.428,4.722 -16.677,3.808 -16.82,2.877C-16.937,2.308 -16.809,1.756 -16.531,1.267C-16.19,0.666 -15.613,0.17 -15.166,-0.104C-14.682,-0.425 -14.391,-0.914 -14.076,-1.435C-13.657,-2.131 -13.224,-2.886 -12.548,-3.57C-12.537,-3.581 -12.526,-3.592 -12.514,-3.603C-11.031,-4.945 -8.904,-5.358 -7.099,-4.996C-5.398,-4.698 -3.886,-3.943 -2.485,-3.069C-2.116,-2.839 -1.978,-2.37 -2.163,-1.977C-2.348,-1.585 -2.797,-1.392 -3.209,-1.53C-4.607,-1.996 -6.022,-2.425 -7.423,-2.544L-7.359,-3.303Z" style="fill:rgb(26,54,32);fill-rule:nonzero;"/>
            </g>
            <path d="M439.082,833.306C442.082,829.822 445.825,811.213 446.532,801.668C446.991,795.473 464.524,799.347 465.509,805.741C466.664,813.233 457.864,842.03 453.459,846.624C449.055,851.218 434.763,838.321 439.082,833.306Z" style="fill:rgb(26,54,32);"/>
            <path d="M439.082,833.306C442.082,829.822 445.825,811.213 446.532,801.668C446.991,795.473 464.524,799.347 465.509,805.741C466.664,813.233 457.864,842.03 453.459,846.624C449.055,851.218 434.763,838.321 439.082,833.306Z" style="fill:none;stroke:rgb(26,54,32);stroke-width:1px;"/>
            <path d="M924.545,1015.16C924.084,1015.12 926.68,1009.07 926.45,1007.89C926.291,1007.08 928.436,1009.09 928.207,1009.96C927.889,1011.17 924.996,1015.19 924.545,1015.16Z" style="fill:rgb(26,54,32);"/>
            <path d="M924.545,1015.16C924.084,1015.12 926.68,1009.07 926.45,1007.89C926.291,1007.08 928.436,1009.09 928.207,1009.96C927.889,1011.17 924.996,1015.19 924.545,1015.16Z" style="fill:none;stroke:rgb(26,54,32);stroke-width:1px;"/>
            <path d="M947.741,1000.63C946.993,1005.09 944.385,1021.43 942.593,1022.62C940.846,1023.77 936.616,1011.54 937.474,1007.88C938.332,1004.22 948.404,996.686 947.741,1000.63Z" style="fill:rgb(26,54,32);"/>
            <path d="M947.741,1000.63C946.993,1005.09 944.385,1021.43 942.593,1022.62C940.846,1023.77 936.616,1011.54 937.474,1007.88C938.332,1004.22 948.404,996.686 947.741,1000.63Z" style="fill:none;stroke:rgb(26,54,32);stroke-width:1px;"/>
        </g>
    </g>
</svg>
