<?xml version="1.0" standalone="no"?>
<!DOCTYPE svg PUBLIC "-//W3C//DTD SVG 20010904//EN"
 "http://www.w3.org/TR/2001/REC-SVG-20010904/DTD/svg10.dtd">
<svg version="1.0" xmlns="http://www.w3.org/2000/svg"
 width="1178.000000pt" height="1178.000000pt" viewBox="0 0 1178.000000 1178.000000"
 preserveAspectRatio="xMidYMid meet">

<g transform="translate(0.000000,1178.000000) scale(0.100000,-0.100000)"
fill="#000000" stroke="none">
<path d="M4240 9330 c-123 -22 -218 -69 -346 -167 -292 -225 -548 -619 -670
-1033 -15 -52 -29 -96 -30 -98 -1 -2 -43 17 -93 42 -187 94 -400 168 -601 208
-99 19 -146 23 -335 22 -251 0 -292 -7 -435 -77 -196 -95 -339 -320 -328 -514
4 -62 4 -63 -22 -63 -109 0 -280 -105 -365 -224 -124 -174 -149 -338 -94 -622
83 -431 386 -916 764 -1219 47 -38 84 -72 83 -76 -2 -3 -40 -46 -85 -95 -174
-190 -288 -354 -392 -565 -127 -256 -184 -476 -185 -709 -1 -133 1 -151 27
-223 76 -215 248 -366 457 -401 35 -6 35 -6 31 -52 -8 -105 56 -271 145 -372
137 -156 312 -222 595 -222 438 0 903 168 1302 472 l78 59 31 -73 c206 -472
545 -853 921 -1034 118 -56 189 -74 301 -74 196 -2 382 89 472 229 27 41 44
58 54 54 8 -3 40 -15 70 -26 85 -32 225 -35 327 -7 135 36 260 122 345 238 55
74 139 254 182 386 123 381 127 826 11 1251 -44 161 -86 261 -165 391 l-40 64
48 0 c131 0 356 40 483 86 313 112 716 418 924 699 155 210 240 367 304 559
68 205 67 360 -3 519 -60 136 -186 259 -307 300 -24 8 -43 18 -42 21 19 73 24
149 14 213 -42 274 -221 458 -521 537 -165 43 -233 50 -465 50 -243 0 -375
-17 -567 -73 l-98 -29 0 109 c0 550 -282 1186 -599 1353 -99 52 -189 76 -284
76 -108 0 -203 -24 -278 -69 l-63 -38 -47 51 c-90 98 -231 161 -379 170 -47 3
-105 1 -130 -4z m262 -254 c102 -49 138 -114 138 -251 0 -112 32 -155 114
-155 61 0 87 33 121 152 17 62 60 119 107 144 116 60 315 23 418 -77 102 -99
236 -336 298 -529 73 -226 97 -386 96 -660 -1 -304 -35 -466 -139 -668 -81
-156 -155 -251 -325 -423 -166 -167 -268 -250 -477 -390 -73 -49 -138 -99
-144 -111 -12 -23 -12 -23 -22 7 -29 88 -120 177 -210 205 -59 19 -173 9 -230
-20 -26 -13 -55 -32 -64 -42 -26 -29 -33 -22 -33 35 0 28 -7 111 -15 182 -76
646 -300 1106 -672 1375 -43 31 -63 52 -63 66 0 29 43 177 86 295 144 393 464
786 715 880 81 30 223 23 301 -15z m-2172 -996 c302 -37 573 -135 848 -308
268 -169 414 -328 538 -586 61 -129 94 -224 134 -391 50 -213 80 -462 80 -675
l0 -126 -32 -18 c-18 -10 -50 -34 -70 -54 l-37 -35 -93 17 c-486 85 -887 84
-1231 -4 -174 -45 -302 -99 -431 -184 l-85 -55 -59 44 c-88 64 -314 286 -387
380 -175 224 -302 482 -361 730 -9 39 -18 126 -21 195 -4 111 -3 131 16 181
29 76 69 129 133 177 100 76 179 79 289 13 35 -21 76 -41 92 -45 35 -8 78 14
107 55 34 46 22 89 -40 155 -28 30 -60 75 -72 101 -63 142 49 338 233 407 86
33 294 44 449 26z m4635 -536 c217 -37 331 -90 407 -192 53 -70 78 -140 78
-220 0 -69 -22 -114 -78 -160 -103 -85 -122 -107 -122 -147 0 -66 45 -115 104
-115 13 0 54 11 90 25 118 44 190 32 275 -49 100 -95 139 -231 107 -369 -40
-171 -130 -361 -254 -537 -85 -120 -307 -345 -432 -437 -321 -236 -541 -313
-889 -313 -304 0 -618 67 -996 212 -106 41 -369 159 -382 172 -2 1 4 20 12 40
23 56 21 157 -5 227 l-22 59 23 121 22 120 86 56 c183 119 368 271 522 430
277 284 429 561 485 880 l17 101 106 31 c121 36 277 67 401 80 110 13 331 5
445 -15z m-2541 -1445 c32 -15 59 -70 50 -104 -15 -62 -99 -85 -148 -40 -72
67 8 185 98 144z m-333 -319 c10 -6 26 -24 35 -41 46 -90 -65 -172 -137 -100
-73 73 11 189 102 141z m-611 -69 c69 -10 155 -25 191 -32 l67 -12 6 -39 c14
-89 81 -169 179 -213 47 -22 73 -27 133 -27 40 0 74 -1 74 -3 0 -2 -33 -56
-74 -122 -201 -323 -340 -651 -403 -953 -23 -109 -27 -149 -27 -320 -1 -159 3
-211 18 -279 l20 -84 -30 -24 c-367 -303 -734 -465 -1146 -504 -141 -14 -307
-2 -388 26 -142 50 -250 187 -250 318 1 67 25 118 89 185 46 48 51 58 51 99 0
38 -5 50 -34 79 -45 45 -86 46 -152 1 -81 -54 -103 -62 -173 -62 -79 0 -132
27 -202 102 -110 117 -130 246 -78 504 49 250 195 551 378 779 133 167 336
348 486 432 151 85 389 152 615 172 118 10 529 -4 650 -23z m1174 -92 c14 -17
26 -39 26 -49 0 -93 -124 -130 -165 -49 -21 40 -19 63 11 98 20 25 34 31 64
31 30 0 44 -6 64 -31z m-235 -318 c61 -39 128 -55 205 -48 54 5 67 3 106 -20
66 -37 287 -138 425 -193 225 -89 524 -176 698 -201 98 -14 118 -30 208 -162
108 -157 176 -335 221 -577 56 -303 38 -655 -47 -934 -32 -104 -133 -309 -178
-361 -44 -50 -129 -102 -199 -121 -154 -41 -268 15 -336 167 -23 53 -36 69
-66 83 -43 20 -89 10 -123 -27 -31 -34 -36 -62 -22 -137 10 -56 10 -81 0 -127
-33 -145 -236 -236 -420 -189 -239 61 -583 374 -789 717 -102 170 -206 431
-238 596 -22 112 -22 315 0 443 41 239 140 507 286 770 53 97 212 350 219 350
2 0 25 -13 50 -29z"/>
</g>
</svg>
