<?xml version="1.0" standalone="no"?>
<!DOCTYPE svg PUBLIC "-//W3C//DTD SVG 20010904//EN"
 "http://www.w3.org/TR/2001/REC-SVG-20010904/DTD/svg10.dtd">
<svg version="1.0" xmlns="http://www.w3.org/2000/svg"
 width="1178.000000pt" height="1178.000000pt" viewBox="0 0 1178.000000 1178.000000"
 preserveAspectRatio="xMidYMid meet">

<g transform="translate(0.000000,1178.000000) scale(0.100000,-0.100000)"
fill="#000000" stroke="none">
<path d="M4414 9322 c-109 -38 -313 -212 -451 -385 -207 -258 -349 -640 -354
-947 -1 -108 -3 -108 -99 -24 -160 140 -347 251 -550 327 -251 93 -588 121
-830 69 -105 -23 -154 -46 -186 -87 -33 -44 -62 -163 -73 -305 -37 -452 127
-916 443 -1260 l51 -55 -30 -6 c-16 -4 -56 -7 -88 -8 -260 -5 -602 -120 -838
-282 -284 -195 -524 -497 -490 -617 44 -153 295 -423 544 -586 123 -80 353
-173 517 -210 67 -14 275 -44 344 -48 l38 -3 -59 -65 c-258 -284 -402 -618
-433 -1006 -17 -205 12 -439 66 -532 31 -53 80 -79 198 -103 95 -20 352 -27
467 -14 335 40 676 198 932 433 32 29 62 50 67 47 6 -3 10 -37 10 -75 0 -253
98 -577 248 -817 170 -274 482 -547 624 -545 128 2 412 246 587 505 96 143
173 317 221 499 27 101 37 171 58 373 l7 70 60 -56 c337 -313 818 -481 1264
-440 141 13 249 38 290 68 66 49 95 139 113 351 29 332 -61 696 -245 992 -41
66 -133 187 -208 272 l-41 48 51 0 c58 0 234 24 336 46 356 76 698 289 929
578 59 75 122 182 131 223 10 47 -10 104 -64 185 -148 220 -371 414 -619 538
-206 103 -398 153 -681 178 l-83 7 59 65 c122 134 204 258 284 425 133 280
187 616 144 900 -39 261 -75 295 -350 331 -87 12 -153 14 -240 9 -420 -23
-766 -167 -1069 -443 -32 -29 -60 -52 -61 -50 -2 2 -8 61 -14 131 -33 385
-165 705 -406 980 -132 152 -326 303 -417 325 -56 14 -42 15 -104 -6z m120
-249 c289 -209 486 -517 561 -878 36 -174 38 -463 4 -614 -13 -59 -4 -95 33
-126 72 -61 115 -44 213 85 241 319 554 521 930 602 68 14 431 18 507 5 44 -8
48 -11 58 -46 23 -87 31 -243 20 -376 -25 -277 -111 -506 -276 -735 -71 -99
-242 -269 -349 -348 -95 -70 -104 -80 -111 -124 -6 -41 23 -91 67 -113 27 -14
40 -15 93 -5 189 34 439 30 634 -10 343 -72 669 -288 871 -578 l23 -34 -48
-71 c-27 -39 -90 -112 -140 -162 -194 -194 -408 -311 -694 -383 -98 -24 -121
-26 -335 -26 -156 -1 -255 4 -308 13 -74 13 -79 13 -105 -6 -15 -11 -35 -35
-46 -52 -16 -28 -17 -38 -7 -72 10 -32 28 -51 109 -113 263 -199 449 -446 545
-722 68 -194 93 -398 75 -594 -6 -63 -12 -127 -12 -142 -1 -24 -7 -29 -51 -40
-69 -18 -439 -18 -520 0 -168 37 -366 115 -485 191 -162 103 -321 251 -441
411 -94 126 -127 142 -197 100 -47 -29 -62 -71 -51 -140 71 -434 -17 -850
-248 -1173 -71 -99 -196 -228 -283 -291 -100 -74 -89 -73 -177 -8 -301 225
-495 558 -550 947 -18 127 -13 419 8 523 11 54 10 67 -3 96 -23 48 -78 72
-129 57 -31 -9 -51 -28 -101 -94 -265 -351 -602 -564 -983 -622 -158 -24 -396
-18 -497 11 -32 10 -43 79 -43 289 0 221 8 280 60 440 97 298 289 561 551 756
100 73 124 101 124 137 0 41 -30 90 -66 107 -31 14 -43 15 -138 0 -57 -8 -167
-15 -245 -15 -442 0 -805 152 -1092 457 -42 45 -92 105 -111 135 l-36 53 21
35 c38 64 135 176 204 237 261 231 534 346 886 373 137 10 317 2 410 -20 66
-15 84 -12 121 21 43 38 55 83 32 128 -9 17 -58 62 -109 100 -303 226 -515
551 -593 911 -33 155 -27 539 10 569 14 11 106 28 206 36 83 7 253 -7 375 -31
345 -69 659 -276 900 -594 45 -59 88 -105 103 -111 54 -21 109 6 141 69 10 18
9 45 -3 128 -28 186 -17 466 23 624 41 156 119 340 192 448 68 100 180 230
252 291 70 59 154 121 165 121 2 0 27 -17 56 -37z"/>
<path d="M4421 8466 c-44 -25 -50 -50 -51 -216 0 -173 5 -191 66 -216 44 -18
86 -9 121 28 28 29 28 30 31 178 3 120 0 154 -12 179 -28 54 -102 76 -155 47z"/>
<path d="M4434 7810 c-12 -4 -31 -21 -43 -36 -21 -26 -21 -32 -21 -461 l0
-434 -46 33 c-77 54 -234 216 -312 320 -85 115 -108 133 -158 125 -43 -7 -72
-31 -89 -72 -11 -25 -10 -46 3 -120 16 -97 23 -464 9 -499 -7 -17 -50 22 -300
271 -161 160 -302 296 -314 302 -44 22 -92 14 -129 -23 -36 -36 -44 -77 -23
-119 6 -12 144 -156 307 -319 292 -293 295 -297 266 -304 -56 -15 -383 -9
-486 9 -54 9 -104 17 -113 17 -26 0 -84 -60 -91 -95 -9 -50 17 -87 104 -151
118 -88 198 -160 288 -264 l83 -95 -433 -5 -434 -5 -26 -24 c-38 -36 -50 -82
-33 -123 27 -65 7 -63 490 -68 l440 -5 -62 -78 c-74 -91 -191 -201 -311 -289
-91 -68 -115 -102 -105 -148 18 -81 72 -104 190 -82 88 16 448 23 499 9 29 -8
26 -12 -272 -310 -196 -197 -303 -312 -307 -329 -20 -79 54 -153 133 -133 17
4 132 111 329 308 166 165 305 298 309 295 13 -13 16 -343 5 -433 -25 -187
-25 -207 -2 -237 12 -15 39 -33 60 -39 57 -17 97 6 155 90 75 110 238 281 337
354 l39 29 0 -435 c0 -420 1 -435 20 -460 24 -30 78 -50 113 -42 14 4 38 20
53 36 l29 30 5 435 5 434 80 -68 c104 -89 191 -183 277 -299 41 -55 81 -98 96
-104 54 -21 109 6 141 69 10 18 8 45 -5 130 -19 115 -25 381 -10 466 l8 49
296 -295 c164 -163 307 -301 319 -307 42 -21 83 -13 119 23 37 37 45 85 23
129 -6 12 -142 153 -302 314 -249 250 -288 293 -271 300 36 15 433 8 513 -9
40 -8 83 -13 95 -10 34 8 75 53 82 90 10 52 -15 88 -103 152 -124 89 -363 327
-363 361 0 5 166 9 431 9 l431 0 34 34 c39 39 44 77 18 127 -29 57 -42 59
-500 59 -257 0 -414 4 -412 9 2 6 38 50 80 99 76 88 188 188 300 270 65 48 88
76 88 110 0 42 -30 90 -66 107 -32 15 -42 15 -142 -1 -113 -18 -445 -25 -491
-10 -22 8 1 32 283 315 l306 307 0 46 c0 39 -5 52 -31 77 -25 26 -38 31 -77
31 l-46 0 -307 -307 -308 -306 -8 39 c-14 68 -8 391 9 492 19 109 14 136 -37
171 -28 19 -43 22 -73 18 -40 -7 -60 -25 -150 -143 -65 -84 -185 -209 -267
-277 l-60 -50 -5 429 c-4 322 -8 435 -18 451 -24 43 -89 63 -138 43z m-164
-1132 c120 -84 176 -103 250 -87 57 13 207 113 326 218 l91 80 6 -117 c6 -113
24 -237 46 -320 16 -58 63 -116 115 -141 64 -32 210 -59 353 -67 68 -4 123 -9
123 -11 0 -2 -32 -41 -71 -86 -82 -94 -166 -212 -199 -277 -34 -67 -31 -134
10 -207 44 -78 131 -193 208 -274 34 -37 62 -69 62 -71 0 -3 -55 -8 -122 -11
-249 -12 -382 -51 -437 -128 -46 -63 -75 -194 -87 -401 -4 -60 -10 -108 -13
-108 -3 0 -28 22 -56 49 -72 71 -227 185 -293 218 -73 36 -138 37 -205 4 -59
-29 -176 -114 -279 -204 -42 -37 -78 -67 -81 -67 -2 0 -7 53 -10 118 -8 160
-31 284 -68 359 -27 57 -35 65 -92 92 -73 36 -195 59 -359 68 -65 3 -118 8
-118 10 0 2 34 43 76 91 109 123 201 264 215 328 10 43 9 60 -4 99 -22 64
-109 191 -206 302 -45 50 -81 93 -81 96 0 2 51 7 114 10 120 7 296 38 355 63
106 44 153 172 168 461 l6 121 96 -82 c53 -45 125 -103 161 -128z"/>
<path d="M2570 7691 c-33 -33 -45 -69 -35 -108 9 -38 200 -230 242 -244 90
-29 175 70 132 154 -16 32 -179 196 -211 213 -45 24 -96 18 -128 -15z"/>
<path d="M6255 7702 c-46 -30 -203 -195 -215 -227 -9 -23 -8 -38 5 -71 20 -53
77 -81 129 -64 38 12 230 203 241 238 11 36 -2 86 -29 111 -33 31 -93 37 -131
13z"/>
<path d="M1833 5874 c-68 -34 -80 -129 -22 -178 30 -26 34 -26 189 -26 155 0
159 0 189 26 60 50 49 144 -22 177 -49 24 -287 24 -334 1z"/>
<path d="M6795 5881 c-75 -31 -91 -141 -28 -191 23 -18 39 -20 187 -20 137 0
164 3 182 18 45 36 58 107 28 151 -29 41 -72 51 -216 50 -73 0 -142 -4 -153
-8z"/>
<path d="M2770 4209 c-38 -15 -218 -199 -230 -235 -25 -76 45 -155 122 -139
36 8 218 178 244 227 28 55 5 120 -51 144 -39 16 -50 16 -85 3z"/>
<path d="M6089 4205 c-36 -20 -62 -77 -53 -118 8 -38 189 -228 235 -247 91
-38 183 64 138 153 -16 32 -179 196 -211 213 -34 18 -75 17 -109 -1z"/>
<path d="M4434 3520 c-12 -4 -31 -21 -43 -36 -19 -25 -21 -38 -21 -185 0 -154
0 -158 26 -188 51 -61 150 -48 180 24 20 48 20 282 -1 331 -21 51 -87 76 -141
54z"/>
</g>
</svg>
