<?xml version="1.0" encoding="UTF-8" standalone="no"?>
<!DOCTYPE svg PUBLIC "-//W3C//DTD SVG 1.1//EN" "http://www.w3.org/Graphics/SVG/1.1/DTD/svg11.dtd">
<svg width="100%" height="100%" viewBox="0 0 899 899" version="1.1" xmlns="http://www.w3.org/2000/svg" xmlns:xlink="http://www.w3.org/1999/xlink" xml:space="preserve" xmlns:serif="http://www.serif.com/" style="fill-rule:evenodd;clip-rule:evenodd;stroke-linejoin:round;stroke-miterlimit:2;">
    <g transform="matrix(1,0,0,1,-190.923,-2326.29)">
        <g transform="matrix(0.126208,0.00024266,0.00024266,-0.126208,-26.2665,1422.51)">
            <g transform="matrix(1,0,0,1,31.7375,-16506.7)">
                <g transform="matrix(7.92342,0.0152344,0.0152344,-7.92342,186.449,11271.5)">
                    <path d="M648.373,276.499C684.796,302.947 709.584,341.866 718.962,387.446C723.464,409.414 723.646,445.889 719.318,464.938C717.663,472.381 718.79,476.927 723.452,480.848C732.525,488.564 737.956,486.429 750.355,470.172C780.849,429.97 820.401,404.552 867.874,394.421C876.46,392.67 922.274,392.254 931.863,393.913C937.414,394.933 937.918,395.313 939.172,399.732C942.054,410.718 943.025,430.408 941.605,447.191C938.382,482.145 927.473,511.026 906.593,539.887C897.608,552.364 875.986,573.778 862.462,583.723C850.455,592.534 849.317,593.794 848.423,599.346C847.656,604.519 851.304,610.836 856.852,613.623C860.256,615.397 861.896,615.526 868.588,614.277C892.449,610.032 924,610.597 948.601,615.693C991.873,624.863 1032.96,652.203 1058.39,688.852L1061.28,693.149L1055.21,702.098C1051.79,707.013 1043.82,716.211 1037.5,722.51C1012.97,746.947 985.93,761.661 949.817,770.679C937.443,773.684 934.54,773.931 907.532,773.879C887.843,773.967 875.35,773.312 868.663,772.163C859.326,770.505 858.695,770.504 855.409,772.895C853.514,774.28 850.984,777.304 849.591,779.447C847.565,782.977 847.437,784.239 848.69,788.532C849.945,792.573 852.212,794.975 862.42,802.82C895.564,827.999 918.979,859.218 931.028,894.074C939.563,918.575 942.668,944.327 940.349,969.06C939.576,977.009 938.804,985.085 938.8,986.978C938.668,990.007 937.91,990.637 932.354,992.014C923.641,994.269 876.944,994.179 866.726,991.888C845.532,987.178 820.562,977.285 805.561,967.665C785.141,954.626 765.11,935.909 750.003,915.686C738.171,899.761 734.01,897.734 725.165,903.018C719.226,906.666 717.323,911.963 718.694,920.674C727.55,975.466 716.342,1027.95 687.11,1068.66C678.125,1081.13 662.318,1097.38 651.323,1105.31C638.684,1114.63 640.073,1114.51 628.982,1106.28C591.048,1077.81 566.645,1035.74 559.798,986.628C557.557,970.596 558.259,933.744 560.934,920.624C562.336,913.811 562.213,912.17 560.579,908.507C557.688,902.443 550.752,899.401 544.312,901.282C540.397,902.41 537.869,904.803 531.542,913.121C498.012,957.355 455.428,984.156 407.329,991.383C387.382,994.374 357.346,993.559 344.606,989.875C340.57,988.605 339.199,979.894 339.25,953.39C339.303,925.498 340.327,918.054 346.929,897.873C359.243,860.287 383.539,827.141 416.653,802.594C429.291,793.405 432.327,789.877 432.336,785.334C432.346,780.159 428.571,773.968 424.032,771.813C420.123,770.039 418.609,769.91 406.615,771.78C399.42,772.776 385.535,773.632 375.691,773.614C319.907,773.506 274.131,754.235 237.983,715.672C232.693,709.982 226.397,702.397 224.007,698.607L219.476,691.909L222.135,687.497C226.946,679.429 239.216,665.317 247.939,657.635C280.935,628.544 315.418,614.097 359.849,610.775C377.142,609.546 399.858,610.599 411.59,613.398C419.916,615.307 422.188,614.933 426.866,610.777C432.302,605.992 433.827,600.315 430.936,594.63C429.804,592.483 423.631,586.791 417.203,581.983C379.017,553.387 352.34,512.318 342.583,466.864C338.456,447.294 339.306,398.832 343.983,395.054C345.753,393.669 357.368,391.546 369.991,390.561C380.468,389.697 401.92,391.506 417.311,394.564C460.836,403.356 500.415,429.557 530.754,469.75C536.419,477.207 541.835,483.023 543.726,483.784C550.536,486.448 557.484,483.053 561.538,475.11C562.805,472.841 562.685,469.433 561.191,458.955C557.702,435.473 559.158,400.138 564.245,380.207C569.457,360.528 579.346,337.325 588.586,323.712C597.192,311.108 611.359,294.728 620.461,287.047C629.309,279.618 639.926,271.813 641.314,271.816C641.567,271.816 644.718,273.968 648.373,276.499Z" style="fill:white;"/>
                </g>
                <g transform="matrix(1,0,0,1,793.99,17.6036)">
                    <path d="M4414,9322C4305,9284 4101,9110 3963,8937C3756,8679 3614,8297 3609,7990C3608,7882 3606,7882 3510,7966C3350,8106 3163,8217 2960,8293C2709,8386 2372,8414 2130,8362C2025,8339 1976,8316 1944,8275C1911,8231 1882,8112 1871,7970C1834,7518 1998,7054 2314,6710L2365,6655L2335,6649C2319,6645 2279,6642 2247,6641C1987,6636 1645,6521 1409,6359C1125,6164 885,5862 919,5742C963,5589 1214,5319 1463,5156C1586,5076 1816,4983 1980,4946C2047,4932 2255,4902 2324,4898L2362,4895L2303,4830C2045,4546 1901,4212 1870,3824C1853,3619 1882,3385 1936,3292C1967,3239 2016,3213 2134,3189C2229,3169 2486,3162 2601,3175C2936,3215 3277,3373 3533,3608C3565,3637 3595,3658 3600,3655C3606,3652 3610,3618 3610,3580C3610,3327 3708,3003 3858,2763C4028,2489 4340,2216 4482,2218C4610,2220 4894,2464 5069,2723C5165,2866 5242,3040 5290,3222C5317,3323 5327,3393 5348,3595L5355,3665L5415,3609C5752,3296 6233,3128 6679,3169C6820,3182 6928,3207 6969,3237C7035,3286 7064,3376 7082,3588C7111,3920 7021,4284 6837,4580C6796,4646 6704,4767 6629,4852L6588,4900L6639,4900C6697,4900 6873,4924 6975,4946C7331,5022 7673,5235 7904,5524C7963,5599 8026,5706 8035,5747C8045,5794 8025,5851 7971,5932C7823,6152 7600,6346 7352,6470C7146,6573 6954,6623 6671,6648L6588,6655L6647,6720C6769,6854 6851,6978 6931,7145C7064,7425 7118,7761 7075,8045C7036,8306 7000,8340 6725,8376C6638,8388 6572,8390 6485,8385C6065,8362 5719,8218 5416,7942C5384,7913 5356,7890 5355,7892C5353,7894 5347,7953 5341,8023C5308,8408 5176,8728 4935,9003C4803,9155 4609,9306 4518,9328C4462,9342 4476,9343 4414,9322ZM4534,9073C4823,8864 5020,8556 5095,8195C5131,8021 5133,7732 5099,7581C5086,7522 5095,7486 5132,7455C5204,7394 5247,7411 5345,7540C5586,7859 5899,8061 6275,8142C6343,8156 6706,8160 6782,8147C6826,8139 6830,8136 6840,8101C6863,8014 6871,7858 6860,7725C6835,7448 6749,7219 6584,6990C6513,6891 6342,6721 6235,6642C6140,6572 6131,6562 6124,6518C6118,6477 6147,6427 6191,6405C6218,6391 6231,6390 6284,6400C6473,6434 6723,6430 6918,6390C7261,6318 7587,6102 7789,5812L7812,5778L7764,5707C7737,5668 7674,5595 7624,5545C7430,5351 7216,5234 6930,5162C6832,5138 6809,5136 6595,5136C6439,5135 6340,5140 6287,5149C6213,5162 6208,5162 6182,5143C6167,5132 6147,5108 6136,5091C6120,5063 6119,5053 6129,5019C6139,4987 6157,4968 6238,4906C6501,4707 6687,4460 6783,4184C6851,3990 6876,3786 6858,3590C6852,3527 6846,3463 6846,3448C6845,3424 6839,3419 6795,3408C6726,3390 6356,3390 6275,3408C6107,3445 5909,3523 5790,3599C5628,3702 5469,3850 5349,4010C5255,4136 5222,4152 5152,4110C5105,4081 5090,4039 5101,3970C5172,3536 5084,3120 4853,2797C4782,2698 4657,2569 4570,2506C4470,2432 4481,2433 4393,2498C4092,2723 3898,3056 3843,3445C3825,3572 3830,3864 3851,3968C3862,4022 3861,4035 3848,4064C3825,4112 3770,4136 3719,4121C3688,4112 3668,4093 3618,4027C3353,3676 3016,3463 2635,3405C2477,3381 2239,3387 2138,3416C2106,3426 2095,3495 2095,3705C2095,3926 2103,3985 2155,4145C2252,4443 2444,4706 2706,4901C2806,4974 2830,5002 2830,5038C2830,5079 2800,5128 2764,5145C2733,5159 2721,5160 2626,5145C2569,5137 2459,5130 2381,5130C1939,5130 1576,5282 1289,5587C1247,5632 1197,5692 1178,5722L1142,5775L1163,5810C1201,5874 1298,5986 1367,6047C1628,6278 1901,6393 2253,6420C2390,6430 2570,6422 2663,6400C2729,6385 2747,6388 2784,6421C2827,6459 2839,6504 2816,6549C2807,6566 2758,6611 2707,6649C2404,6875 2192,7200 2114,7560C2081,7715 2087,8099 2124,8129C2138,8140 2230,8157 2330,8165C2413,8172 2583,8158 2705,8134C3050,8065 3364,7858 3605,7540C3650,7481 3693,7435 3708,7429C3762,7408 3817,7435 3849,7498C3859,7516 3858,7543 3846,7626C3818,7812 3829,8092 3869,8250C3910,8406 3988,8590 4061,8698C4129,8798 4241,8928 4313,8989C4383,9048 4467,9110 4478,9110C4480,9110 4505,9093 4534,9073Z" style="fill:rgb(26,54,32);fill-rule:nonzero;"/>
                </g>
                <g transform="matrix(7.92342,0.0152344,0.0152344,-7.92342,154.712,27778.2)">
                    <path d="M635.446,2519.15C641.635,2516.64 649.833,2519.18 652.852,2524.61C654.11,2526.64 654.587,2540.9 655.014,2581.54L655.541,2635.68L663.126,2629.39C673.491,2620.82 688.666,2605.08 696.89,2594.49C708.278,2579.62 710.806,2577.35 715.856,2576.48C719.643,2575.98 721.536,2576.36 725.065,2578.77C731.493,2583.2 732.118,2586.61 729.693,2600.36C727.523,2613.1 726.687,2653.87 728.438,2662.45L729.438,2667.38L768.384,2628.83L807.205,2590.16L813.01,2590.17C817.932,2590.18 819.572,2590.81 822.721,2594.1C825.996,2597.26 826.624,2598.91 826.614,2603.83L826.603,2609.63L787.909,2648.3C752.25,2683.95 749.341,2686.98 752.116,2687.99C757.918,2689.89 799.82,2689.09 814.086,2686.85C826.711,2684.85 827.973,2684.86 832.008,2686.76C836.547,2688.91 840.322,2694.98 840.312,2700.28C840.304,2704.57 837.394,2708.1 829.179,2714.14C815.024,2724.46 800.864,2737.05 791.251,2748.14C785.938,2754.32 781.384,2759.86 781.13,2760.62C780.877,2761.25 800.69,2761.79 833.126,2761.85C890.929,2761.96 892.569,2762.22 896.215,2769.42C899.485,2775.74 898.844,2780.53 893.913,2785.44L889.613,2789.73L835.218,2789.62C801.773,2789.56 780.821,2790.02 780.82,2790.65C780.812,2794.94 810.918,2825.04 826.546,2836.3C837.637,2844.4 840.783,2848.95 839.508,2855.51C838.616,2860.18 833.431,2865.85 829.138,2866.85C827.622,2867.22 822.197,2866.58 817.15,2865.57C807.058,2863.4 756.955,2862.42 752.408,2864.3C750.261,2865.18 755.172,2870.62 786.537,2902.23C806.692,2922.59 823.822,2940.42 824.576,2941.93C827.342,2947.49 826.321,2953.55 821.642,2958.21C817.09,2962.74 811.913,2963.74 806.618,2961.08C805.105,2960.32 787.09,2942.87 766.432,2922.26L729.146,2884.96L728.124,2891.14C726.211,2901.86 726.903,2935.44 729.273,2949.95C730.893,2960.69 731.139,2964.09 729.873,2966.36C725.819,2974.31 718.871,2977.7 712.061,2975.04C710.169,2974.28 705.131,2968.84 699.97,2961.89C689.144,2947.23 678.187,2935.34 665.083,2924.09L655.003,2915.48L654.267,2970.26L653.53,3025.16L649.863,3028.93C647.966,3030.95 644.933,3032.96 643.165,3033.47C638.746,3034.47 631.935,3031.93 628.914,3028.14C626.522,3024.98 626.399,3023.08 626.501,2970.08L626.607,2915.18L621.678,2918.83C609.165,2928.02 588.552,2949.56 579.06,2963.42C571.719,2974.01 566.665,2976.9 559.476,2974.74C556.827,2973.98 553.424,2971.7 551.913,2969.81C549.017,2966.02 549.022,2963.49 552.223,2939.9C553.633,2928.54 553.334,2886.89 551.697,2885.25C551.193,2884.87 533.617,2901.62 512.627,2922.4C487.716,2947.22 473.176,2960.7 471.03,2961.2C461.055,2963.7 451.733,2954.34 454.277,2944.38C454.785,2942.23 468.318,2927.75 493.102,2902.93C530.784,2865.39 531.164,2864.89 527.506,2863.87C521.073,2862.09 475.636,2862.89 464.526,2864.89C449.628,2867.63 442.819,2864.72 440.566,2854.49C439.316,2848.68 442.353,2844.4 453.854,2835.84C469.02,2824.76 483.813,2810.91 493.175,2799.44L501.019,2789.61L445.489,2788.87C384.531,2788.12 387.055,2788.38 383.663,2780.17C381.528,2774.99 383.053,2769.19 387.858,2764.66L391.145,2761.63L445.921,2761.11L500.57,2760.58L490.117,2748.57C478.784,2735.42 468.705,2726.32 453.834,2715.18C442.869,2707.09 439.597,2702.41 440.745,2696.1C441.637,2691.68 448.971,2684.13 452.253,2684.13C453.389,2684.14 459.697,2685.16 466.51,2686.31C479.505,2688.6 520.774,2689.44 527.845,2687.56C531.507,2686.68 531.129,2686.18 494.347,2649.13C473.815,2628.52 456.433,2610.31 455.679,2608.79C453.039,2603.49 454.058,2598.32 458.611,2593.78C463.289,2589.12 469.349,2588.12 474.897,2590.91C476.41,2591.67 494.172,2608.87 514.453,2629.1C545.944,2660.59 551.362,2665.52 552.25,2663.38C554.025,2658.96 553.231,2612.64 551.235,2600.39C549.612,2591.05 549.491,2588.4 550.885,2585.25C553.041,2580.08 556.707,2577.06 562.135,2576.18C568.448,2575.19 571.346,2577.46 582.046,2592C591.865,2605.14 611.64,2625.63 621.345,2632.46L627.142,2636.64L627.248,2581.86C627.352,2527.72 627.353,2526.96 630.01,2523.68C631.528,2521.8 633.93,2519.65 635.446,2519.15ZM614.473,2661.98C609.935,2658.82 600.863,2651.48 594.184,2645.79L582.088,2635.41L581.302,2650.68C579.339,2687.15 573.376,2703.3 559.987,2708.82C552.535,2711.97 530.315,2715.84 515.168,2716.69C507.216,2717.05 500.778,2717.67 500.778,2717.92C500.777,2718.3 505.31,2723.74 510.977,2730.06C523.193,2744.09 534.142,2760.14 536.903,2768.22C538.534,2773.15 538.656,2775.3 537.384,2780.72C535.601,2788.79 523.956,2806.57 510.169,2822.06C504.857,2828.11 500.556,2833.28 500.556,2833.53C500.555,2833.78 507.243,2834.43 515.446,2834.82C536.142,2836 551.533,2838.93 560.738,2843.49C567.925,2846.91 568.933,2847.92 572.327,2855.12C576.978,2864.6 579.851,2880.25 580.822,2900.45C581.184,2908.65 581.803,2915.34 582.055,2915.34C582.434,2915.34 586.984,2911.57 592.294,2906.91C605.315,2895.57 620.104,2884.88 627.556,2881.23C636.021,2877.08 644.223,2877.22 653.427,2881.78C661.749,2885.96 681.283,2900.39 690.353,2909.37C693.88,2912.78 697.03,2915.56 697.409,2915.57C697.787,2915.57 698.556,2909.51 699.076,2901.94C700.64,2875.82 704.332,2859.29 710.153,2851.35C717.113,2841.64 733.908,2836.76 765.337,2835.3C773.794,2834.94 780.736,2834.32 780.737,2833.94C780.737,2833.69 777.211,2829.64 772.929,2824.97C763.231,2814.72 752.279,2800.19 746.745,2790.34C741.588,2781.11 741.225,2772.66 745.533,2764.21C749.713,2756.01 760.343,2741.14 770.715,2729.3C775.648,2723.63 779.696,2718.71 779.697,2718.46C779.697,2718.21 772.757,2717.56 764.176,2717.04C746.13,2716 727.71,2712.55 719.641,2708.5C713.084,2705.33 707.167,2698 705.161,2690.68C702.405,2680.2 700.163,2664.54 699.433,2650.28L698.705,2635.51L687.2,2645.59C672.156,2658.81 653.201,2671.39 646.004,2673.02C636.66,2675.02 629.597,2672.61 614.473,2661.98Z" style="fill:rgb(26,54,32);"/>
                </g>
                <g transform="matrix(7.92342,0.0152344,0.0152344,-7.92342,154.712,27778.2)">
                    <path d="M865.244,2533.22C870.045,2530.2 877.616,2530.98 881.774,2534.9C885.175,2538.06 886.804,2544.37 885.407,2548.91C884.01,2553.33 859.732,2577.39 854.933,2578.89C848.366,2581.03 841.179,2577.48 838.668,2570.78C837.035,2566.62 836.912,2564.72 838.054,2561.82C839.576,2557.79 859.431,2537 865.244,2533.22Z" style="fill:rgb(26,54,32);"/>
                </g>
                <g transform="matrix(7.92342,0.0152344,0.0152344,-7.92342,154.712,27778.2)">
                    <path d="M932.954,2763.18C934.343,2762.68 943.052,2762.19 952.266,2762.21C970.44,2762.12 975.864,2763.39 979.514,2768.57C983.29,2774.13 981.632,2783.09 975.944,2787.62C973.668,2789.51 970.26,2789.88 952.97,2789.85C934.291,2789.81 932.272,2789.56 929.374,2787.28C921.435,2780.95 923.481,2767.07 932.954,2763.18Z" style="fill:rgb(26,54,32);"/>
                </g>
                <g transform="matrix(7.92342,0.0152344,0.0152344,-7.92342,154.712,27778.2)">
                    <path d="M843.445,2974.53C847.74,2972.27 852.915,2972.15 857.201,2974.43C861.236,2976.59 881.768,2997.32 883.78,3001.37C889.437,3012.61 877.801,3025.46 866.326,3020.64C860.525,3018.23 837.727,2994.21 836.727,2989.41C835.601,2984.24 838.896,2977.05 843.445,2974.53Z" style="fill:rgb(26,54,32);"/>
                </g>
                <g transform="matrix(7.92342,0.0152344,0.0152344,-7.92342,154.712,27778.2)">
                    <path d="M634.405,3060.58C641.225,3057.82 649.549,3060.99 652.187,3067.43C654.825,3073.62 654.768,3103.16 652.233,3109.21C648.429,3118.29 635.931,3119.9 629.509,3112.19C626.235,3108.4 626.236,3107.9 626.274,3088.46C626.309,3069.91 626.565,3068.27 628.969,3065.12C630.487,3063.23 632.889,3061.09 634.405,3060.58Z" style="fill:rgb(26,54,32);"/>
                </g>
                <g transform="matrix(7.92342,0.0152344,0.0152344,-7.92342,154.712,27778.2)">
                    <path d="M424.562,2973.22C428.983,2971.59 430.371,2971.59 435.289,2973.62C442.351,2976.66 445.238,2984.87 441.691,2991.81C438.397,2997.99 415.386,3019.4 410.841,3020.4C401.119,3022.4 392.304,3012.41 395.477,3002.83C397.001,2998.28 419.763,2975.11 424.562,2973.22Z" style="fill:rgb(26,54,32);"/>
                </g>
                <g transform="matrix(7.92342,0.0152344,0.0152344,-7.92342,154.712,27778.2)">
                    <path d="M306.71,2762.86C312.647,2759.97 342.684,2760.03 348.863,2763.07C357.815,2767.25 359.181,2779.12 351.596,2785.41C347.804,2788.68 347.299,2788.68 327.737,2788.65C308.175,2788.61 307.67,2788.61 303.89,2785.32C296.582,2779.12 298.119,2767.13 306.71,2762.86Z" style="fill:rgb(26,54,32);"/>
                </g>
                <g transform="matrix(7.92342,0.0152344,0.0152344,-7.92342,154.712,27778.2)">
                    <path d="M400.166,2533.72C404.212,2529.56 410.65,2528.82 416.324,2531.86C420.358,2534.01 440.89,2554.75 442.902,2558.79C448.308,2569.4 437.557,2581.88 426.205,2578.19C420.908,2576.42 396.849,2552.14 395.722,2547.34C394.469,2542.42 395.993,2537.88 400.166,2533.72Z" style="fill:rgb(26,54,32);"/>
                </g>
                <g transform="matrix(7.92342,0.0152344,0.0152344,-7.92342,154.712,27778.2)">
                    <path d="M633.964,2436.36C640.66,2432.71 649.994,2435.5 653.515,2442.33C655.023,2445.48 655.394,2449.78 654.986,2464.92C654.571,2483.6 654.571,2483.72 651.03,2487.38C646.604,2492.04 641.301,2493.16 635.752,2490.88C628.06,2487.71 627.433,2485.44 627.475,2463.61C627.642,2442.66 628.405,2439.5 633.964,2436.36Z" style="fill:rgb(26,54,32);"/>
                </g>
                <g transform="matrix(7.92342,0.0152344,0.0152344,-7.92342,154.712,27778.2)">
                    <path d="M614.473,2661.98C629.597,2672.61 636.66,2675.02 646.004,2673.02C653.201,2671.39 672.156,2658.81 687.2,2645.59L698.705,2635.51L699.433,2650.28C700.163,2664.54 702.405,2680.2 705.161,2690.68C707.167,2698 713.084,2705.33 719.641,2708.5C727.71,2712.55 746.13,2716 764.176,2717.04C772.757,2717.56 779.697,2718.21 779.697,2718.46C779.696,2718.71 775.648,2723.63 770.715,2729.3C760.343,2741.14 749.713,2756.01 745.533,2764.21C741.225,2772.66 741.588,2781.11 746.745,2790.34C752.279,2800.19 763.231,2814.72 772.929,2824.97C777.211,2829.64 780.737,2833.69 780.737,2833.94C780.736,2834.32 773.794,2834.94 765.337,2835.3C733.908,2836.76 717.113,2841.64 710.153,2851.35C704.332,2859.29 700.64,2875.82 699.076,2901.94C698.556,2909.51 697.787,2915.57 697.409,2915.57C697.03,2915.56 693.88,2912.78 690.353,2909.37C681.283,2900.39 661.749,2885.96 653.427,2881.78C644.223,2877.22 636.021,2877.08 627.556,2881.23C620.104,2884.88 605.315,2895.57 592.294,2906.91C586.984,2911.57 582.434,2915.34 582.055,2915.34C581.803,2915.34 581.184,2908.65 580.822,2900.45C579.851,2880.25 576.978,2864.6 572.327,2855.12C568.933,2847.92 567.925,2846.91 560.738,2843.49C551.533,2838.93 536.142,2836 515.446,2834.82C507.243,2834.43 500.555,2833.78 500.556,2833.53C500.556,2833.28 504.857,2828.11 510.169,2822.06C523.956,2806.57 535.601,2788.79 537.384,2780.72C538.656,2775.3 538.534,2773.15 536.903,2768.22C534.142,2760.14 523.193,2744.09 510.977,2730.06C505.31,2723.74 500.777,2718.3 500.778,2717.92C500.778,2717.67 507.216,2717.05 515.168,2716.69C530.315,2715.84 552.535,2711.97 559.987,2708.82C573.376,2703.3 579.339,2687.15 581.302,2650.68L582.088,2635.41L594.184,2645.79C600.863,2651.48 609.935,2658.82 614.473,2661.98Z" style="fill:white;"/>
                </g>
            </g>
        </g>
    </g>
</svg>
