<?xml version="1.0" encoding="UTF-8" standalone="no"?>
<!DOCTYPE svg PUBLIC "-//W3C//DTD SVG 1.1//EN" "http://www.w3.org/Graphics/SVG/1.1/DTD/svg11.dtd">
<svg width="100%" height="100%" viewBox="0 0 685 681" version="1.1"
    xmlns="http://www.w3.org/2000/svg" xmlns:xlink="http://www.w3.org/1999/xlink"
    xml:space="preserve" xmlns:serif="http://www.serif.com/"
    style="fill-rule:evenodd;clip-rule:evenodd;stroke-linejoin:round;stroke-miterlimit:2;">
    <g transform="matrix(1,0,0,1,-224.718,-1044.83)">
        <g transform="matrix(0.0955785,0.000470009,0.000470009,-0.0955785,24.6973,1123.49)">
            <g transform="matrix(10.4623,0.0514488,0.0514488,-10.4623,-276.899,3762.19)">
                <path d="M562.207,590.392C565.266,591.825 567.848,597.081 566.989,600.331C565.558,606.257 557.53,608.458 552.845,604.159C545.961,597.758 553.603,586.477 562.207,590.392Z" style="fill:rgb(242,234,140);"/>
            </g>
            <g transform="matrix(10.4623,0.0514488,0.0514488,-10.4623,-276.899,3762.19)">
                <path d="M584.206,636.263C585.545,637.887 586.693,639.99 586.693,640.945C586.696,649.834 574.845,653.375 570.924,645.634C568.915,641.812 569.106,639.613 571.972,636.267C573.883,633.877 575.221,633.303 578.088,633.302C580.956,633.301 582.294,633.874 584.206,636.263Z" style="fill:rgb(242,234,140);"/>
            </g>
            <g transform="matrix(10.4623,0.0514488,0.0514488,-10.4623,-276.899,3762.19)">
                <path d="M530.39,620.893C531.346,621.467 532.875,623.186 533.736,624.811C538.136,633.412 527.529,641.253 520.645,634.374C513.665,627.399 521.69,616.309 530.39,620.893Z" style="fill:rgb(242,234,140);"/>
            </g>
            <g transform="matrix(0.999986,0.00526847,-0.00526847,0.999986,1243.68,-8508)">
                <path d="M4240,9330C4117,9308 4022,9261 3894,9163C3602,8938 3346,8544 3224,8130C3209,8078 3195,8034 3194,8032C3193,8030 3151,8049 3101,8074C2914,8168 2701,8242 2500,8282C2401,8301 2354,8305 2165,8304C1914,8304 1873,8297 1730,8227C1534,8132 1391,7907 1402,7713C1406,7651 1406,7650 1380,7650C1271,7650 1100,7545 1015,7426C891,7252 866,7088 921,6804C1004,6373 1307,5888 1685,5585C1732,5547 1769,5513 1768,5509C1766,5506 1728,5463 1683,5414C1509,5224 1395,5060 1291,4849C1164,4593 1107,4373 1106,4140C1105,4007 1107,3989 1133,3917C1209,3702 1381,3551 1590,3516C1625,3510 1625,3510 1621,3464C1613,3359 1677,3193 1766,3092C1903,2936 2078,2870 2361,2870C2799,2870 3264,3038 3663,3342L3741,3401L3772,3328C3978,2856 4317,2475 4693,2294C4811,2238 4882,2220 4994,2220C5190,2218 5376,2309 5466,2449C5493,2490 5510,2507 5520,2503C5528,2500 5560,2488 5590,2477C5675,2445 5815,2442 5917,2470C6052,2506 6177,2592 6262,2708C6317,2782 6401,2962 6444,3094C6567,3475 6571,3920 6455,4345C6411,4506 6369,4606 6290,4736L6250,4800L6298,4800C6429,4800 6654,4840 6781,4886C7094,4998 7497,5304 7705,5585C7860,5795 7945,5952 8009,6144C8077,6349 8076,6504 8006,6663C7946,6799 7820,6922 7699,6963C7675,6971 7656,6981 7657,6984C7676,7057 7681,7133 7671,7197C7629,7471 7450,7655 7150,7734C6985,7777 6917,7784 6685,7784C6442,7784 6310,7767 6118,7711L6020,7682L6020,7791C6020,8341 5738,8977 5421,9144C5322,9196 5232,9220 5137,9220C5029,9220 4934,9196 4859,9151L4796,9113L4749,9164C4659,9262 4518,9325 4370,9334C4323,9337 4265,9335 4240,9330ZM4502,9076C4604,9027 4640,8962 4640,8825C4640,8713 4672,8670 4754,8670C4815,8670 4841,8703 4875,8822C4892,8884 4935,8941 4982,8966C5098,9026 5297,8989 5400,8889C5502,8790 5636,8553 5698,8360C5771,8134 5795,7974 5794,7700C5793,7396 5759,7234 5655,7032C5574,6876 5500,6781 5330,6609C5164,6442 5062,6359 4853,6219C4780,6170 4715,6120 4709,6108C4697,6085 4697,6085 4687,6115C4658,6203 4567,6292 4477,6320C4418,6339 4304,6329 4247,6300C4221,6287 4192,6268 4183,6258C4157,6229 4150,6236 4150,6293C4150,6321 4143,6404 4135,6475C4059,7121 3835,7581 3463,7850C3420,7881 3400,7902 3400,7916C3400,7945 3443,8093 3486,8211C3630,8604 3950,8997 4201,9091C4282,9121 4424,9114 4502,9076ZM2330,8080C2632,8043 2903,7945 3178,7772C3446,7603 3592,7444 3716,7186C3777,7057 3810,6962 3850,6795C3900,6582 3930,6333 3930,6120L3930,5994L3898,5976C3880,5966 3848,5942 3828,5922L3791,5887L3698,5904C3212,5989 2811,5988 2467,5900C2293,5855 2165,5801 2036,5716L1951,5661L1892,5705C1804,5769 1578,5991 1505,6085C1330,6309 1203,6567 1144,6815C1135,6854 1126,6941 1123,7010C1119,7121 1120,7141 1139,7191C1168,7267 1208,7320 1272,7368C1372,7444 1451,7447 1561,7381C1596,7360 1637,7340 1653,7336C1688,7328 1731,7350 1760,7391C1794,7437 1782,7480 1720,7546C1692,7576 1660,7621 1648,7647C1585,7789 1697,7985 1881,8054C1967,8087 2175,8098 2330,8080ZM6965,7544C7182,7507 7296,7454 7372,7352C7425,7282 7450,7212 7450,7132C7450,7063 7428,7018 7372,6972C7269,6887 7250,6865 7250,6825C7250,6759 7295,6710 7354,6710C7367,6710 7408,6721 7444,6735C7562,6779 7634,6767 7719,6686C7819,6591 7858,6455 7826,6317C7786,6146 7696,5956 7572,5780C7487,5660 7265,5435 7140,5343C6819,5107 6599,5030 6251,5030C5947,5030 5633,5097 5255,5242C5149,5283 4886,5401 4873,5414C4871,5415 4877,5434 4885,5454C4908,5510 4906,5611 4880,5681L4858,5740L4881,5861L4903,5981L4989,6037C5172,6156 5357,6308 5511,6467C5788,6751 5940,7028 5996,7347L6013,7448L6119,7479C6240,7515 6396,7546 6520,7559C6630,7572 6851,7564 6965,7544ZM4424,6099C4456,6084 4483,6029 4474,5995C4459,5933 4375,5910 4326,5955C4254,6022 4334,6140 4424,6099ZM4091,5780C4101,5774 4117,5756 4126,5739C4172,5649 4061,5567 3989,5639C3916,5712 4000,5828 4091,5780ZM3480,5711C3549,5701 3635,5686 3671,5679L3738,5667L3744,5628C3758,5539 3825,5459 3923,5415C3970,5393 3996,5388 4056,5388C4096,5388 4130,5387 4130,5385C4130,5383 4097,5329 4056,5263C3855,4940 3716,4612 3653,4310C3630,4201 3626,4161 3626,3990C3625,3831 3629,3779 3644,3711L3664,3627L3634,3603C3267,3300 2900,3138 2488,3099C2347,3085 2181,3097 2100,3125C1958,3175 1850,3312 1850,3443C1851,3510 1875,3561 1939,3628C1985,3676 1990,3686 1990,3727C1990,3765 1985,3777 1956,3806C1911,3851 1870,3852 1804,3807C1723,3753 1701,3745 1631,3745C1552,3745 1499,3772 1429,3847C1319,3964 1299,4093 1351,4351C1400,4601 1546,4902 1729,5130C1862,5297 2065,5478 2215,5562C2366,5647 2604,5714 2830,5734C2948,5744 3359,5730 3480,5711ZM4654,5619C4668,5602 4680,5580 4680,5570C4680,5477 4556,5440 4515,5521C4494,5561 4496,5584 4526,5619C4546,5644 4560,5650 4590,5650C4620,5650 4634,5644 4654,5619ZM4419,5301C4480,5262 4547,5246 4624,5253C4678,5258 4691,5256 4730,5233C4796,5196 5017,5095 5155,5040C5380,4951 5679,4864 5853,4839C5951,4825 5971,4809 6061,4677C6169,4520 6237,4342 6282,4100C6338,3797 6320,3445 6235,3166C6203,3062 6102,2857 6057,2805C6013,2755 5928,2703 5858,2684C5704,2643 5590,2699 5522,2851C5499,2904 5486,2920 5456,2934C5413,2954 5367,2944 5333,2907C5302,2873 5297,2845 5311,2770C5321,2714 5321,2689 5311,2643C5278,2498 5075,2407 4891,2454C4652,2515 4308,2828 4102,3171C4000,3341 3896,3602 3864,3767C3842,3879 3842,4082 3864,4210C3905,4449 4004,4717 4150,4980C4203,5077 4362,5330 4369,5330C4371,5330 4394,5317 4419,5301Z" style="fill-rule:nonzero;"/>
            </g>
            <g transform="matrix(10.4623,0.0514488,0.0514488,-10.4623,-276.899,3762.19)">
                <path d="M805.026,452.194C825.768,455.724 836.666,460.785 843.934,470.532C849.002,477.221 851.394,483.911 851.396,491.557C851.399,498.152 849.297,502.454 843.946,506.852C834.105,514.98 832.289,517.083 832.291,520.907C832.293,527.215 836.596,531.897 842.235,531.895C843.477,531.894 847.396,530.842 850.836,529.502C862.113,525.293 868.995,526.437 877.122,534.176C886.683,543.253 890.415,556.251 887.362,569.442C883.544,585.787 874.948,603.95 863.102,620.777C854.982,632.249 833.771,653.762 821.827,662.559C791.153,685.127 770.128,692.494 736.867,692.506C707.811,692.516 677.796,686.123 641.662,672.276C631.529,668.361 606.388,657.091 605.145,655.849C604.954,655.754 605.527,653.938 606.291,652.026C608.487,646.672 608.293,637.019 605.805,630.329L603.7,624.691L605.895,613.125L607.993,601.655L616.211,596.299C633.699,584.919 651.376,570.385 666.09,555.182C692.556,528.029 707.074,501.548 712.416,471.056L714.038,461.402L724.168,458.435C735.732,454.991 750.641,452.022 762.493,450.776C773.006,449.529 794.13,450.287 805.026,452.194Z" style="fill:rgb(121,157,236);"/>
            </g>
            <g transform="matrix(10.4623,0.0514488,0.0514488,-10.4623,-276.899,3762.19)">
                <path d="M569.562,305.849C579.313,310.529 582.756,316.74 582.761,329.835C582.764,340.54 585.824,344.649 593.662,344.646C599.492,344.644 601.976,341.489 605.222,330.114C606.845,324.187 610.953,318.738 615.444,316.347C626.529,310.608 645.551,314.138 655.399,323.692C665.151,333.151 677.967,355.799 683.9,374.244C690.884,395.842 693.184,411.134 693.097,437.323C693.012,466.38 689.768,481.865 679.834,501.175C672.097,516.088 665.028,525.171 648.785,541.616C632.924,557.584 623.178,565.52 603.207,578.908C596.231,583.594 590.02,588.375 589.447,589.523C588.301,591.721 588.301,591.721 587.344,588.854C584.569,580.444 575.868,571.941 567.265,569.267C561.625,567.453 550.73,568.413 545.283,571.187C542.798,572.43 540.027,574.247 539.167,575.203C536.683,577.976 536.013,577.307 536.012,571.859C536.011,569.183 535.339,561.25 534.572,554.464C527.286,492.722 505.861,448.763 470.296,423.065C466.185,420.103 464.273,418.097 464.272,416.758C464.271,413.987 468.376,399.839 472.482,388.559C486.233,350.992 516.805,313.418 540.792,304.425C548.533,301.555 562.106,302.22 569.562,305.849Z" style="fill:rgb(121,157,236);"/>
            </g>
            <g transform="matrix(10.4623,0.0514488,0.0514488,-10.4623,-276.899,3762.19)">
                <path d="M361.997,401.119C390.863,404.646 416.768,414.003 443.058,430.529C468.679,446.673 482.639,461.866 494.5,486.521C500.335,498.849 503.492,507.928 507.321,523.888C512.107,544.245 514.983,568.043 514.99,588.402L514.994,600.445L511.936,602.166C510.216,603.123 507.158,605.418 505.247,607.33L501.712,610.676L492.823,609.055C446.368,600.947 408.041,601.056 375.164,609.478C358.535,613.785 346.302,618.951 333.975,627.079L325.853,632.339L320.212,628.136C311.799,622.021 290.191,600.81 283.21,591.828C266.476,570.424 254.329,545.769 248.682,522.067C247.82,518.34 246.957,510.025 246.668,503.43C246.282,492.821 246.377,490.909 248.191,486.129C250.96,478.864 254.782,473.797 260.897,469.207C270.453,461.94 278.003,461.651 288.519,467.955C291.865,469.961 295.785,471.871 297.314,472.253C300.66,473.017 304.769,470.912 307.539,466.993C310.787,462.595 309.639,458.485 303.711,452.179C301.034,449.313 297.974,445.013 296.826,442.528C290.8,428.958 301.498,410.221 319.082,403.619C327.301,400.462 347.181,399.404 361.997,401.119Z" style="fill:rgb(121,157,236);"/>
            </g>
            <g transform="matrix(10.4623,0.0514488,0.0514488,-10.4623,-276.899,3762.19)">
                <path d="M471.993,627.509C478.588,628.462 486.808,629.893 490.249,630.561L496.654,631.706L497.228,635.433C498.57,643.939 504.976,651.583 514.344,655.786C518.837,657.887 521.323,658.364 527.057,658.362C530.881,658.36 534.13,658.455 534.13,658.646C534.13,658.837 530.978,664 527.062,670.309C507.861,701.188 494.586,732.543 488.575,761.41C486.38,771.829 485.999,775.652 486.005,791.997C485.915,807.194 486.299,812.164 487.735,818.663L489.649,826.691L486.783,828.986C451.715,857.959 416.643,873.455 377.265,877.196C363.789,878.539 347.922,877.398 340.18,874.724C326.606,869.95 316.278,856.859 316.274,844.338C316.367,837.934 318.659,833.059 324.774,826.653C329.169,822.064 329.647,821.108 329.646,817.189C329.644,813.557 329.166,812.41 326.393,809.639C322.091,805.34 318.172,805.245 311.865,809.549C304.125,814.713 302.022,815.478 295.332,815.481C287.781,815.483 282.714,812.904 276.021,805.738C265.504,794.559 263.588,782.23 268.549,757.569C273.224,733.672 287.169,704.898 304.652,683.099C317.359,667.133 336.755,649.826 351.089,641.793C365.519,633.663 388.265,627.252 409.865,625.332C421.143,624.373 460.427,625.697 471.993,627.509Z" style="fill:rgb(121,157,236);"/>
            </g>
            <g transform="matrix(10.4623,0.0514488,0.0514488,-10.4623,-276.899,3762.19)">
                <path d="M561.756,666.665C567.587,670.391 573.992,671.918 581.351,671.246C586.512,670.766 587.755,670.957 591.483,673.154C597.793,676.688 618.919,686.334 632.111,691.587C653.62,700.086 682.201,708.391 698.832,710.775C708.2,712.11 710.112,713.638 718.718,726.252C729.046,741.254 735.552,758.265 739.861,781.394C745.224,810.352 743.515,843.997 735.4,870.667C732.345,880.608 722.698,900.205 718.399,905.177C714.195,909.957 706.073,914.93 699.383,916.749C684.665,920.673 673.767,915.324 667.262,900.798C665.062,895.733 663.819,894.204 660.951,892.867C656.841,890.957 652.444,891.914 649.196,895.452C646.234,898.703 645.757,901.379 647.098,908.547C648.055,913.899 648.056,916.289 647.102,920.686C643.953,934.546 624.553,943.251 606.965,938.764C584.119,932.942 551.229,903.037 531.528,870.26C521.774,854.015 511.825,829.072 508.76,813.303C506.654,802.599 506.647,783.196 508.746,770.961C512.656,748.116 522.11,722.497 536.056,697.355C541.118,688.082 556.307,663.895 556.976,663.895C557.167,663.895 559.366,665.137 561.756,666.665Z" style="fill:rgb(121,157,236);"/>
            </g>
        </g>
    </g>
</svg>