<?xml version="1.0" encoding="UTF-8" standalone="no"?>
<!DOCTYPE svg PUBLIC "-//W3C//DTD SVG 1.1//EN" "http://www.w3.org/Graphics/SVG/1.1/DTD/svg11.dtd">
<svg width="100%" height="100%" viewBox="0 0 760 760" version="1.1"
    xmlns="http://www.w3.org/2000/svg" xmlns:xlink="http://www.w3.org/1999/xlink"
    xml:space="preserve" xmlns:serif="http://www.serif.com/"
    style="fill-rule:evenodd;clip-rule:evenodd;stroke-linejoin:round;stroke-miterlimit:2;">
    <g transform="matrix(1,0,0,1,-1427.74,-1145.57)">
        <g>
            <g transform="matrix(1,0,0,1,1287.13,975.872)">
                <path d="M532.154,477.979C555.91,481.628 576.099,497.114 586.882,519.897C591.666,530.032 592.558,534.735 592.558,549.734C592.558,564.734 591.666,569.437 586.882,579.571C579.099,596.031 567.586,607.706 551.532,615.409C540.586,620.598 533.694,622.057 520.397,622.057C506.533,622.057 499.803,620.517 487.884,614.598C467.452,604.382 453.345,585.734 448.723,562.869C447.588,557.356 447.588,542.113 448.723,536.599C453.182,514.384 466.966,495.735 486.506,485.519C501.344,477.736 515.451,475.384 532.154,477.979Z" style="fill:rgb(242,234,140);"/>
            </g>
            <g transform="matrix(0.0810794,-1.53536e-33,-1.53536e-33,-0.0810794,1361.19,2069.65)">
                <path d="M5413,11390C5303,11370 5175,11304 5102,11229C4999,11124 4826,10807 4748,10580C4694,10421 4631,10135 4630,10048C4630,10027 4627,10010 4623,10010C4618,10011 4588,10048 4555,10093C4474,10204 4259,10417 4125,10521C3953,10654 3705,10793 3585,10824C3504,10846 3370,10844 3288,10821C3108,10772 2962,10626 2906,10440C2853,10265 2869,9844 2941,9566C2968,9460 3036,9260 3071,9183C3086,9148 3097,9120 3096,9120C3094,9120 3068,9131 3037,9145C2945,9185 2692,9267 2585,9290C2423,9324 2276,9340 2104,9341C1859,9341 1758,9320 1635,9245C1496,9159 1406,9023 1378,8855C1352,8701 1404,8533 1552,8296C1706,8049 1880,7854 2107,7675C2163,7631 2207,7594 2206,7593C2205,7592 2155,7584 2095,7575C1742,7524 1397,7394 1123,7211C1056,7166 983,7109 961,7083C912,7025 855,6915 835,6840C816,6769 816,6650 835,6580C857,6498 914,6389 966,6331C1064,6222 1411,6028 1643,5951C1808,5897 1868,5882 2054,5851L2214,5824L2179,5800C1795,5533 1402,4994 1373,4695C1357,4519 1446,4313 1584,4209C1708,4115 1797,4090 2028,4083C2227,4076 2385,4089 2565,4127C2686,4152 2935,4231 3037,4275C3068,4289 3094,4300 3096,4300C3097,4300 3086,4271 3070,4236C3008,4099 2936,3856 2906,3679C2866,3447 2866,3115 2906,2980C2959,2797 3108,2652 3299,2596C3369,2576 3508,2575 3585,2596C3653,2613 3825,2698 3945,2773C4182,2921 4424,3149 4607,3395L4629,3425L4630,3389C4630,3345 4664,3151 4691,3045C4748,2815 4863,2548 4988,2351C5070,2223 5107,2181 5187,2127C5384,1992 5623,1992 5824,2125C5899,2175 5931,2209 6004,2320C6152,2546 6251,2769 6316,3024C6346,3143 6380,3322 6380,3367C6380,3384 6383,3401 6388,3403C6392,3406 6438,3354 6490,3288C6686,3040 6971,2809 7257,2666C7389,2600 7428,2588 7537,2583C7716,2573 7843,2622 7970,2750C8090,2871 8126,2978 8136,3245C8149,3572 8083,3896 7925,4282C7918,4299 7920,4299 7956,4284C8109,4219 8311,4154 8452,4124C8645,4083 8965,4067 9137,4091C9335,4117 9486,4220 9572,4386C9623,4485 9635,4540 9634,4660C9633,4747 9629,4776 9608,4830C9487,5142 9224,5489 8930,5726C8889,5759 8842,5795 8826,5805L8797,5824L8956,5851C9228,5897 9401,5951 9625,6060C10042,6262 10190,6433 10190,6710C10190,6854 10140,6985 10045,7088C9991,7147 9844,7250 9710,7322C9483,7444 9192,7538 8926,7576C8802,7593 8798,7594 8820,7609C8868,7641 9017,7765 9083,7829C9307,8045 9517,8349 9607,8588C9695,8823 9594,9114 9380,9245C9258,9319 9154,9340 8907,9340C8605,9340 8346,9290 8053,9174C7980,9146 7920,9124 7920,9126C7920,9129 7931,9156 7944,9188C8084,9528 8149,9865 8136,10181C8126,10430 8080,10561 7961,10681C7896,10745 7772,10812 7683,10830C7602,10847 7449,10837 7382,10811C7162,10723 6897,10549 6692,10355C6617,10285 6479,10125 6421,10042C6395,10004 6380,10008 6380,10053C6379,10141 6313,10431 6255,10601C6176,10827 5987,11158 5883,11250C5755,11363 5571,11418 5413,11390ZM5591,11088C5648,11072 5705,11018 5764,10926C5990,10576 6090,10228 6107,9735L6113,9555L6060,9450C5950,9231 5766,8812 5593,8385C5546,8270 5507,8174 5506,8173C5505,8171 5473,8248 5435,8343C5285,8721 5070,9211 4949,9452L4897,9555L4903,9735C4920,10224 5022,10579 5246,10926C5302,11014 5357,11067 5411,11086C5455,11102 5542,11103 5591,11088ZM3611,10499C3979,10321 4308,9993 4567,9545L4608,9475L4619,9310C4641,9002 4698,8511 4764,8068C4771,8019 4775,7980 4773,7980C4770,7980 4671,8056 4552,8148C4186,8433 3889,8651 3672,8795C3576,8859 3566,8869 3521,8944C3341,9247 3236,9532 3189,9845C3180,9899 3175,10015 3175,10135C3176,10323 3177,10338 3199,10388C3227,10449 3292,10512 3353,10534C3427,10561 3503,10551 3611,10499ZM7679,10521C7745,10487 7797,10434 7815,10382C7841,10309 7847,10009 7825,9860C7784,9576 7699,9328 7547,9045C7450,8864 7451,8865 7377,8819C7211,8717 6561,8236 6251,7986C6239,7977 6238,7983 6244,8025C6247,8053 6268,8208 6290,8370C6337,8718 6374,9059 6391,9295C6404,9487 6404,9485 6511,9656C6700,9957 6950,10221 7201,10383C7287,10438 7423,10510 7490,10536C7537,10555 7627,10547 7679,10521ZM2392,9025C2612,8992 2815,8926 3050,8814C3263,8711 3353,8656 3378,8611C3440,8501 3846,7945 4113,7605C4182,7517 4238,7444 4236,7443C4235,7441 4157,7451 4064,7465C3637,7528 3205,7576 2867,7599L2739,7608L2618,7681C2194,7937 1887,8253 1717,8608C1683,8679 1675,8708 1672,8766C1668,8845 1678,8875 1737,8948C1783,9004 1835,9029 1928,9040C2029,9052 2265,9044 2392,9025ZM9066,9041C9170,9031 9221,9009 9268,8955C9322,8894 9343,8842 9343,8772C9343,8717 9336,8696 9291,8603C9110,8231 8779,7897 8350,7655C8266,7607 8265,7607 8140,7599C7837,7578 7242,7511 6906,7459C6835,7448 6776,7441 6775,7442C6773,7444 6808,7490 6852,7545C7094,7851 7431,8307 7587,8540C7664,8656 7676,8665 7840,8753C8265,8979 8684,9078 9066,9041ZM5995,8400C5927,7900 5917,7838 5900,7843C5892,7846 5849,7857 5806,7869C5762,7880 5725,7892 5722,7894C5720,7897 5761,8006 5813,8137C5944,8463 6022,8651 6025,8648C6027,8646 6013,8535 5995,8400ZM5166,8216C5235,8047 5289,7903 5288,7898C5286,7892 5253,7879 5215,7869C5176,7858 5135,7847 5123,7844C5108,7840 5100,7843 5096,7857C5089,7881 5002,8498 4995,8580L4989,8645L5015,8585C5030,8552 5098,8386 5166,8216ZM4530,7789L4735,7625L4664,7558C4625,7520 4591,7490 4588,7490C4577,7490 4090,8112 4090,8125C4090,8133 4294,7977 4530,7789ZM6848,8023C6715,7849 6592,7692 6505,7583L6423,7482L6351,7554L6279,7627L6327,7667C6455,7772 6918,8130 6927,8130C6929,8130 6894,8082 6848,8023ZM5650,7595C5943,7550 6192,7359 6325,7078C6384,6953 6395,6895 6395,6710C6395,6525 6384,6467 6325,6342C6229,6139 6087,5995 5889,5900C5754,5836 5669,5818 5505,5818C5334,5818 5251,5837 5104,5910C4852,6036 4678,6266 4621,6548C4607,6616 4607,6804 4621,6872C4676,7146 4846,7376 5087,7502C5270,7598 5444,7627 5650,7595ZM2880,7211C3121,7095 3436,6958 3789,6815C4001,6729 4040,6711 4024,6702C4013,6696 3946,6668 3875,6640C3473,6480 3045,6293 2810,6175L2680,6110L2513,6110C2054,6110 1637,6225 1298,6443C1161,6532 1117,6596 1117,6710C1117,6823 1154,6879 1289,6970C1446,7075 1631,7159 1831,7215C2068,7282 2244,7307 2505,7309L2675,7310L2880,7211ZM8762,7299C9143,7260 9498,7133 9773,6937C9856,6877 9893,6810 9894,6716C9895,6597 9854,6537 9713,6444C9377,6225 8955,6110 8490,6110L8341,6110L8193,6181C7898,6323 7603,6451 7175,6625C7071,6667 6981,6705 6976,6708C6971,6711 6989,6722 7016,6732C7368,6870 7915,7105 8190,7238L8335,7308L8497,7309C8586,7310 8706,7305 8762,7299ZM3960,7179C4416,7114 4382,7121 4373,7096C4369,7085 4357,7040 4345,6998L4325,6921L4075,7019C3937,7074 3767,7143 3695,7174L3565,7231L3625,7225C3658,7221 3809,7201 3960,7179ZM7439,7226C7433,7220 6693,6920 6685,6920C6682,6920 6680,6928 6680,6939C6680,6949 6670,6994 6657,7038L6634,7118L6709,7130C6792,7142 7136,7192 7295,7214C7401,7229 7446,7233 7439,7226ZM4352,6402C4366,6349 4377,6304 4376,6303C4371,6298 3596,6189 3582,6192C3572,6194 3590,6205 3620,6217C3650,6229 3819,6298 3995,6369C4171,6441 4317,6499 4320,6499C4323,6500 4337,6456 4352,6402ZM6802,6456C6963,6394 7434,6199 7440,6193C7447,6186 7400,6192 6992,6251C6804,6278 6645,6300 6641,6300C6636,6300 6643,6337 6656,6382C6669,6427 6680,6472 6680,6482C6680,6492 6682,6500 6685,6500C6687,6500 6740,6480 6802,6456ZM4233,5968C4227,5961 4174,5892 4114,5815C3828,5450 3495,4996 3400,4843C3362,4782 3346,4766 3281,4727C3020,4570 2688,4443 2430,4400C2211,4364 1891,4369 1812,4409C1770,4431 1714,4492 1685,4549C1655,4609 1667,4708 1717,4812C1822,5031 2002,5262 2213,5448C2324,5545 2401,5603 2540,5691C2710,5798 2757,5820 2820,5820C2979,5820 3871,5920 4155,5969C4231,5982 4244,5982 4233,5968ZM6880,5965C7166,5918 7896,5836 8125,5824C8275,5816 8278,5815 8460,5698C8623,5594 8712,5525 8842,5407C8973,5287 9004,5254 9085,5145C9176,5025 9243,4916 9296,4808C9336,4724 9343,4701 9343,4648C9343,4578 9322,4526 9268,4465C9216,4405 9173,4389 9034,4380C8653,4353 8269,4443 7862,4656C7677,4753 7666,4762 7587,4880C7424,5124 6994,5704 6803,5937C6784,5960 6772,5980 6776,5980C6781,5980 6828,5973 6880,5965ZM6676,5620C6884,5353 6932,5288 6914,5298C6894,5309 6467,5640 6347,5738L6279,5793L6351,5866L6423,5938L6505,5837C6549,5781 6627,5683 6676,5620ZM4664,5861L4732,5793L4658,5733C4582,5671 4263,5421 4151,5335C4115,5308 4090,5293 4095,5301C4130,5360 4577,5930 4589,5930C4592,5930 4626,5899 4664,5861ZM5215,5551C5253,5541 5286,5528 5288,5522C5291,5513 5085,4993 5015,4835L4989,4775L4995,4840C5002,4918 5089,5549 5096,5569C5099,5577 5108,5580 5123,5576C5135,5573 5176,5562 5215,5551ZM5913,5572C5916,5568 5939,5419 5964,5240C6028,4786 6029,4776 6026,4773C6017,4763 5717,5518 5725,5531C5729,5536 5739,5540 5748,5540C5757,5540 5792,5549 5825,5559C5894,5581 5907,5583 5913,5572ZM4764,5353C4698,4907 4641,4415 4620,4110L4608,3945L4558,3860C4284,3401 3991,3110 3618,2930C3559,2901 3491,2875 3467,2873C3361,2861 3245,2930 3199,3032C3177,3082 3176,3097 3175,3285C3175,3504 3186,3599 3231,3781C3276,3962 3324,4091 3420,4285C3551,4548 3545,4541 3706,4650C3962,4822 4234,5024 4580,5294C4682,5374 4768,5439 4771,5439C4774,5440 4771,5401 4764,5353ZM6511,5232C6805,5005 7067,4812 7285,4665C7373,4605 7450,4549 7455,4541C7492,4485 7601,4277 7642,4185C7787,3861 7845,3585 7838,3259C7834,3055 7826,3023 7767,2962C7708,2900 7655,2876 7576,2876C7510,2875 7497,2879 7399,2926C7036,3103 6740,3390 6481,3819L6403,3947L6396,4056C6377,4353 6334,4748 6275,5170C6235,5450 6235,5446 6253,5433C6259,5427 6376,5337 6511,5232ZM5541,5168C5704,4756 5943,4203 6051,3988L6110,3870L6110,3767C6110,3274 5990,2827 5769,2499C5678,2362 5615,2320 5505,2320C5395,2320 5330,2364 5244,2498C5026,2835 4923,3197 4904,3695L4898,3865L4970,4010C5072,4215 5258,4638 5391,4967C5454,5122 5506,5250 5506,5250C5507,5250 5522,5213 5541,5168Z" style="fill-rule:nonzero;"/>
            </g>
            <path d="M1889.1,1645.44C1912.94,1663.85 1934.18,1679.5 1951.85,1691.41C1958.99,1696.28 1965.23,1700.82 1965.64,1701.47C1968.64,1706.01 1977.48,1722.87 1980.8,1730.33C1992.56,1756.6 1997.26,1778.98 1996.69,1805.41C1996.37,1821.95 1995.72,1824.55 1990.93,1829.49C1986.15,1834.52 1981.85,1836.47 1975.45,1836.47C1970.1,1836.55 1969.04,1836.22 1961.1,1832.41C1931.66,1818.06 1907.66,1794.79 1886.67,1760.01L1880.34,1749.63L1879.77,1740.79C1878.23,1716.71 1874.75,1684.68 1869.96,1650.47C1866.72,1627.77 1866.72,1628.09 1868.18,1629.14C1868.67,1629.63 1878.15,1636.93 1889.1,1645.44Z" style="fill:rgb(121,157,236);"/>
            <path d="M1919.02,1586.01C1942.2,1589.82 2001.39,1596.47 2019.96,1597.44C2032.12,1598.09 2032.37,1598.17 2047.12,1607.66C2060.34,1616.09 2067.55,1621.68 2078.09,1631.25C2088.72,1640.98 2091.23,1643.66 2097.8,1652.5C2105.18,1662.23 2110.61,1671.06 2114.9,1679.82C2118.15,1686.63 2118.72,1688.5 2118.72,1692.79C2118.72,1698.47 2117.01,1702.68 2112.63,1707.63C2108.42,1712.49 2104.93,1713.79 2093.66,1714.52C2062.77,1716.71 2031.64,1709.41 1998.64,1692.14C1983.64,1684.28 1982.75,1683.55 1976.34,1673.98C1963.12,1654.2 1928.26,1607.17 1912.77,1588.28C1911.23,1586.42 1910.26,1584.79 1910.58,1584.79C1910.99,1584.79 1914.8,1585.36 1919.02,1586.01Z" style="fill:rgb(121,157,236);"/>
            <path d="M2071.61,1477.85C2102.5,1481.01 2131.28,1491.31 2153.58,1507.2C2160.31,1512.07 2163.31,1517.5 2163.39,1525.12C2163.47,1534.77 2160.15,1539.63 2148.72,1547.17C2121.47,1564.93 2087.26,1574.25 2049.55,1574.25L2037.47,1574.25L2025.47,1568.5C2001.56,1556.98 1977.64,1546.61 1942.93,1532.5C1934.5,1529.09 1927.21,1526.01 1926.8,1525.77C1926.39,1525.53 1927.85,1524.63 1930.04,1523.82C1958.58,1512.63 2002.93,1493.58 2025.23,1482.8L2036.99,1477.12L2050.12,1477.04C2057.34,1476.96 2067.07,1477.36 2071.61,1477.85Z" style="fill:rgb(121,157,236);"/>
            <path d="M2096.26,1336.61C2104.69,1337.42 2108.82,1339.2 2112.63,1343.58C2117.01,1348.53 2118.72,1352.75 2118.72,1358.42C2118.72,1362.88 2118.15,1364.58 2114.5,1372.12C2099.82,1402.28 2072.99,1429.37 2038.2,1448.99C2031.39,1452.88 2031.31,1452.88 2021.18,1453.53C1996.61,1455.23 1948.37,1460.66 1921.12,1464.88C1915.37,1465.77 1910.58,1466.34 1910.5,1466.26C1910.34,1466.09 1913.18,1462.36 1916.75,1457.9C1936.37,1433.1 1963.69,1396.12 1976.34,1377.23C1982.58,1367.83 1983.56,1367.1 1996.85,1359.96C2031.31,1341.64 2065.28,1333.61 2096.26,1336.61Z" style="fill:rgb(121,157,236);"/>
            <path d="M1983.8,1216.61C1989.15,1219.37 1993.37,1223.67 1994.83,1227.88C1996.93,1233.8 1997.42,1258.12 1995.64,1270.21C1992.31,1293.23 1985.42,1313.34 1973.1,1336.29C1965.23,1350.96 1965.31,1350.88 1959.31,1354.61C1945.85,1362.88 1893.15,1401.88 1868.02,1422.15C1867.05,1422.88 1866.96,1422.39 1867.45,1418.99C1867.69,1416.72 1869.4,1404.15 1871.18,1391.01C1874.99,1362.8 1877.99,1335.15 1879.37,1316.02C1880.42,1300.45 1880.42,1300.61 1889.1,1286.75C1904.42,1262.34 1924.69,1240.94 1945.04,1227.8C1952.02,1223.34 1963.04,1217.5 1968.48,1215.4C1972.29,1213.86 1979.58,1214.5 1983.8,1216.61Z" style="fill:rgb(121,157,236);"/>
            <path d="M1814.51,1170.64C1819.13,1171.94 1823.75,1176.32 1828.53,1183.78C1846.86,1212.15 1854.96,1240.37 1856.34,1280.34L1856.83,1294.93L1852.53,1303.45C1843.61,1321.2 1828.69,1355.18 1814.67,1389.8C1810.86,1399.12 1807.69,1406.91 1807.61,1406.99C1807.53,1407.15 1804.94,1400.91 1801.86,1393.2C1789.69,1362.56 1772.26,1322.83 1762.45,1303.29L1758.24,1294.93L1758.72,1280.34C1760.1,1240.69 1768.37,1211.91 1786.53,1183.78C1791.07,1176.64 1795.53,1172.34 1799.91,1170.8C1803.48,1169.51 1810.53,1169.42 1814.51,1170.64Z" style="fill:rgb(121,157,236);"/>
            <path d="M1653.97,1218.4C1683.81,1232.83 1710.48,1259.42 1731.48,1295.75L1734.8,1301.42L1735.7,1314.8C1737.48,1339.77 1742.1,1379.58 1747.45,1415.5C1748.02,1419.47 1748.34,1422.63 1748.18,1422.63C1747.94,1422.63 1739.91,1416.47 1730.26,1409.01C1700.59,1385.91 1676.51,1368.23 1658.91,1356.56C1651.13,1351.37 1650.32,1350.56 1646.67,1344.48C1632.08,1319.91 1623.56,1296.8 1619.75,1271.42C1619.02,1267.04 1618.62,1257.64 1618.62,1247.91C1618.7,1232.67 1618.78,1231.45 1620.56,1227.4C1622.83,1222.45 1628.1,1217.34 1633.05,1215.56C1639.05,1213.37 1645.21,1214.18 1653.97,1218.4Z" style="fill:rgb(121,157,236);"/>
            <path d="M1555.13,1337.91C1572.97,1340.58 1589.43,1345.93 1608.48,1355.02C1625.75,1363.37 1633.05,1367.83 1635.08,1371.47C1640.1,1380.39 1673.02,1425.47 1694.67,1453.04C1700.26,1460.17 1704.81,1466.09 1704.64,1466.17C1704.56,1466.34 1698.24,1465.53 1690.7,1464.39C1656.08,1459.28 1621.05,1455.39 1593.64,1453.53L1583.27,1452.8L1573.46,1446.88C1539.08,1426.12 1514.19,1400.5 1500.4,1371.72C1497.65,1365.96 1497,1363.61 1496.76,1358.91C1496.43,1352.5 1497.24,1350.07 1502.03,1344.15C1505.76,1339.61 1509.97,1337.58 1517.51,1336.69C1525.7,1335.72 1544.84,1336.37 1555.13,1337.91Z" style="fill:rgb(121,157,236);"/>
            <path d="M1594.7,1484.99C1614.24,1494.39 1639.78,1505.5 1668.4,1517.09C1685.59,1524.07 1688.75,1525.53 1687.45,1526.26C1686.56,1526.74 1681.13,1529.01 1675.37,1531.28C1642.78,1544.26 1608.08,1559.42 1589.02,1568.98L1578.48,1574.25L1564.94,1574.25C1527.73,1574.25 1493.92,1564.93 1466.43,1547.25C1455.32,1540.04 1451.76,1534.85 1451.76,1525.61C1451.76,1516.44 1454.76,1511.9 1465.7,1504.53C1478.43,1496.01 1493.43,1489.2 1509.65,1484.66C1528.86,1479.23 1543.13,1477.2 1564.29,1477.04L1578.08,1476.96L1594.7,1484.99Z" style="fill:rgb(121,157,236);"/>
            <path d="M1704.4,1585.77C1703.91,1586.34 1699.62,1591.93 1694.75,1598.17C1671.56,1627.77 1644.56,1664.58 1636.86,1676.98C1633.78,1681.93 1632.48,1683.23 1627.21,1686.39C1606.05,1699.12 1579.13,1709.41 1558.21,1712.9C1540.46,1715.82 1514.51,1715.41 1508.11,1712.17C1504.7,1710.39 1500.16,1705.44 1497.81,1700.82C1495.38,1695.95 1496.35,1687.93 1500.4,1679.5C1508.92,1661.74 1523.51,1643.01 1540.62,1627.93C1549.62,1620.06 1555.86,1615.36 1567.13,1608.23C1580.91,1599.55 1584.73,1597.77 1589.83,1597.77C1602.73,1597.77 1675.05,1589.66 1698.08,1585.69C1704.24,1584.63 1705.29,1584.63 1704.4,1585.77Z" style="fill:rgb(121,157,236);"/>
            <path d="M1747.45,1635.63C1742.1,1671.79 1737.48,1711.68 1735.78,1736.41L1734.8,1749.79L1730.75,1756.68C1708.53,1793.9 1684.78,1817.49 1654.54,1832.09C1649.75,1834.44 1644.24,1836.55 1642.29,1836.71C1633.7,1837.68 1624.29,1832.09 1620.56,1823.82C1618.78,1819.76 1618.7,1818.55 1618.62,1803.3C1618.62,1785.55 1619.51,1777.84 1623.16,1763.09C1626.81,1748.41 1630.7,1737.95 1638.48,1722.22C1649.1,1700.9 1648.62,1701.47 1661.67,1692.63C1682.43,1678.68 1704.48,1662.31 1732.53,1640.41C1740.8,1633.93 1747.78,1628.66 1748.02,1628.66C1748.26,1628.58 1748.02,1631.74 1747.45,1635.63Z" style="fill:rgb(121,157,236);"/>
            <path d="M1810.45,1650.63C1823.67,1684.04 1843.05,1728.87 1851.8,1746.3L1856.59,1755.87L1856.59,1764.22C1856.59,1804.19 1846.86,1840.44 1828.94,1867.03C1821.56,1878.14 1816.45,1881.55 1807.53,1881.55C1798.61,1881.55 1793.34,1877.98 1786.37,1867.11C1768.69,1839.79 1760.34,1810.44 1758.8,1770.06L1758.32,1756.28L1764.15,1744.52C1772.42,1727.9 1787.51,1693.6 1798.29,1666.93C1803.4,1654.36 1807.61,1643.98 1807.61,1643.98C1807.69,1643.98 1808.91,1646.98 1810.45,1650.63Z" style="fill:rgb(121,157,236);"/>
        </g>
    </g>
</svg>