<?xml version="1.0" encoding="UTF-8" standalone="no"?>
<!DOCTYPE svg PUBLIC "-//W3C//DTD SVG 1.1//EN" "http://www.w3.org/Graphics/SVG/1.1/DTD/svg11.dtd">
<svg width="100%" height="100%" viewBox="0 0 1283 1197" version="1.1" xmlns="http://www.w3.org/2000/svg" xmlns:xlink="http://www.w3.org/1999/xlink" xml:space="preserve" xmlns:serif="http://www.serif.com/" style="fill-rule:evenodd;clip-rule:evenodd;stroke-linecap:round;stroke-linejoin:round;stroke-miterlimit:1.5;">
    <g transform="matrix(1,0,0,1,-594.462,-869.645)">
        <g>
            <path d="M1050.31,1329.17C1066.47,1318.18 1073.69,1306.05 1080.74,1301.35C1098.41,1287.87 1117.15,1276.44 1136.13,1258.15C1146.22,1248.36 1152.67,1243.08 1158.67,1239.9C1164.66,1236.71 1171.46,1234.61 1184.54,1232.83C1198.74,1230.9 1209.69,1229.66 1219.56,1229.67C1231.42,1229.7 1242.12,1231.24 1257.38,1236.15C1310.41,1252.95 1365.03,1266.42 1397.33,1302.24C1415.9,1322.36 1432.93,1348.91 1450.92,1373.43C1471.92,1402.15 1475.74,1427.08 1481.45,1466.88C1483.48,1481.15 1485.35,1496.68 1485.34,1511.26C1485.36,1524.99 1483.63,1537.74 1479.72,1547.54C1471.08,1570.25 1449.43,1589.52 1427.92,1613.95C1407.27,1637.72 1390.29,1653.01 1364.67,1668.53C1351.85,1676.24 1338.64,1683.65 1324.99,1691.76C1315.04,1697.76 1309.82,1700.7 1306.14,1701.89C1302.5,1703.13 1298.24,1703.88 1287.37,1703.91C1262.2,1704.02 1241.72,1708.66 1224.88,1708.51C1214.49,1708.48 1205.58,1707.13 1195.99,1702.93C1178.53,1695.26 1159.31,1688.41 1142.21,1680.27C1125.08,1672.2 1110.58,1662.83 1102.11,1652.27C1094.7,1643.93 1089.75,1625.65 1078.64,1607.34C1066.42,1588.37 1050.91,1573.08 1040.08,1558.76C1023.39,1537.08 1019.31,1511.95 1012.97,1479.38C1009.98,1464.39 1007.83,1447.42 1007.83,1431.6C1007.83,1423.25 1008.43,1415.22 1009.7,1408.07C1010.58,1401.56 1019.69,1379.78 1029.49,1361.93C1034.39,1352.82 1039.51,1344.2 1043.75,1337.87L1049.08,1330.53L1050.31,1329.17Z" style="fill:white;"/>
            <path d="M740.029,1338.84C739.639,1334.65 728.369,1293.53 727.384,1287.73L727.878,1287.67L727.783,1286.83C720.742,1220.49 741.959,1172.06 772.842,1136.74C803.245,1101.05 844.296,1079.64 871.426,1072.29C881.864,1069.38 892.438,1067.77 903.059,1066.57C930.676,1063.46 958.827,1065.02 984.939,1067.67C1011.01,1069.91 1034.19,1073.32 1055.02,1070.98C1059.28,1070.5 1063.47,1069.59 1067.67,1068.68C1107.13,1056.07 1132.96,1025.62 1157.38,997.911C1181.75,969.784 1204.66,943.966 1229.3,933.449C1251.9,924.011 1276.49,916.941 1301.13,914.166C1336.41,910.194 1371.36,914.868 1401.13,930.882L1401.08,930.449C1427.21,944.726 1445.46,961.599 1461.12,982.205C1477.16,1002.35 1490.65,1026.65 1505.71,1053.35C1529.29,1094.59 1557.66,1121.09 1590.97,1137.99C1623.82,1154.51 1660.38,1162.01 1702.18,1170.21C1736.99,1177.49 1762.6,1190.95 1782.46,1210.65C1802.32,1230.37 1816.85,1256.27 1827.06,1289.54C1829.77,1298.28 1831.62,1307.11 1832.53,1315.17C1835.59,1342.38 1830.33,1368.35 1819.99,1394.9C1809.23,1421.5 1793.26,1447.83 1776.1,1475.15L1776.15,1475.58C1770.97,1483.03 1764.27,1492.4 1757.78,1503.46C1742.84,1527.52 1727.5,1559.36 1729.4,1599.17L1729.9,1599.15C1730.58,1604.01 1742.56,1641.97 1743.83,1645.99L1743.36,1646.05L1743.46,1646.89C1750.79,1713.2 1729.77,1761.72 1699.04,1797.17C1668.79,1832.99 1627.83,1854.57 1600.73,1862.04C1590.31,1864.99 1579.74,1866.65 1569.12,1867.89C1541.52,1871.12 1513.36,1869.68 1487.24,1867.14C1461.16,1865.02 1437.96,1861.7 1417.14,1864.13C1412.89,1864.63 1408.7,1865.56 1404.5,1866.48C1365.1,1879.26 1339.4,1909.83 1315.09,1937.63C1290.85,1965.86 1268.05,1991.78 1243.45,2002.4C1220.89,2011.93 1196.34,2019.11 1171.71,2021.99C1136.44,2026.11 1101.48,2021.59 1071.64,2005.7L1071.69,2006.13C1045.49,1991.97 1027.17,1975.17 1011.42,1954.63C995.299,1934.56 981.703,1910.31 966.531,1883.67C942.784,1842.54 914.296,1816.16 880.911,1799.4C848,1783.02 811.406,1775.68 769.57,1767.65C734.727,1760.53 709.058,1747.17 689.115,1727.55C669.171,1707.92 654.53,1682.09 644.187,1648.86C641.44,1640.13 639.55,1631.31 638.607,1623.25C635.428,1596.06 640.573,1570.06 650.802,1543.47C661.453,1516.82 677.313,1490.43 694.353,1463.03L694.303,1462.61C699.449,1455.13 706.106,1445.73 712.557,1434.65C727.385,1410.52 742.592,1378.62 740.523,1338.81L740.029,1338.84ZM1027.66,1295.47C1022.69,1298.74 1020.52,1301.48 1017.76,1304.66C1008.97,1315.44 999.043,1332.27 989.713,1350.32C980.53,1368.57 972.61,1385.95 969.711,1400.94C967.918,1411.04 967.213,1421.35 967.213,1431.6C967.222,1451.01 969.746,1470.29 973.123,1487.29C979.32,1517.85 983.664,1551.66 1007.81,1583.42C1021.06,1600.6 1035.75,1615.43 1044.4,1629.19C1051.2,1638.93 1056.01,1659.22 1070.61,1677.91C1085.47,1696.04 1105.26,1707.63 1124.8,1716.97C1144.37,1726.23 1164.18,1733.26 1179.57,1740.08C1195.24,1747.04 1210.75,1749.15 1224.88,1749.13C1248.04,1748.97 1267.85,1744.39 1287.37,1744.52C1299.79,1744.54 1309.74,1743.63 1319.38,1740.29C1328.98,1736.93 1336.13,1732.36 1345.78,1726.65C1358.81,1718.91 1372.07,1711.48 1385.63,1703.32C1414.96,1685.72 1436.46,1666.24 1458.64,1640.52C1476.79,1619.06 1503.35,1597.42 1517.51,1562.45C1524.07,1545.7 1525.93,1528.13 1525.96,1511.26C1525.95,1493.35 1523.77,1476.03 1521.67,1461.16C1516.18,1422.22 1511,1386.33 1483.63,1349.36C1466.68,1326.4 1449.13,1298.63 1427.25,1274.76C1382.73,1226.92 1319.83,1214.07 1269.92,1197.5C1251.52,1191.5 1235.4,1189.02 1219.56,1189.05C1206.35,1189.06 1193.62,1190.62 1179.1,1192.58C1163.78,1194.61 1151.09,1197.85 1139.49,1204.09C1127.89,1210.33 1118.65,1218.57 1107.88,1228.97C1092.85,1243.59 1075.99,1254.04 1056.22,1268.97C1041.43,1280.79 1034.71,1291.65 1027.66,1295.46L1027.66,1295.47Z" style="fill:white;"/>
            <g transform="matrix(1,0,0,1,4.33997,16.5755)">
                <g>
                    <g transform="matrix(8.6492,-0.973974,0.973974,8.6492,1845.5,1066.44)">
                        <path d="M0,26.283C0,30.459 -1.229,34.192 -3.046,37.583C-3.292,38.024 -3.488,38.418 -3.782,38.81C-5.453,41.709 -7.516,44.411 -9.58,46.966L-9.629,46.966C-11.643,49.373 -14.247,52.221 -15.082,55.808L-17.292,57.577L-20.387,57.381C-20.092,52.811 -17.931,49.373 -15.917,46.818C-15.033,45.639 -14.148,44.656 -13.461,43.871L-13.461,43.822C-11.151,40.923 -8.989,38.123 -7.418,35.224C-5.896,32.326 -4.962,29.428 -4.962,26.283C-4.962,25.35 -5.06,24.318 -5.257,23.286C-5.994,19.356 -7.32,16.212 -9.334,13.706C-11.348,11.201 -14.099,9.335 -17.98,8.057C-22.647,6.583 -26.725,5.257 -30.262,2.948C-33.848,0.59 -36.747,-2.8 -38.908,-7.811C-40.284,-11.053 -41.512,-14.001 -43.084,-16.507C-44.607,-19.061 -46.474,-21.222 -49.274,-23.188L-49.274,-23.138C-52.467,-25.349 -56.397,-26.332 -60.476,-26.332C-63.325,-26.332 -66.223,-25.841 -68.925,-25.054C-71.873,-24.17 -74.821,-21.517 -77.964,-18.619C-81.109,-15.77 -84.449,-12.625 -89.116,-11.692C-89.608,-11.643 -90.098,-11.593 -90.59,-11.593C-92.998,-11.593 -95.601,-12.281 -98.549,-12.871C-101.496,-13.51 -104.69,-14.05 -107.883,-14.05C-109.111,-14.05 -110.339,-14.001 -111.568,-13.804C-114.76,-13.313 -119.722,-11.397 -123.652,-7.713C-127.632,-4.077 -130.677,1.179 -130.726,8.844L-130.726,8.941L-135.688,8.991L-135.688,8.844C-135.688,-0.245 -131.856,-6.976 -127.042,-11.397C-122.178,-15.819 -116.529,-18.078 -112.304,-18.717C-110.781,-18.963 -109.356,-19.061 -107.883,-19.061C-104.1,-19.061 -100.563,-18.373 -97.516,-17.735C-94.521,-17.096 -91.966,-16.555 -90.59,-16.555L-90,-16.604L-89.952,-16.604C-87.25,-17.096 -84.449,-19.405 -81.354,-22.255C-78.21,-25.104 -74.918,-28.395 -70.35,-29.82C-67.206,-30.753 -63.865,-31.294 -60.476,-31.294C-55.612,-31.294 -50.65,-30.114 -46.474,-27.265L-46.425,-27.265C-43.035,-24.906 -40.628,-22.107 -38.81,-19.11C-36.993,-16.113 -35.715,-12.969 -34.34,-9.776C-32.472,-5.453 -30.311,-3.095 -27.56,-1.228C-24.76,0.638 -21.125,1.867 -16.506,3.341L-16.457,3.341C-11.839,4.815 -8.106,7.271 -5.453,10.562C-2.8,13.854 -1.179,17.883 -0.344,22.353C-0.098,23.679 0,25.006 0,26.283" style="fill:rgb(26,54,32);fill-rule:nonzero;"/>
                    </g>
                    <g transform="matrix(-8.64498,1.01077,-1.01077,-8.64498,617.937,1838.9)">
                        <path d="M0,26.283C0,30.459 -1.229,34.192 -3.046,37.583C-3.292,38.024 -3.488,38.418 -3.782,38.81C-5.453,41.709 -7.516,44.411 -9.58,46.966L-9.629,46.966C-11.643,49.373 -14.247,52.221 -15.082,55.808L-17.292,57.577L-20.387,57.381C-20.092,52.811 -17.931,49.373 -15.917,46.818C-15.033,45.639 -14.148,44.656 -13.461,43.871L-13.461,43.822C-11.151,40.923 -8.989,38.123 -7.418,35.224C-5.896,32.326 -4.962,29.428 -4.962,26.283C-4.962,25.35 -5.06,24.318 -5.257,23.286C-5.994,19.356 -7.32,16.212 -9.334,13.706C-11.348,11.201 -14.099,9.335 -17.98,8.057C-22.647,6.583 -26.725,5.257 -30.262,2.948C-33.848,0.59 -36.747,-2.8 -38.908,-7.811C-40.284,-11.053 -41.512,-14.001 -43.084,-16.507C-44.607,-19.061 -46.474,-21.222 -49.274,-23.188L-49.274,-23.138C-52.467,-25.349 -56.397,-26.332 -60.476,-26.332C-63.325,-26.332 -66.223,-25.841 -68.925,-25.054C-71.873,-24.17 -74.821,-21.517 -77.964,-18.619C-81.109,-15.77 -84.449,-12.625 -89.116,-11.692C-89.608,-11.643 -90.098,-11.593 -90.59,-11.593C-92.998,-11.593 -95.601,-12.281 -98.549,-12.871C-101.496,-13.51 -104.69,-14.05 -107.883,-14.05C-109.111,-14.05 -110.339,-14.001 -111.568,-13.804C-114.76,-13.313 -119.722,-11.397 -123.652,-7.713C-127.632,-4.077 -130.677,1.179 -130.726,8.844L-130.726,8.941L-135.688,8.991L-135.688,8.844C-135.688,-0.245 -131.856,-6.976 -127.042,-11.397C-122.178,-15.819 -116.529,-18.078 -112.304,-18.717C-110.781,-18.963 -109.356,-19.061 -107.883,-19.061C-104.1,-19.061 -100.563,-18.373 -97.516,-17.735C-94.521,-17.096 -91.966,-16.555 -90.59,-16.555L-90,-16.604L-89.952,-16.604C-87.25,-17.096 -84.449,-19.405 -81.354,-22.255C-78.21,-25.104 -74.918,-28.395 -70.35,-29.82C-67.206,-30.753 -63.865,-31.294 -60.476,-31.294C-55.612,-31.294 -50.65,-30.114 -46.474,-27.265L-46.425,-27.265C-43.035,-24.906 -40.628,-22.107 -38.81,-19.11C-36.993,-16.113 -35.715,-12.969 -34.34,-9.776C-32.472,-5.453 -30.311,-3.095 -27.56,-1.228C-24.76,0.638 -21.125,1.867 -16.506,3.341L-16.457,3.341C-11.839,4.815 -8.106,7.271 -5.453,10.562C-2.8,13.854 -1.179,17.883 -0.344,22.353C-0.098,23.679 0,25.006 0,26.283" style="fill:rgb(26,54,32);fill-rule:nonzero;"/>
                    </g>
                    <path d="M1781.39,1624.34C1781.81,1624.43 1767.69,1566.68 1768.99,1563.08C1769.62,1561.35 1726.23,1580.8 1725.55,1582.09C1724.89,1583.34 1739.6,1629.76 1739.6,1629.76C1739.6,1629.76 1780.96,1624.25 1781.39,1624.34Z" style="fill:rgb(26,54,32);fill-opacity:0;stroke:rgb(26,54,32);stroke-width:1px;"/>
                    <path d="M735.683,1322.58C735.147,1323.87 692.321,1341.74 692.352,1341.71C693.377,1340.93 681.113,1277.32 681.142,1276.1C681.183,1274.4 722.982,1268 722.975,1270.59C722.968,1273.18 736.219,1321.29 735.683,1322.58Z" style="fill:rgb(26,54,32);"/>
                </g>
                <path d="M1781.39,1624.34C1780.96,1624.25 1739.6,1629.76 1739.6,1629.76C1739.6,1629.76 1724.89,1583.34 1725.55,1582.09C1726.23,1580.8 1769.62,1561.35 1768.99,1563.08C1767.69,1566.68 1781.81,1624.43 1781.39,1624.34Z" style="fill:rgb(26,54,32);"/>
                <path d="M735.683,1322.58C736.219,1321.29 722.968,1273.18 722.975,1270.59C722.982,1268 681.183,1274.4 681.142,1276.1C681.113,1277.32 693.377,1340.93 692.352,1341.71C692.321,1341.74 735.147,1323.87 735.683,1322.58Z" style="fill:none;stroke:rgb(26,54,32);stroke-width:1px;"/>
            </g>
            <g transform="matrix(8.70387,0,0,8.70387,1038.44,1625.48)">
                <path d="M0,-35.937L1.236,-33.958C3.183,-35.242 4.032,-36.688 4.86,-37.24C6.891,-38.789 9.044,-40.101 11.224,-42.203C12.383,-43.328 13.125,-43.935 13.814,-44.3C14.502,-44.666 15.283,-44.907 16.786,-45.112C18.417,-45.334 19.675,-45.476 20.809,-45.475C22.172,-45.471 23.402,-45.295 25.155,-44.731C31.247,-42.8 37.523,-41.253 41.234,-37.138C43.367,-34.826 45.324,-31.775 47.391,-28.958C49.804,-25.658 50.242,-22.794 50.898,-18.222C51.132,-16.582 51.346,-14.798 51.345,-13.123C51.348,-11.545 51.149,-10.081 50.7,-8.954C49.707,-6.345 47.22,-4.132 44.748,-1.325C42.376,1.406 40.425,3.163 37.482,4.946C36.009,5.832 34.491,6.683 32.923,7.615C31.779,8.304 31.18,8.642 30.757,8.779C30.339,8.922 29.849,9.008 28.6,9.011C25.708,9.024 23.356,9.557 21.421,9.539C20.227,9.536 19.203,9.381 18.101,8.898C16.096,8.017 13.887,7.23 11.923,6.295C9.955,5.368 8.288,4.291 7.316,3.078C6.464,2.12 5.895,0.02 4.619,-2.084C3.215,-4.263 1.433,-6.02 0.189,-7.666C-1.729,-10.156 -2.198,-13.043 -2.926,-16.786C-3.27,-18.508 -3.517,-20.457 -3.517,-22.275C-3.517,-23.235 -3.448,-24.157 -3.302,-24.979C-3.201,-25.726 -2.154,-28.229 -1.028,-30.279C-0.465,-31.326 0.123,-32.317 0.61,-33.044L1.223,-33.887L1.376,-34.057L1.263,-34.172L1.365,-34.05L1.376,-34.057L1.263,-34.172L1.365,-34.05L0.609,-34.962L1.236,-33.958L1.365,-34.05L0.609,-34.962L1.236,-33.958L0,-35.937L-1.237,-37.916C-1.809,-37.54 -2.058,-37.225 -2.375,-36.859C-3.385,-35.621 -4.526,-33.687 -5.598,-31.613C-6.653,-29.517 -7.563,-27.52 -7.896,-25.798C-8.102,-24.637 -8.183,-23.453 -8.183,-22.275C-8.182,-20.045 -7.892,-17.83 -7.504,-15.877C-6.792,-12.366 -6.293,-8.481 -3.519,-4.832C-1.997,-2.858 -0.309,-1.155 0.685,0.426C1.466,1.546 2.019,3.877 3.696,6.024C5.404,8.107 7.677,9.438 9.922,10.511C12.171,11.575 14.447,12.383 16.215,13.167C18.015,13.966 19.797,14.209 21.421,14.206C24.082,14.188 26.357,13.662 28.6,13.677C30.027,13.679 31.17,13.575 32.278,13.191C33.381,12.805 34.202,12.28 35.311,11.624C36.808,10.734 38.332,9.881 39.89,8.943C43.259,6.921 45.729,4.683 48.278,1.728C50.363,-0.737 53.414,-3.224 55.041,-7.241C55.795,-9.166 56.009,-11.184 56.012,-13.123C56.011,-15.181 55.761,-17.17 55.519,-18.879C54.889,-23.353 54.293,-27.476 51.149,-31.724C49.202,-34.361 47.185,-37.552 44.671,-40.295C39.556,-45.791 32.33,-47.268 26.595,-49.171C24.481,-49.861 22.629,-50.146 20.809,-50.142C19.292,-50.141 17.829,-49.962 16.161,-49.737C14.401,-49.503 12.943,-49.131 11.61,-48.414C10.277,-47.697 9.216,-46.75 7.979,-45.556C6.252,-43.876 4.314,-42.675 2.043,-40.96C0.344,-39.602 -0.428,-38.354 -1.238,-37.916L0,-35.937Z" style="fill:rgb(26,54,32);fill-rule:nonzero;"/>
            </g>
            <g transform="matrix(8.70387,0,0,8.70387,936.435,1338.31)">
                <path d="M0,-6.905C2.261,-6.999 4.566,-6.992 6.95,-6.468C9.301,-5.961 11.844,-4.783 13.737,-2.585L9.551,0.094C9.044,-1.501 7.763,-3.012 6.003,-4.17C4.251,-5.34 2.143,-6.186 0,-6.905" style="fill:rgb(26,54,32);fill-rule:nonzero;"/>
            </g>
            <g transform="matrix(8.70387,0,0,8.70387,1327.02,1254.03)">
                <path d="M0,-21.395C1.162,-18.12 2.257,-14.795 2.902,-11.259C3.519,-7.746 3.778,-3.926 2.509,0L-2.024,-2.038C-0.473,-4.47 0.228,-7.762 0.422,-11.102C0.622,-14.467 0.359,-17.94 0,-21.395" style="fill:rgb(26,54,32);fill-rule:nonzero;"/>
            </g>
            <g transform="matrix(8.70387,0,0,8.70387,948.843,1297.71)">
                <path d="M0,-13.045C2.885,-11.806 5.731,-10.609 8.602,-9.129C11.543,-7.413 13.893,-5.399 16.389,-3.348L12.721,0C10.97,-2.439 9.117,-5.03 7.105,-7.046C4.896,-9.109 2.422,-11.092 0,-13.045" style="fill:rgb(26,54,32);fill-rule:nonzero;"/>
            </g>
            <g transform="matrix(-6.05314,6.25433,6.25433,6.05314,1168.56,1203.01)">
                <path d="M5.236,-14.493C4.241,-12.146 3.776,-9.517 3.732,-6.847C3.716,-4.171 4.078,-1.413 5.236,1.341L9.485,-1.234C6.666,-4.446 4.927,-9.485 5.236,-14.493" style="fill:rgb(26,54,32);fill-rule:nonzero;"/>
            </g>
            <g transform="matrix(8.70387,0,0,8.70387,1432.6,1277.15)">
                <path d="M0,-16.29C0.517,-13.501 0.167,-10.568 -0.573,-7.711C-0.98,-6.28 -1.519,-4.846 -2.417,-3.443C-3.303,-2.092 -4.669,-0.567 -6.948,0L-7.605,-4.926C-7.096,-4.778 -6.142,-5.098 -5.266,-5.845C-4.38,-6.579 -3.562,-7.597 -2.852,-8.702C-1.476,-10.949 -0.313,-13.514 0,-16.29" style="fill:rgb(26,54,32);fill-rule:nonzero;"/>
            </g>
            <g transform="matrix(8.70387,0,0,8.70387,1492.01,1428.74)">
                <path d="M0,-5.659C2.004,-4.353 5.154,-3.814 8.142,-3.803C11.169,-3.827 14.317,-4.208 17.187,-5.569C14.749,-3.492 11.646,-2.213 8.469,-1.34C5.251,-0.558 1.856,0 -2.009,-1.111L0,-5.659Z" style="fill:rgb(26,54,32);fill-rule:nonzero;"/>
            </g>
            <g transform="matrix(8.70387,0,0,8.70387,1505.52,1495.78)">
                <path d="M0,-5.55C1.742,-4.252 4.465,-3.445 7.109,-3.025C9.801,-2.631 12.611,-2.504 15.387,-3.082C12.88,-1.719 10.017,-0.971 7.105,-0.539C4.166,-0.185 1.155,0 -2.214,-1.1L0,-5.55Z" style="fill:rgb(26,54,32);fill-rule:nonzero;"/>
            </g>
            <g transform="matrix(8.70387,0,0,8.70387,1493.91,1663.18)">
                <path d="M0,-7.962C0.117,-7.343 0.512,-6.433 0.9,-5.689C1.311,-4.912 1.803,-4.165 2.371,-3.461C3.497,-2.034 4.992,-0.847 6.782,0C4.819,-0.032 2.739,-0.52 0.847,-1.497C-0.107,-1.976 -1.029,-2.554 -1.895,-3.223C-2.776,-3.927 -3.542,-4.567 -4.385,-5.623L0,-7.962Z" style="fill:rgb(26,54,32);fill-rule:nonzero;"/>
            </g>
            <g transform="matrix(8.70387,0,0,8.70387,1231.37,1837.13)">
                <path d="M0,-11.179C-2.237,-7.207 -4.184,-3.169 -4.171,1.604C-5.885,-2.825 -5.489,-8.098 -4.703,-12.783L0,-11.179Z" style="fill:rgb(26,54,32);fill-rule:nonzero;"/>
            </g>
            <g transform="matrix(8.70387,0,0,8.70387,1300.56,1802.75)">
                <path d="M0,-7.558C-0.991,-6.27 -1.762,-4.954 -2.204,-3.329C-2.65,-1.718 -2.769,0.097 -2.779,1.915C-3.57,0.277 -4.306,-1.432 -4.688,-3.374C-5.092,-5.306 -4.984,-7.497 -4.586,-9.473L0,-7.558Z" style="fill:rgb(26,54,32);fill-rule:nonzero;"/>
            </g>
            <g transform="matrix(8.70387,0,0,8.70387,1169.22,1787.29)">
                <path d="M0,-6.955C-1.613,-6.222 -3.094,-4.682 -4.125,-2.703C-5.142,-0.726 -5.838,1.563 -6.127,3.934C-6.662,1.592 -6.822,-0.883 -6.501,-3.434C-6.151,-5.962 -5.166,-8.68 -3.038,-10.889L0,-6.955Z" style="fill:rgb(26,54,32);fill-rule:nonzero;"/>
            </g>
            <g transform="matrix(8.70387,0,0,8.70387,1006.87,1586.46)">
                <path d="M0,-1.938C-1.662,-1.811 -3.31,-1.079 -4.875,0.263C-6.44,1.574 -7.91,3.273 -9.548,4.692C-8.559,2.757 -7.891,0.753 -6.824,-1.28C-5.799,-3.304 -4.028,-5.389 -1.63,-6.63L0,-1.938Z" style="fill:rgb(26,54,32);fill-rule:nonzero;"/>
            </g>
            <g transform="matrix(8.70387,0,0,8.70387,993.901,1506.93)">
                <path d="M0,-0.727C-3.785,-0.734 -8.044,1.613 -11.271,4.851C-9.313,0.7 -6.268,-3.44 -1.078,-5.578L0,-0.727Z" style="fill:rgb(26,54,32);fill-rule:nonzero;"/>
            </g>
            <g transform="matrix(8.70387,0,0,8.70387,1073.66,1291.79)">
                <path d="M0,15.501C0.068,14.186 -0.335,12.968 0.102,11.43C0.721,9.91 2.08,9.155 2.948,8.355C4.795,6.622 6.603,5.023 8.011,2.899C8.913,1.706 10.371,0.74 11.822,0.395C13.276,0.065 14.596,0 15.914,0.019C17.253,0.046 18.649,0.08 20.032,0.628C21.323,1.262 22.187,2.155 23.531,2.281C22.197,2.749 20.793,1.927 19.656,1.786C18.544,1.575 17.292,1.718 16.062,1.924C13.453,2.344 11.172,2.621 9.969,4.431C8.445,6.605 6.299,8.464 4.062,9.896C2.878,10.602 1.75,11.078 1.197,11.948C0.548,12.814 0.589,14.313 0,15.501" style="fill:rgb(26,54,32);fill-rule:nonzero;"/>
            </g>
            <g transform="matrix(8.70387,0,0,8.70387,1108.5,1672.29)">
                <path d="M0,-11.719C2.157,-10.853 3.213,-8.603 4.485,-7.055C5.732,-5.483 7.137,-4.468 9.058,-3.827C11.046,-3.089 12.968,-2.306 14.873,-1.906C15.892,-1.699 16.885,-1.536 17.744,-1.721C18.132,-1.74 18.648,-2.112 19.309,-2.185C19.969,-2.275 20.435,-1.981 20.98,-2.017C20.493,-1.721 19.855,-1.76 19.476,-1.549C19.076,-1.368 18.802,-0.93 18.178,-0.583C17.009,-0.03 15.795,-0.03 14.7,0C12.325,-0.005 10.216,-0.813 8.188,-1.502C6.042,-2.223 3.844,-3.922 2.873,-6.045L1.543,-9.003C1.131,-9.976 0.787,-10.995 0,-11.719" style="fill:rgb(26,54,32);fill-rule:nonzero;"/>
            </g>
            <g transform="matrix(8.70387,0,0,8.70387,1103.15,1547.65)">
                <path d="M0,-14.454C0.487,-13.021 -0.175,-11.552 -0.398,-10.265C-0.66,-8.993 -0.595,-7.852 -0.048,-6.644C0.386,-5.336 0.842,-4.062 1.468,-2.963C1.798,-2.374 2.138,-1.818 2.594,-1.471L3.484,-0.898L4.113,0L3.242,-0.544L2.218,-0.774C1.449,-1.116 0.934,-1.716 0.456,-2.242C-0.534,-3.425 -1,-4.812 -1.565,-6.089C-2.071,-7.462 -2.199,-9.246 -1.58,-10.631C-1.065,-11.983 -0.187,-13.092 0,-14.454" style="fill:rgb(26,54,32);fill-rule:nonzero;"/>
            </g>
            <g transform="matrix(8.70387,0,0,8.70387,1241.21,1548.71)">
                <path d="M0,5.125C1.332,4.406 2.893,4.816 4.195,4.826C5.497,4.875 6.61,4.625 7.712,3.888C8.928,3.242 10.111,2.582 11.092,1.785C11.619,1.361 12.111,0.935 12.378,0.427L12.798,-0.547L13.58,-1.311L13.187,-0.364C13.109,-0.091 13.215,0.23 13.128,0.684C12.917,1.499 12.412,2.105 11.971,2.664C10.966,3.834 9.675,4.523 8.508,5.29C7.236,6.016 5.499,6.436 4.03,6.052C2.613,5.768 1.376,5.084 0,5.125" style="fill:rgb(26,54,32);fill-rule:nonzero;"/>
            </g>
            <g transform="matrix(8.70387,0,0,8.70387,1371.41,1410.88)">
                <path d="M0,20.616C1.478,19.228 1.956,17.413 3.084,15.623C3.563,14.608 4.824,13.853 5.181,13.378L5.456,12.757C5.487,12.422 5.465,11.968 5.436,11.485C5.332,9.175 6.033,7.35 6.15,5.584C6.317,3.845 5.688,1.98 5.215,0C6.569,1.472 7.78,3.254 8.062,5.511C8.377,7.705 7.731,9.738 7.916,11.386C7.924,11.888 7.945,12.424 7.86,13.067C7.826,13.705 7.329,14.681 6.841,15.035C5.785,15.929 5.203,16.091 4.599,16.775C3.356,18.063 2.092,20.095 0,20.616" style="fill:rgb(26,54,32);fill-rule:nonzero;"/>
            </g>
            <g transform="matrix(8.70387,0,0,8.70387,1282.7,1364.8)">
                <path d="M0,-9.502C1.422,-9.684 2.841,-9.825 4.329,-9.563C5.816,-9.347 7.263,-8.665 8.483,-7.697C10.917,-5.68 12.023,-2.547 11.764,0.323C10.886,-0.871 10.262,-2.062 9.444,-3.077C8.646,-4.091 7.869,-5.044 6.909,-5.778C5.994,-6.568 4.928,-7.148 3.776,-7.743C2.621,-8.326 1.262,-8.674 0,-9.502" style="fill:rgb(26,54,32);fill-rule:nonzero;"/>
            </g>
            <g transform="matrix(8.70387,0,0,8.70387,1307.22,1425.99)">
                <path d="M0,6.214C-0.234,6.991 -0.483,7.709 -0.997,8.41L-1.742,9.165L-2.46,9.723L-3.512,9.993C-3.982,9.755 -4.401,9.704 -4.942,9.631C-5.404,9.568 -5.458,9.357 -5.637,8.979L-5.964,8.534C-6.103,8.333 -6.229,7.088 -6.161,6.63C-6.057,5.949 -5.566,4.844 -4.854,4.336L-4.126,4.084L-3.443,3.875L-2.652,3.713L-1.711,3.36C-0.924,3.257 -0.737,3.799 -0.531,4.346C-0.311,4.931 0.238,5.426 0,6.214M-7.351,-3.397C-8.808,-3.526 -10.271,-3.218 -11.267,-2.24C-12.281,-1.405 -12.74,0.398 -14.286,1.252C-15.851,1.741 -15.664,3.499 -15.188,4.936C-15.666,4.309 -15.856,3.519 -15.977,2.722C-16.179,1.808 -15.292,0.975 -14.713,0.623C-13.511,-0.16 -13.186,-1.706 -11.939,-2.968C-10.658,-4.128 -8.815,-4.47 -7.253,-4.154C-5.661,-3.876 -4.249,-3.16 -2.938,-2.342C-4.401,-2.83 -5.884,-3.273 -7.351,-3.397M4.703,4.143C4.674,1.252 3.638,-1.147 2.386,-3.685C1.12,-6.261 -2.221,-6.496 -4.618,-7.615C-6.85,-8.659 -8.998,-9.738 -11.587,-7.904C-12.631,-7.163 -13.552,-6.278 -14.072,-5.104C-14.705,-3.666 -15.384,-3.868 -16.508,-3.103C-17.234,-2.609 -17.68,-1.73 -18.432,-1.196C-19.367,-0.539 -19.961,-0.112 -20.417,0.917C-21.635,3.679 -20.43,7.6 -18.964,9.616C-17.976,10.973 -14.133,14.045 -13.092,14.305C-12.278,14.509 -11.471,14.537 -10.687,14.841C-9.007,15.496 -8.241,15.952 -6.387,15.208C-4.215,14.334 -2.547,13.638 -0.187,13.334C1.444,13.125 2.104,12.04 2.915,10.539C3.589,9.284 3.191,8.859 4.033,7.629C4.829,6.459 4.717,5.571 4.703,4.143" style="fill:rgb(26,54,32);fill-rule:nonzero;"/>
            </g>
        </g>
    </g>
</svg>
