<?xml version="1.0" encoding="UTF-8" standalone="no"?>
<!DOCTYPE svg PUBLIC "-//W3C//DTD SVG 1.1//EN" "http://www.w3.org/Graphics/SVG/1.1/DTD/svg11.dtd">
<svg width="100%" height="100%" viewBox="0 0 899 899" version="1.1"
    xmlns="http://www.w3.org/2000/svg" xmlns:xlink="http://www.w3.org/1999/xlink"
    xml:space="preserve" xmlns:serif="http://www.serif.com/"
    style="fill-rule:evenodd;clip-rule:evenodd;stroke-linejoin:round;stroke-miterlimit:2;">
    <g transform="matrix(1,0,0,1,-190.923,-243.014)">
        <g transform="matrix(0.126208,0.00024266,0.00024266,-0.126208,-26.2665,1422.51)">
            <g transform="matrix(7.92342,0.0152344,0.0152344,-7.92342,186.449,11271.5)">
                <path d="M648.373,276.499C684.796,302.947 709.584,341.866 718.962,387.446C723.464,409.414 723.646,445.889 719.318,464.938C717.663,472.381 718.79,476.927 723.452,480.848C732.525,488.564 737.956,486.429 750.355,470.172C780.849,429.97 820.401,404.552 867.874,394.421C876.46,392.67 922.274,392.254 931.863,393.913C937.414,394.933 937.918,395.313 939.172,399.732C942.054,410.718 943.025,430.408 941.605,447.191C938.382,482.145 927.473,511.026 906.593,539.887C897.608,552.364 875.986,573.778 862.462,583.723C850.455,592.534 849.317,593.794 848.423,599.346C847.656,604.519 851.304,610.836 856.852,613.623C860.256,615.397 861.896,615.526 868.588,614.277C892.449,610.032 924,610.597 948.601,615.693C991.873,624.863 1032.96,652.203 1058.39,688.852L1061.28,693.149L1055.21,702.098C1051.79,707.013 1043.82,716.211 1037.5,722.51C1012.97,746.947 985.93,761.661 949.817,770.679C937.443,773.684 934.54,773.931 907.532,773.879C887.843,773.967 875.35,773.312 868.663,772.163C859.326,770.505 858.695,770.504 855.409,772.895C853.514,774.28 850.984,777.304 849.591,779.447C847.565,782.977 847.437,784.239 848.69,788.532C849.945,792.573 852.212,794.975 862.42,802.82C895.564,827.999 918.979,859.218 931.028,894.074C939.563,918.575 942.668,944.327 940.349,969.06C939.576,977.009 938.804,985.085 938.8,986.978C938.668,990.007 937.91,990.637 932.354,992.014C923.641,994.269 876.944,994.179 866.726,991.888C845.532,987.178 820.562,977.285 805.561,967.665C785.141,954.626 765.11,935.909 750.003,915.686C738.171,899.761 734.01,897.734 725.165,903.018C719.226,906.666 717.323,911.963 718.694,920.674C727.55,975.466 716.342,1027.95 687.11,1068.66C678.125,1081.13 662.318,1097.38 651.323,1105.31C638.684,1114.63 640.073,1114.51 628.982,1106.28C591.048,1077.81 566.645,1035.74 559.798,986.628C557.557,970.596 558.259,933.744 560.934,920.624C562.336,913.811 562.213,912.17 560.579,908.507C557.688,902.443 550.752,899.401 544.312,901.282C540.397,902.41 537.869,904.803 531.542,913.121C498.012,957.355 455.428,984.156 407.329,991.383C387.382,994.374 357.346,993.559 344.606,989.875C340.57,988.605 339.199,979.894 339.25,953.39C339.303,925.498 340.327,918.054 346.929,897.873C359.243,860.287 383.539,827.141 416.653,802.594C429.291,793.405 432.327,789.877 432.336,785.334C432.346,780.159 428.571,773.968 424.032,771.813C420.123,770.039 418.609,769.91 406.615,771.78C399.42,772.776 385.535,773.632 375.691,773.614C319.907,773.506 274.131,754.235 237.983,715.672C232.693,709.982 226.397,702.397 224.007,698.607L219.476,691.909L222.135,687.497C226.946,679.429 239.216,665.317 247.939,657.635C280.935,628.544 315.418,614.097 359.849,610.775C377.142,609.546 399.858,610.599 411.59,613.398C419.916,615.307 422.188,614.933 426.866,610.777C432.302,605.992 433.827,600.315 430.936,594.63C429.804,592.483 423.631,586.791 417.203,581.983C379.017,553.387 352.34,512.318 342.583,466.864C338.456,447.294 339.306,398.832 343.983,395.054C345.753,393.669 357.368,391.546 369.991,390.561C380.468,389.697 401.92,391.506 417.311,394.564C460.836,403.356 500.415,429.557 530.754,469.75C536.419,477.207 541.835,483.023 543.726,483.784C550.536,486.448 557.484,483.053 561.538,475.11C562.805,472.841 562.685,469.433 561.191,458.955C557.702,435.473 559.158,400.138 564.245,380.207C569.457,360.528 579.346,337.325 588.586,323.712C597.192,311.108 611.359,294.728 620.461,287.047C629.309,279.618 639.926,271.813 641.314,271.816C641.567,271.816 644.718,273.968 648.373,276.499Z" style="fill:white;"/>
            </g>
            <g transform="matrix(1,0,0,1,793.99,17.6036)">
                <path d="M4414,9322C4305,9284 4101,9110 3963,8937C3756,8679 3614,8297 3609,7990C3608,7882 3606,7882 3510,7966C3350,8106 3163,8217 2960,8293C2709,8386 2372,8414 2130,8362C2025,8339 1976,8316 1944,8275C1911,8231 1882,8112 1871,7970C1834,7518 1998,7054 2314,6710L2365,6655L2335,6649C2319,6645 2279,6642 2247,6641C1987,6636 1645,6521 1409,6359C1125,6164 885,5862 919,5742C963,5589 1214,5319 1463,5156C1586,5076 1816,4983 1980,4946C2047,4932 2255,4902 2324,4898L2362,4895L2303,4830C2045,4546 1901,4212 1870,3824C1853,3619 1882,3385 1936,3292C1967,3239 2016,3213 2134,3189C2229,3169 2486,3162 2601,3175C2936,3215 3277,3373 3533,3608C3565,3637 3595,3658 3600,3655C3606,3652 3610,3618 3610,3580C3610,3327 3708,3003 3858,2763C4028,2489 4340,2216 4482,2218C4610,2220 4894,2464 5069,2723C5165,2866 5242,3040 5290,3222C5317,3323 5327,3393 5348,3595L5355,3665L5415,3609C5752,3296 6233,3128 6679,3169C6820,3182 6928,3207 6969,3237C7035,3286 7064,3376 7082,3588C7111,3920 7021,4284 6837,4580C6796,4646 6704,4767 6629,4852L6588,4900L6639,4900C6697,4900 6873,4924 6975,4946C7331,5022 7673,5235 7904,5524C7963,5599 8026,5706 8035,5747C8045,5794 8025,5851 7971,5932C7823,6152 7600,6346 7352,6470C7146,6573 6954,6623 6671,6648L6588,6655L6647,6720C6769,6854 6851,6978 6931,7145C7064,7425 7118,7761 7075,8045C7036,8306 7000,8340 6725,8376C6638,8388 6572,8390 6485,8385C6065,8362 5719,8218 5416,7942C5384,7913 5356,7890 5355,7892C5353,7894 5347,7953 5341,8023C5308,8408 5176,8728 4935,9003C4803,9155 4609,9306 4518,9328C4462,9342 4476,9343 4414,9322ZM4534,9073C4823,8864 5020,8556 5095,8195C5131,8021 5133,7732 5099,7581C5086,7522 5095,7486 5132,7455C5204,7394 5247,7411 5345,7540C5586,7859 5899,8061 6275,8142C6343,8156 6706,8160 6782,8147C6826,8139 6830,8136 6840,8101C6863,8014 6871,7858 6860,7725C6835,7448 6749,7219 6584,6990C6513,6891 6342,6721 6235,6642C6140,6572 6131,6562 6124,6518C6118,6477 6147,6427 6191,6405C6218,6391 6231,6390 6284,6400C6473,6434 6723,6430 6918,6390C7261,6318 7587,6102 7789,5812L7812,5778L7764,5707C7737,5668 7674,5595 7624,5545C7430,5351 7216,5234 6930,5162C6832,5138 6809,5136 6595,5136C6439,5135 6340,5140 6287,5149C6213,5162 6208,5162 6182,5143C6167,5132 6147,5108 6136,5091C6120,5063 6119,5053 6129,5019C6139,4987 6157,4968 6238,4906C6501,4707 6687,4460 6783,4184C6851,3990 6876,3786 6858,3590C6852,3527 6846,3463 6846,3448C6845,3424 6839,3419 6795,3408C6726,3390 6356,3390 6275,3408C6107,3445 5909,3523 5790,3599C5628,3702 5469,3850 5349,4010C5255,4136 5222,4152 5152,4110C5105,4081 5090,4039 5101,3970C5172,3536 5084,3120 4853,2797C4782,2698 4657,2569 4570,2506C4470,2432 4481,2433 4393,2498C4092,2723 3898,3056 3843,3445C3825,3572 3830,3864 3851,3968C3862,4022 3861,4035 3848,4064C3825,4112 3770,4136 3719,4121C3688,4112 3668,4093 3618,4027C3353,3676 3016,3463 2635,3405C2477,3381 2239,3387 2138,3416C2106,3426 2095,3495 2095,3705C2095,3926 2103,3985 2155,4145C2252,4443 2444,4706 2706,4901C2806,4974 2830,5002 2830,5038C2830,5079 2800,5128 2764,5145C2733,5159 2721,5160 2626,5145C2569,5137 2459,5130 2381,5130C1939,5130 1576,5282 1289,5587C1247,5632 1197,5692 1178,5722L1142,5775L1163,5810C1201,5874 1298,5986 1367,6047C1628,6278 1901,6393 2253,6420C2390,6430 2570,6422 2663,6400C2729,6385 2747,6388 2784,6421C2827,6459 2839,6504 2816,6549C2807,6566 2758,6611 2707,6649C2404,6875 2192,7200 2114,7560C2081,7715 2087,8099 2124,8129C2138,8140 2230,8157 2330,8165C2413,8172 2583,8158 2705,8134C3050,8065 3364,7858 3605,7540C3650,7481 3693,7435 3708,7429C3762,7408 3817,7435 3849,7498C3859,7516 3858,7543 3846,7626C3818,7812 3829,8092 3869,8250C3910,8406 3988,8590 4061,8698C4129,8798 4241,8928 4313,8989C4383,9048 4467,9110 4478,9110C4480,9110 4505,9093 4534,9073Z" style="fill-rule:nonzero;"/>
            </g>
            <g transform="matrix(1,0,0,1,793.99,17.6036)">
                <path d="M4421,8466C4377,8441 4371,8416 4370,8250C4370,8077 4375,8059 4436,8034C4480,8016 4522,8025 4557,8062C4585,8091 4585,8092 4588,8240C4591,8360 4588,8394 4576,8419C4548,8473 4474,8495 4421,8466Z" style="fill-rule:nonzero;"/>
            </g>
            <g transform="matrix(7.92342,0.0152344,0.0152344,-7.92342,186.449,11271.5)">
                <path d="M614.473,578.702C629.597,589.333 636.66,591.744 646.004,589.743C653.201,588.116 672.156,575.532 687.2,562.309L698.705,552.234L699.433,567.002C700.163,581.265 702.405,596.919 705.161,607.4C707.167,614.724 713.084,622.055 719.641,625.223C727.71,629.277 746.13,632.72 764.176,633.765C772.757,634.286 779.697,634.93 779.697,635.183C779.696,635.435 775.648,640.349 770.715,646.019C760.343,657.863 749.713,672.735 745.533,680.931C741.225,689.378 741.588,697.835 746.745,707.058C752.279,716.913 763.231,731.448 772.929,741.689C777.211,746.367 780.737,750.413 780.737,750.665C780.736,751.044 773.794,751.661 765.337,752.024C733.908,753.478 717.113,758.368 710.153,768.072C704.332,776.012 700.64,792.538 699.076,818.661C698.556,826.232 697.787,832.289 697.409,832.288C697.03,832.287 693.88,829.504 690.353,826.09C681.283,817.112 661.749,802.687 653.427,798.506C644.223,793.945 636.019,793.803 627.556,797.951C620.102,801.597 605.315,812.296 592.294,823.63C586.984,828.289 582.434,832.067 582.055,832.066C581.803,832.066 581.184,825.375 580.822,817.171C579.851,796.976 576.978,781.321 572.327,771.846C568.933,764.646 567.925,763.634 560.738,760.213C551.533,755.651 536.142,752.719 515.446,751.543C507.243,751.149 500.555,750.505 500.556,750.253C500.556,750 504.857,744.834 510.169,738.786C523.956,723.289 535.601,705.516 537.384,697.442C538.656,692.018 538.534,689.872 536.903,684.947C534.142,676.864 523.193,660.815 510.977,646.782C505.31,640.461 500.777,635.025 500.778,634.646C500.778,634.394 507.216,633.775 515.168,633.412C530.315,632.558 552.535,628.688 559.987,625.547C573.376,620.02 579.339,603.876 581.302,567.406L582.088,552.136L594.184,562.509C600.863,568.201 609.935,575.538 614.473,578.702Z" style="fill:rgb(242,234,140);"/>
            </g>
            <g transform="matrix(1,0,0,1,793.99,17.6036)">
                <path d="M4434,7810C4422,7806 4403,7789 4391,7774C4370,7748 4370,7742 4370,7313L4370,6879L4324,6912C4247,6966 4090,7128 4012,7232C3927,7347 3904,7365 3854,7357C3811,7350 3782,7326 3765,7285C3754,7260 3755,7239 3768,7165C3784,7068 3791,6701 3777,6666C3770,6649 3727,6688 3477,6937C3316,7097 3175,7233 3163,7239C3119,7261 3071,7253 3034,7216C2998,7180 2990,7139 3011,7097C3017,7085 3155,6941 3318,6778C3610,6485 3613,6481 3584,6474C3528,6459 3201,6465 3098,6483C3044,6492 2994,6500 2985,6500C2959,6500 2901,6440 2894,6405C2885,6355 2911,6318 2998,6254C3116,6166 3196,6094 3286,5990L3369,5895L2936,5890L2502,5885L2476,5861C2438,5825 2426,5779 2443,5738C2470,5673 2450,5675 2933,5670L3373,5665L3311,5587C3237,5496 3120,5386 3000,5298C2909,5230 2885,5196 2895,5150C2913,5069 2967,5046 3085,5068C3173,5084 3533,5091 3584,5077C3613,5069 3610,5065 3312,4767C3116,4570 3009,4455 3005,4438C2985,4359 3059,4285 3138,4305C3155,4309 3270,4416 3467,4613C3633,4778 3772,4911 3776,4908C3789,4895 3792,4565 3781,4475C3756,4288 3756,4268 3779,4238C3791,4223 3818,4205 3839,4199C3896,4182 3936,4205 3994,4289C4069,4399 4232,4570 4331,4643L4370,4672L4370,4237C4370,3817 4371,3802 4390,3777C4414,3747 4468,3727 4503,3735C4517,3739 4541,3755 4556,3771L4585,3801L4590,4236L4595,4670L4675,4602C4779,4513 4866,4419 4952,4303C4993,4248 5033,4205 5048,4199C5102,4178 5157,4205 5189,4268C5199,4286 5197,4313 5184,4398C5165,4513 5159,4779 5174,4864L5182,4913L5478,4618C5642,4455 5785,4317 5797,4311C5839,4290 5880,4298 5916,4334C5953,4371 5961,4419 5939,4463C5933,4475 5797,4616 5637,4777C5388,5027 5349,5070 5366,5077C5402,5092 5799,5085 5879,5068C5919,5060 5962,5055 5974,5058C6008,5066 6049,5111 6056,5148C6066,5200 6041,5236 5953,5300C5829,5389 5590,5627 5590,5661C5590,5666 5756,5670 6021,5670L6452,5670L6486,5704C6525,5743 6530,5781 6504,5831C6475,5888 6462,5890 6004,5890C5747,5890 5590,5894 5592,5899C5594,5905 5630,5949 5672,5998C5748,6086 5860,6186 5972,6268C6037,6316 6060,6344 6060,6378C6060,6420 6030,6468 5994,6485C5962,6500 5952,6500 5852,6484C5739,6466 5407,6459 5361,6474C5339,6482 5362,6506 5644,6789L5950,7096L5950,7142C5950,7181 5945,7194 5919,7219C5894,7245 5881,7250 5842,7250L5796,7250L5489,6943L5181,6637L5173,6676C5159,6744 5165,7067 5182,7168C5201,7277 5196,7304 5145,7339C5117,7358 5102,7361 5072,7357C5032,7350 5012,7332 4922,7214C4857,7130 4737,7005 4655,6937L4595,6887L4590,7316C4586,7638 4582,7751 4572,7767C4548,7810 4483,7830 4434,7810ZM4270,6678C4390,6594 4446,6575 4520,6591C4577,6604 4727,6704 4846,6809L4937,6889L4943,6772C4949,6659 4967,6535 4989,6452C5005,6394 5052,6336 5104,6311C5168,6279 5314,6252 5457,6244C5525,6240 5580,6235 5580,6233C5580,6231 5548,6192 5509,6147C5427,6053 5343,5935 5310,5870C5276,5803 5279,5736 5320,5663C5364,5585 5451,5470 5528,5389C5562,5352 5590,5320 5590,5318C5590,5315 5535,5310 5468,5307C5219,5295 5086,5256 5031,5179C4985,5116 4956,4985 4944,4778C4940,4718 4934,4670 4931,4670C4928,4670 4903,4692 4875,4719C4803,4790 4648,4904 4582,4937C4509,4973 4444,4974 4377,4941C4318,4912 4201,4827 4098,4737C4056,4700 4020,4670 4017,4670C4015,4670 4010,4723 4007,4788C3999,4948 3976,5072 3939,5147C3912,5204 3904,5212 3847,5239C3774,5275 3652,5298 3488,5307C3423,5310 3370,5315 3370,5317C3370,5319 3404,5360 3446,5408C3555,5531 3647,5672 3661,5736C3671,5779 3670,5796 3657,5835C3635,5899 3548,6026 3451,6137C3406,6187 3370,6230 3370,6233C3370,6235 3421,6240 3484,6243C3604,6250 3780,6281 3839,6306C3945,6350 3992,6478 4007,6767L4013,6888L4109,6806C4162,6761 4234,6703 4270,6678Z" style="fill-rule:nonzero;"/>
            </g>
            <g transform="matrix(1,0,0,1,793.99,17.6036)">
                <path d="M2570,7691C2537,7658 2525,7622 2535,7583C2544,7545 2735,7353 2777,7339C2867,7310 2952,7409 2909,7493C2893,7525 2730,7689 2698,7706C2653,7730 2602,7724 2570,7691Z" style="fill-rule:nonzero;"/>
            </g>
            <g transform="matrix(1,0,0,1,793.99,17.6036)">
                <path d="M6255,7702C6209,7672 6052,7507 6040,7475C6031,7452 6032,7437 6045,7404C6065,7351 6122,7323 6174,7340C6212,7352 6404,7543 6415,7578C6426,7614 6413,7664 6386,7689C6353,7720 6293,7726 6255,7702Z" style="fill-rule:nonzero;"/>
            </g>
            <g transform="matrix(1,0,0,1,793.99,17.6036)">
                <path d="M1833,5874C1765,5840 1753,5745 1811,5696C1841,5670 1845,5670 2000,5670C2155,5670 2159,5670 2189,5696C2249,5746 2238,5840 2167,5873C2118,5897 1880,5897 1833,5874Z" style="fill-rule:nonzero;"/>
            </g>
            <g transform="matrix(1,0,0,1,793.99,17.6036)">
                <path d="M6795,5881C6720,5850 6704,5740 6767,5690C6790,5672 6806,5670 6954,5670C7091,5670 7118,5673 7136,5688C7181,5724 7194,5795 7164,5839C7135,5880 7092,5890 6948,5889C6875,5889 6806,5885 6795,5881Z" style="fill-rule:nonzero;"/>
            </g>
            <g transform="matrix(1,0,0,1,793.99,17.6036)">
                <path d="M2770,4209C2732,4194 2552,4010 2540,3974C2515,3898 2585,3819 2662,3835C2698,3843 2880,4013 2906,4062C2934,4117 2911,4182 2855,4206C2816,4222 2805,4222 2770,4209Z" style="fill-rule:nonzero;"/>
            </g>
            <g transform="matrix(1,0,0,1,793.99,17.6036)">
                <path d="M6089,4205C6053,4185 6027,4128 6036,4087C6044,4049 6225,3859 6271,3840C6362,3802 6454,3904 6409,3993C6393,4025 6230,4189 6198,4206C6164,4224 6123,4223 6089,4205Z" style="fill-rule:nonzero;"/>
            </g>
            <g transform="matrix(1,0,0,1,793.99,17.6036)">
                <path d="M4434,3520C4422,3516 4403,3499 4391,3484C4372,3459 4370,3446 4370,3299C4370,3145 4370,3141 4396,3111C4447,3050 4546,3063 4576,3135C4596,3183 4596,3417 4575,3466C4554,3517 4488,3542 4434,3520Z" style="fill-rule:nonzero;"/>
            </g>
        </g>
    </g>
</svg>